<?xml version="1.0" encoding="UTF-8"?>
<svg width="100pt" height="100pt" version="1.1" viewBox="0 0 100 100" xmlns="http://www.w3.org/2000/svg">
 <g>
  <path d="m5 0h90c2.7617 0 5 2.7617 5 5v90c0 2.7617-2.2383 5-5 5h-90c-2.7617 0-5-2.7617-5-5v-90c0-2.7617 2.2383-5 5-5z" fill="#ffb258"/>
  <path d="m50 20.934c-16.027 0-29.066 13.039-29.066 29.066s13.039 29.066 29.066 29.066 29.066-13.039 29.066-29.066-13.039-29.066-29.066-29.066zm-26.645 29.066c0-14.691 11.953-26.645 26.645-26.645 6.9102 0 13.215 2.6445 17.953 6.9766l-14.82 14.824h-11.609v9.6875h1.9219l-13.113 13.109c-4.3281-4.7383-6.9766-11.043-6.9766-17.953zm26.645 26.645c-6.9102 0-13.215-2.6445-17.953-6.9766l14.824-14.824h0.015625l9.6875-9.6875h-0.015625l13.109-13.109c4.3281 4.7383 6.9766 11.043 6.9766 17.953 0 14.691-11.953 26.645-26.645 26.645z"/>
  <path d="m28.207 45.156h10.895v9.6875h-10.895z"/>
  <path d="m59.996 45.156-9.6875 9.6875h21.496v-9.6875z"/>
 </g>
</svg>
