<?xml version="1.0" encoding="UTF-8"?>
<svg width="100pt" height="100pt" version="1.1" viewBox="0 0 100 100" xmlns="http://www.w3.org/2000/svg">
 <defs>
  <clipPath id="a">
   <path d="m25 18.512h50v62.977h-50z"/>
  </clipPath>
 </defs>
 <path d="m100 50c0 27.613-22.387 50-50 50s-50-22.387-50-50 22.387-50 50-50 50 22.387 50 50"/>
 <path d="m46.066 48.469v-4.5469h4.5469c0.17969 0 0.35156-0.074219 0.48047-0.19922 0.125-0.12891 0.19531-0.30078 0.19531-0.48047v-7.8789c0-0.17969-0.070312-0.35156-0.19531-0.48047-0.12891-0.125-0.30078-0.19531-0.48047-0.19531h-4.5469v-4.5469c0-0.17969-0.074218-0.35547-0.19922-0.48047-0.12891-0.12891-0.30078-0.19922-0.48047-0.19922h-7.8789c-0.375 0-0.67969 0.30469-0.67969 0.67969v4.5469h-4.543c-0.37891 0-0.67969 0.30078-0.67969 0.67578v7.8789c0 0.17969 0.070312 0.35156 0.19922 0.48047 0.125 0.125 0.29687 0.19922 0.48047 0.19922h4.5469v4.5469h-0.003906c0 0.17969 0.074219 0.35156 0.19922 0.48047 0.12891 0.125 0.30078 0.19922 0.48047 0.19922h7.8789c0.17969 0 0.35156-0.074219 0.48047-0.19922 0.125-0.12891 0.19922-0.30078 0.19922-0.48047zm-1.3594-5.2266v4.5469h-6.5195v-4.5469c0-0.17969-0.070312-0.35547-0.19922-0.48047-0.125-0.12891-0.29688-0.19922-0.48047-0.19922h-4.5469v-6.5195h4.5469c0.18359 0 0.35547-0.070313 0.48047-0.19531 0.12891-0.12891 0.19922-0.30078 0.19922-0.48438v-4.543h6.5156v4.5469l0.003906-0.003907c0 0.18359 0.070313 0.35547 0.19922 0.48438 0.125 0.125 0.30078 0.19531 0.48047 0.19531h4.5469v6.5156l-4.5469 0.003906c-0.375 0-0.67969 0.30469-0.67969 0.67969z" fill="#fff"/>
 <g clip-path="url(#a)">
  <path d="m70.562 37.348c-1.9844-1.7227-4.5-2.7266-7.1289-2.8398-1.5742-0.03125-3.1289 0.35156-4.5117 1.1094-0.66797 0.33984-1.3672 0.61719-2.0859 0.82812 0.43359-3.0625 0.64453-6.1562 0.64062-9.25v-0.34766 0.003906c0-0.21484-0.10156-0.41797-0.27344-0.54687-0.17188-0.125-0.39844-0.16406-0.60547-0.10156-1.8711 0.57812-3.8711 0.57812-5.7422 0-3.1133-0.95312-6.1719-3.5117-8.8359-7.4023l0.003907 0.003907c-0.12891-0.18359-0.33594-0.29297-0.55859-0.29297-0.22656 0-0.4375 0.10938-0.56641 0.29297-2.6758 3.8945-5.7422 6.4492-8.8359 7.4023l0.003906-0.003906c-1.875 0.57812-3.875 0.57812-5.75 0-0.20312-0.0625-0.42578-0.023437-0.60156 0.10547-0.17188 0.125-0.27344 0.32812-0.27344 0.54297v0.34766c0 16.621 6.043 30.398 13.855 32.621-1.4062 9.3359 0.67969 14.727 2.7188 17.613 2.1523 3.0859 3.8789 4.3633 5.2656 3.9141 1.2773-0.41406 1.6445-2.1523 1.9102-3.3984 0.32422-1.5 0.36719-3.043 0.12891-4.5547-0.09375-0.625-0.13281-1.2539-0.11719-1.8828 0.19531-3.1445 3.125-7.1484 6.1172-7.1562 2.7188 0 5.4961 3.3633 6.0273 6.2578 0.12109 0.90234 0.12109 1.8164 0 2.7188-0.22266 1.8125-0.058594 3.6523 0.47656 5.3984 0.40625 1.168 0.97266 2.5273 2.1328 2.7148 0.11719 0.015626 0.23828 0.015626 0.35547 0 1.0312 0 1.9297-0.90234 2.6172-1.7266 4.4023-5.3008 4.8867-13.68 4.9062-14.035v0.003906c0.12109-2.4609-0.015626-4.9297-0.40234-7.3672 1.9336-2.8516 3.0234-6.1914 3.1406-9.6367 0.054687-2.0859 0.20312-7.6367-4.0117-11.336zm-43.789-9.6133c1.875 0.41406 3.8242 0.33594 5.6602-0.23047 3.1875-0.97266 6.2852-3.3984 9.0195-7.1406 2.7188 3.7109 5.832 6.1719 9.0117 7.1406h-0.003906c1.8359 0.56641 3.7852 0.64453 5.6602 0.23047-0.019532 3.1406-0.26953 6.2773-0.74609 9.3828 0.003906 0.019531 0.003906 0.039062 0 0.054687-0.31641 2.0469-0.75 4.0742-1.2969 6.0703-0.035156 0.066406-0.058594 0.13672-0.070313 0.21094-2.5742 9.1602-7.2344 15.281-12.559 15.281-8.0117 0-14.555-13.855-14.676-31zm46.441 20.949c-0.11719 3.2734-1.1758 6.4414-3.0508 9.1289-0.10547 0.14062-0.14453 0.32031-0.10937 0.49609 0.39844 2.418 0.53906 4.8711 0.42187 7.3164 0 0.082031-0.48437 8.2852-4.5938 13.238-0.97266 1.1602-1.4531 1.2656-1.6562 1.2227-0.20312-0.039063-0.59766-0.32813-1.0664-1.8398h-0.003906c-0.48438-1.582-0.625-3.25-0.41406-4.8945 0.11719-1.0156 0.10156-2.0469-0.046876-3.0625-0.64062-3.4609-3.9219-7.3789-7.3672-7.3789-3.8672 0-7.2578 4.6211-7.4766 8.4336-0.03125 0.71875 0.003907 1.4375 0.10938 2.1523 0.21875 1.3555 0.1875 2.7383-0.10156 4.0781-0.16797 0.78906-0.47656 2.2422-1.0039 2.418-0.40625 0.12891-1.6562-0.43359-3.7383-3.3984-1.8828-2.6758-3.8125-7.7188-2.4922-16.566h-0.003906c0.28125 0.03125 0.56641 0.046875 0.85156 0.046875 5.8047 0 10.875-6.3672 13.715-15.875h-0.003906c1.2734-0.12109 2.4648-0.66016 3.3984-1.5273 0.98438-0.75391 1.8359-1.3984 3.0703-1.293h0.003906c0.98438 0.12109 1.8945 0.58203 2.5742 1.3047 0.27344 0.22656 0.67578 0.20312 0.92188-0.054688 0.24609-0.25391 0.25391-0.66016 0.015625-0.92188-0.90234-0.94141-2.1016-1.5391-3.3984-1.6875-1.7617-0.14844-2.957 0.76172-4.0078 1.5703-0.625 0.5625-1.3711 0.97656-2.1836 1.2109 0.41406-1.5703 0.76172-3.2227 1.0547-4.9336 1-0.21484 1.9688-0.5625 2.8828-1.0273 1.1875-0.66797 2.5352-1.0039 3.8984-0.97266 2.3125 0.10156 4.5195 0.98828 6.2578 2.5078 3.7266 3.2773 3.5898 8.3867 3.543 10.309z" fill="#fff"/>
 </g>
</svg>
