<svg xmlns="http://www.w3.org/2000/svg" xmlns:xlink="http://www.w3.org/1999/xlink" width="100" height="100" viewBox="0 0 100 100"><rect width="100%" height="100%" fill="#374574"></rect><g transform="translate(50 50) scale(0.69 0.69) rotate(0) translate(-50 -50)" style="fill:#ffffff"><svg fill="#ffffff" xmlns="http://www.w3.org/2000/svg" xmlns:xlink="http://www.w3.org/1999/xlink" version="1.1" x="0px" y="0px" viewBox="0 2 100 96" enable-background="new 0 2 100 96" xml:space="preserve"><path d="M72.979,80.318l-0.06,0.226l-0.049,0.089l-0.319,0.295l-0.207,0.256l-0.418,0.912h-0.047l-0.056-0.094l-0.087-0.061  l-0.178-0.072l0.034,0.135l0.042,0.096l-0.009,0.08l-0.114,0.092l0.021,0.168l-0.135,0.227l-0.172,0.227l-0.086,0.168l-0.016,0.101  l-0.139,0.28l-0.035,0.117l-0.064,0.35l-0.232,0.555L70.525,85.4l-0.06,0.142l0.072,0.043l0.052-0.024l0.084-0.134l0.124-0.286  l0.159-0.705l0.447-1.201l0.705-1.373l0.963-1.401l0.082-0.09l-0.064-0.078L72.979,80.318z M74.596,77.835l-0.098-0.042  l-0.096,0.047l-0.057,0.094l-0.039,0.088l-0.057,0.062l-0.104,0.024L73.7,78.871v0.043l0.146,0.039l0.002,0.053l-0.047,0.096  l-0.035,0.056L73.541,79.4l-0.275,0.408l-0.103,0.26l0.065,0.154l0.043-0.166l0.107-0.166l0.27-0.315l0.313-0.474l0.67-0.756  l0.021-0.08l0.013-0.189l0.021-0.085l-0.02-0.074L74.596,77.835z M70.829,90.053l0.092,0.367l0.067,0.178l0.084,0.142l0.035,0.081  l0.094,0.477l0.07,0.182l0.178,0.326l0.063,0.188l0.084,0.651l0.07,0.219l0.133,0.223l0.057,0.137l0.15,1.731l0.057,0.149  l0.068,0.047L72.191,95l-0.006-0.145l-0.08-0.451l-0.108-0.26l-0.019-0.168l0.006-0.363l-0.031-0.191l-0.105-0.341l-0.065-0.506  l-0.048-0.187l-0.067-0.107l0.013-0.102l-0.796-2.632l-0.252-1.481l-0.059-2.178l0.051-0.168l-0.11,0.123l-0.041,0.399l-0.06,0.178  l0.06,0.152l-0.007,0.159l-0.053,0.319l0.014,0.171l0.069,0.311l0.064,0.798l-0.021,0.295l-0.072,0.292l0.229,0.337l0.031,0.069  l0.01,0.033l0.037,0.064l0.008,0.047L70.768,89.5l-0.076,0.021l-0.016,0.033l0.01,0.068l0.019,0.061l0.032,0.055l0.048,0.049  l-0.056,0.063L70.829,90.053z M90.021,67.277l-0.008-0.051l-0.031-0.004l-0.012,0.012l-0.004,0.053v-0.061l-0.009,0.026v0.022  l-0.01,0.016l-0.04-0.005v0.06l0.133,0.023l0.02,0.105l-0.049,0.117l-0.074,0.055l-0.014,0.009l-0.17,0.046l-0.036,0.045  l-0.063,0.134l-0.32,0.254l-0.025,0.042l-0.115,0.004l-0.09,0.022l-0.057,0.063l-0.02,0.118l-0.09,0.126l-0.565,0.352l-0.313,0.271  l-0.144,0.157l-0.092,0.19h0.053l0.13-0.172l1.1-0.783l0.342-0.129l1.145-0.938l-0.474-0.173L90.021,67.277z M99.971,52.434  l-0.107-0.096L99.66,52.01l0.017-0.098l0.071-0.121l0.018-0.086l0.021-0.395l-0.041-0.145l-0.138-0.036l-0.147,0.039l-0.026-0.002  l-0.023-0.001l-0.016-0.009l-0.021-0.017l-0.022-0.023l-0.021-0.032l-0.016-0.045l-0.03-0.237l-0.013-0.045l-0.039-0.066  l-0.023-0.045l-0.02-0.062l-0.016-0.071l-0.017-0.05l-0.021-0.043l-0.025-0.037l-0.082-0.088l-0.195-0.166L98.8,50.09l-0.024-0.053  l-0.016-0.094l0.008-0.063l0.016-0.05l0.031-0.08l0.023-0.034l0.096-0.123l0.004-0.03l-0.014-0.022l-0.104-0.072l-0.119-0.127  l-0.074-0.103l-0.025-0.061l-0.021-0.076l-0.022-0.143l-0.02-0.073l-0.023-0.053l-0.031-0.026l-0.043-0.019l-0.092-0.024  l-0.033-0.02l-0.029-0.023l-0.023-0.039l-0.016-0.041l-0.018-0.07l0.006-0.043l0.022-0.034l0.08-0.053  c0.004-0.004,0.009-0.008,0.013-0.013l0.02-0.025l0.021-0.047l-0.002-0.047l-0.025-0.036l-0.036-0.025l-0.044-0.018L98.1,48.171  l-0.043-0.021l-0.037-0.025l-0.066-0.054l-0.204-0.228l-0.073-0.101l-0.049-0.081l-0.02-0.055l-0.025-0.085l-0.004-0.066  l0.004-0.062l0.029-0.092l0.031-0.065l0.012-0.049l0.013-0.073l0.013-0.25l0.01-0.081l0.039-0.143l0.002-0.05l-0.006-0.043  l-0.021-0.034l-0.022-0.029l-0.027-0.029l-0.024-0.068l-0.028-0.104l-0.052-0.343l-0.021-0.08l-0.195-0.289l-0.055-0.116  l-0.029-0.087l-0.038-0.083l-0.065-0.117l-0.104-0.137l-0.146-0.154l-0.067-0.056l-0.249-0.126l-0.034-0.023l-0.032-0.027  l-0.027-0.03l-0.154-0.291l-0.034-0.041l-0.096-0.074l-0.048-0.027l-0.104-0.078l-0.042-0.045l-0.016-0.035l-0.007-0.018  c0.025-4.67,0.016-9.34-0.029-14.01l-0.074-0.029l-0.113-0.058l-0.221-0.164l-0.14,0.072l-0.156,0.007l-0.147-0.04l-0.258-0.15  l-0.113,0.043l-0.101,0.086l-0.104,0.049l-0.365-0.189l-0.131,0.004l-0.077,0.108l-0.054,0.144l-0.078,0.08l-0.153-0.085  l-0.161,0.081l-0.139-0.029l-0.057-0.088l0.097-0.094V29.69l-0.19,0.028l-0.186-0.056l-0.141-0.128l-0.055-0.19l-0.074-0.166  c-0.057-0.014-0.113-0.027-0.17-0.04l-0.193-0.007l-0.139-0.069v0.062l-0.359-0.123l-0.112-0.058l0.024-0.05l0.023-0.035  l-0.162-0.016l-0.199,0.034L91.414,28.8l-0.087-0.052l-0.104-0.034l-0.107-0.022l-0.049,0.003l-0.088,0.042l-0.054,0.011  l-0.043-0.019l-0.065-0.083l-0.133-0.066l-0.119-0.213l-0.107-0.049l-0.096-0.009l-0.191-0.06l-0.498-0.088l-0.285-0.278l-0.111-0.2  l-0.039-0.054l-0.074-0.054l-0.066-0.029l-0.048-0.056l-0.021-0.139l-0.021-0.043l-0.049-0.051l-0.06-0.042l-0.057-0.016  l-0.264-0.009l-0.117-0.038l-0.119-0.085L88.1,26.82l-0.135-0.09l-0.238-0.058l-0.039-0.052l-0.03-0.063l-0.042-0.054l-0.086-0.056  l-0.5-0.171l-0.127,0.02l-0.143,0.116l-0.048,0.137l-0.011,0.16l-0.041,0.1l-0.09-0.051l-0.045,0.072l-0.058,0.038L86.4,26.894  l-0.084,0.049l-0.084-0.052H86.18l-0.022,0.081l-0.005,0.072l-0.018,0.038l-0.031,0.023l-0.049,0.025l-0.068,0.007l-0.635-0.02  L85.27,27.13l-0.047-0.065l-0.052-0.04l-0.058-0.02L85.041,27l-0.034,0.02l-0.045,0.036l-0.04,0.018l-0.018-0.04l-0.029-0.045  l-0.02-0.032l0.002-0.015l-0.239-0.001l-0.097-0.055l0.071-0.13l-0.061-0.141l-0.082-0.07l-0.099-0.052l-0.1-0.083l-0.1-0.036  l-0.086,0.078l-0.103,0.175l-0.058-0.003l-0.126-0.047l-0.025,0.021l-0.179,0.096l-0.078,0.02l-0.085,0.047l-0.075,0.063  l-0.051,0.059l-0.077-0.007l-0.116,0.014l-0.246-0.007l-0.054,0.058l0.033,0.258l-0.085,0.058l-0.053-0.02l-0.041-0.043  l-0.041-0.062l-0.062,0.02l-0.043,0.043l-0.047,0.061l-0.213,0.036l-0.089-0.023l-0.43-0.274l-0.082-0.082l-0.076-0.023  l-0.096,0.056l-0.082,0.086L81.359,27.1l-0.053-0.005l-0.117,0.062l-0.142,0.099l-0.257,0.11l-0.105,0.015h-0.391l-0.076,0.02  l-0.154,0.085l-0.084,0.02l-0.073,0.063l-0.136,0.314L79.698,28l-0.144,0.09l-0.137,0.015l-0.325-0.036l-0.198,0.027l-0.049,0.083  l0.004,0.135l-0.043,0.19l-0.209,0.149l-0.229-0.216L78.152,28.1l-0.178-0.217l-0.14-0.029l-0.515,0.029l-0.059-0.031l-0.029-0.072  l-0.018-0.085l-0.025-0.066l-0.041-0.04l-0.166-0.085l-0.313-0.097l-0.095-0.099l-0.028-0.034l-0.023-0.04l-0.01-0.045v-0.051  l0.014-0.045l0.082-0.17l-0.021-0.054l-0.063-0.065l-0.188-0.078l-0.104-0.025l-0.074,0.002l-0.04,0.023l-0.032,0.029l-0.049,0.078  l-0.098,0.283l-0.021,0.043l-0.023,0.038l-0.028,0.036l-0.032,0.029l-0.059,0.027l-0.076,0.022l-0.145,0.02l-0.087-0.004  l-0.063-0.012l-0.039-0.022l-0.199-0.151l-0.079-0.04l-0.062-0.009l-0.271,0.036l-0.074-0.005l-0.054-0.018l-0.037-0.027  l-0.092-0.095l-0.05-0.076l-0.032-0.088l-0.048-0.258l-0.034-0.09l-0.037-0.043l-0.051-0.042l-0.104-0.047l-0.072-0.013h-0.064  l-0.26,0.049l-0.045,0.018l-0.04,0.023l-0.054,0.068l0.006,0.119l-0.019,0.222l-0.118,0.249l-0.117,0.151l-0.17,0.045l-0.27-0.072  l0.012,0.141l0.055,0.062l0.061,0.045l0.029,0.092l-0.032,0.065l-0.146,0.085l-0.033,0.097l-0.018,0.268l-0.066,0.232l-0.144,0.148  l-0.239,0.009l-0.18-0.114l-0.15-0.206l-0.101-0.24l-0.038-0.222l0.031-0.153l0.145-0.229l0.035-0.148l-0.02-0.114l-0.061-0.103  l-0.082-0.088l-0.097-0.069l-0.049,0.029l-0.097,0.038l-0.041,0.029l-0.032,0.043l-0.024,0.069l-0.136,0.232l-0.041,0.058  l-0.204-0.182l-0.093-0.024l-0.119,0.082l-0.019,0.027l-0.041,0.094l-0.022,0.038l-0.04,0.04l-0.079,0.049l-0.034,0.032l-0.06,0.043  l-0.087,0.029l-0.491,0.033l-0.123-0.078L70,27.226l-0.018-0.188l-0.063-0.117l-0.111-0.067l-0.172-0.029l-0.488,0.033l-0.112-0.067  l-0.068-0.171l0.007-0.338l-0.067-0.155l-0.288-0.141l-0.299,0.101L68.053,26.3l-0.65,0.659L67.1,27.14l-0.332,0.06l-0.324-0.106  l-0.172-0.09l-0.076-0.09l0.02-0.135l0.016-0.056l0.016-0.094l0.051-0.189v-0.088l-0.051-0.096l0.047-0.108l-0.014-0.094  l-0.057-0.072L66.146,26l-0.271-0.094l-0.373-0.076l-0.289-0.146l-0.013-0.301l-0.039-0.193l0.029-0.272l0.006-0.242l-0.12-0.104  l-0.193,0.029l-0.356,0.13l-0.233,0.029l-1.019-0.13l-0.19,0.054l-0.121,0.134l-0.092,0.166l-0.11,0.151l-0.041,0.083l-0.185,0.034  l-0.382,0.002l-0.112-0.068l-0.254-0.296l-0.099-0.067l-0.051-0.05l-0.123-0.218l-0.084-0.051l-0.25-0.052l-0.092-0.003  l-0.172,0.034l-0.507,0.209l-0.093-0.049l-0.955-0.207l-0.152-0.056l-0.57-0.374l-0.172-0.04l-0.123,0.029l-0.119,0.05l-0.162,0.027  l-0.152-0.02l-0.287-0.09l-0.157-0.02l-0.354,0.015l-0.17-0.032l-0.131-0.107l-0.03-0.148l-0.021-0.496l0.027-0.106l0.031-0.074  l-0.133-0.161l-0.232-0.209l-0.07-0.144l-0.049-0.168l-0.074-0.137l-0.152-0.058L55.96,22.1l-0.075-0.016l-0.064-0.031l-0.065-0.063  l-0.032-0.067L55.7,21.858l-0.036-0.056l-0.141-0.099L55.409,21.7l-0.077,0.103l-0.045,0.457l-0.061,0.14l-0.115,0.054l-0.18-0.018  l-0.156-0.063l-0.291-0.161l-0.366-0.052l-0.068,0.02l-0.067,0.043l-0.088,0.101l-0.053,0.043l-0.139,0.045l-0.46-0.045  l-0.142-0.045l-0.098-0.104l-0.148-0.226l-1.285-1.233l-0.073-0.05l-0.168-0.031l-0.07-0.042l-0.116-0.035l-0.343,0.05l-0.12,0.013  c-0.01-5.97-0.018-11.94-0.023-17.91L50.57,2.751c-7.679-0.004-15.357-0.002-23.036,0.003l0.005,0.17  c-0.06,13.684-0.121,27.368-0.184,41.051C18.237,43.979,9.119,43.983,0,43.988l0.005,0.15l0.161,0.323l0.04,0.189l0.021,0.204  l0.056,0.157l0.188,0.273L0.413,45.35l0.054,0.104l0.071,0.078l0.086,0.049l0.106,0.018H0.729l0.101,0.067l0.453,0.471l0.148,0.034  l0.337-0.031l0.282,0.112l0.254,0.253L2.51,46.82l0.145,0.298l0.198,0.608l0.089,0.155l0.319,0.379l0.074,0.138l0.033,0.088  l0.009,0.053l0.017,0.041l0.047,0.061l0.263,0.15L3.782,48.9l0.177,0.076l0.318,0.092l0.258,0.16l0.145,0.056l0.191,0.022  l0.125,0.047l0.332,0.229l0.096,0.085l0.052,0.079l0.054,0.149l0.049,0.08l0.148,0.084l0.088,0.064v0.033l0.128,0.045l0.139,0.109  l0.586,0.687l0.053,0.16l0.074,0.114l0.578,0.373l0.13,0.051l0.054,0.035L7.74,51.95l0.155,0.116l0.134,0.074l0.113,0.092  l0.094,0.172l0.099,0.313l0.072,0.125L8.6,52.938l0.258,0.313l0.617,0.478l0.3,0.377l0.094,0.08l0.224,0.061l0.437,0.215  l0.047,0.043l0.038,0.053l0.049,0.049l0.08,0.037l0.038-0.002l0.032-0.021l0.053-0.067l0.027-0.01l0.085,0.03l0.047,0.009  l0.054,0.03l0.074,0.127l0.076,0.027l0.079,0.008l0.058,0.023l0.034,0.057l0.013,0.095l0.023-0.015l0.036,0.021l0.097,0.111  L11.62,55h0.002l0.354,0.425l0.143,0.062l0.143,0.031l0.163,0.08l0.15,0.114l0.096,0.136l0.021,0.09l0.011,0.101l0.018,0.094  l0.049,0.077l0.076,0.023l0.242,0.033l0.05,0.031l0.047,0.098l0.228,0.266l0.088,0.152l0.02,0.09l0.015,0.184l0.018,0.089  l0.128,0.074l0.029,0.045l-0.004,0.054l-0.043,0.101l-0.011,0.06l0.018,0.096l0.074,0.117l0.016,0.088l-0.009,0.129l-0.011,0.059  l0.014,0.047l0.063,0.098l0.056,0.063l0.101,0.059l0.045,0.062l0.019,0.073l0.007,0.1l0.017,0.089l0.04,0.035l0.144,0.093  l0.11,0.214l0.096,0.239l0.094,0.173l0.054,0.042l0.133,0.066l0.071,0.072l0.148,0.311l0.108,0.136l0.023,0.198l-0.015,0.316  l-0.032,0.201l-0.104,0.313l-0.024,0.175l0.018,0.207l0.143,0.48l0.002,0.076l-0.017,0.137l0.015,0.087l0.031,0.047l0.099,0.121  l0.021,0.04l0.033,0.09l0.142,0.177l0.105,0.404l0.031,0.073l0.141,0.16l0.133,0.105l0.102,0.132l0.068,0.366l0.134,0.254  l0.05,0.125l0.014,0.122l0.002,0.089l0.032,0.087l0.107,0.117l0.359,0.253l0.108,0.104l0.025,0.055l0.025,0.081l0.034,0.073  l0.049,0.033l0.054,0.023l0.621,0.393l0.08,0.119l0.137-0.072l0.211-0.004l0.195,0.055l0.123,0.156l0.18,0.135l0.065,0.027  l0.049,0.045l0.135,0.312l0.249,0.278l0.168,0.142l0.26,0.13l0.367,0.405l0.29,0.161l0.691,0.236l0.487,0.103l0.533,0.032  l0.08,0.024l0.072,0.063l0.036,0.086l-0.063,0.193l0.054,0.047l0.089,0.024l0.072,0.034l0.357,0.305l0.224,0.123l0.669,0.164  l0.206-0.013l0.06,0.013l0.065,0.051l0.025,0.057l0.021,0.063l0.043,0.072l0.39,0.386l0.325,0.183l0.092,0.027l0.069,0.047  l0.213,0.207l0.111,0.043l0.087-0.054l0.067-0.083h0.001l0.069-0.018l0.092,0.152l0.043-0.027l0.112-0.037l-0.047,0.185l0.112,0.064  l0.455-0.009l0.415,0.115l0.298,0.043l0.191-0.098l0.103-0.232l0.034-0.299v-0.001l0.072-0.021l0.029,0.021l0.045-0.153l0.036-0.084  l0.063-0.054l0.303-0.161l0.063-0.052l0.065-0.092l0.208-0.437c0.048-0.045,0.096-0.091,0.143-0.137l0.17,0.094l0.04-0.072  l0.345-0.26l0.206-0.039l0.083-0.037h0.002l-0.07-0.099l-0.184-0.12l-0.058-0.084l0.003-0.104l0.104-0.338l0.002-0.16l0.017-0.092  l0.047-0.062l0.09-0.075l0.04-0.013l0.045,0.002l0.056-0.008l0.067-0.039h0.001l-0.003-0.037l-0.058-0.124l0.009-0.051l0.07-0.115  l0.002-0.104l-0.029-0.098l-0.018-0.1l0.016-0.117l0.038-0.083l0.05-0.079l0.242-0.641l0.068-0.055l0.043-0.068l-0.038-0.117  l0.07-0.036h0.001l0.019-0.03l-0.043-0.11l0.092-0.045l0.047-0.054l0.074-0.146v-0.021l0.122-0.234v-0.002l0.033-0.01l0.034-0.121  l0.22-0.393l0.023-0.097l0.009-0.075l0.02-0.064l0.058-0.06l0.056-0.008l0.284,0.008l0.133-0.032l0.272-0.151l0.141-0.054  l0.031,0.014l0.034,0.09l0.04,0.021l0.048-0.01l0.025-0.02l0.012-0.021l0.002-0.001l0.078-0.063v-0.002l0.061-0.105v-0.002  l0.06-0.02l0.831,0.063l0.016-0.03l0.183-0.268l0.027-0.089l0.014-0.229l0.029-0.086l0.058-0.058l0.092-0.021l0.086-0.035v-0.002  l0.072-0.157l0.07-0.044l0.143,0.039l0.102,0.099l0.097,0.076l0.135-0.035l0.038,0.159l0.103,0.053l0.274,0.027l0.354,0.188  l0.088,0.077l0.276,0.119l0.72-0.077l0.203,0.051l0.121-0.113l0.115,0.035l0.108,0.092l0.1,0.052l0.072-0.004l0.07-0.017  l0.065-0.029l0.052-0.047l0.062-0.031l0.076,0.014l0.152,0.049h0.254l0.086-0.059h0.051l0.023,0.092l0.065,0.049l1.235,0.178  l0.393-0.054l0.118-0.043l0.083-0.089l0.032-0.166l0.025-0.038l0.056,0.019l0.054,0.061l0.025,0.085l-0.015,0.043l-0.07,0.15  l-0.024,0.071l0.161,0.043l0.121-0.067l0.119-0.103l0.146-0.053l0.064,0.023l0.051,0.111l0.074,0.045l0.083,0.006l0.083-0.01  l0.077-0.025l0.067-0.036l-0.031,0.11l0.021,0.11l0.052,0.106l0.125,0.193l0.052,0.156l0.092,0.207l0.05,0.082l0.067,0.063  l0.098,0.052l0.2-0.002l0.067,0.043l-0.013,0.138l-0.062,0.186l-0.011,0.129l0.085,0.033l0.134-0.119l0.188-0.108l0.189-0.021  l0.113,0.107l0.009,0.227l-0.067,0.26l0.029,0.119l0.075,0.078l0.084,0.008l0.079,0.023l0.066,0.051l0.145,0.183l0.22,0.118  l0.507,0.158l0.229,0.08l0.063,0.149l0.027,0.249l0.029,0.119l0.045,0.091L43,67.045l0.074,0.07l0.083,0.055l0.553,0.252  l0.179,0.161l0.148,0.192l0.06,0.051l0.365,0.172l0.151,0.113l0.098,0.127l0.16,0.297l-0.061,0.188l0.059,0.116l0.401,0.332  l0.021,0.046l0.036,0.057l0.086,0.024l0.096,0.013l0.07,0.028l0.062,0.117l0.065,0.5l0.148,0.343l0.029,0.182l-0.068,0.187  l0.056,0.052l0.031,0.072l0.014,0.092l0.004,0.112l0.042,0.06l0.09,0.066l0.092,0.094l0.04,0.139l0.023,0.031l0.112,0.057  l0.042,0.031l0.023,0.065l-0.049,0.106l0.025,0.062l0.051,0.026l0.112,0.004l0.048,0.029l0.033,0.047l0.038,0.088l0.033,0.043  l0.045,0.088l0.191,0.832l0.096,0.191l0.277,0.365l-0.009,0.15l0.085,0.063l0.179,0.085l0.076,0.062l0.032,0.082l-0.011,0.207  l0.007,0.096l0.104,0.175l0.153,0.106l0.313,0.125h-0.002l-0.218,0.117l-0.04,0.064l0.009,0.096l0.057,0.066l0.062,0.053l0.03,0.049  l0.034,0.315l0.068,0.302l0.219,0.287l0.117,0.193l0.004,0.139l-0.049,0.158l0.072,0.164l0.13,0.145l0.13,0.094l0.213,0.039  l0.053,0.021l0.021,0.071l0.014,0.121l0.027,0.113l0.063,0.051l0.124,0.023l0.746,0.379l0.141,0.141l0.058,0.188l0.005,0.116  l0.024,0.063l0.103,0.116l0.106,0.093l0.056,0.018l-0.004,0.045l-0.021,0.059l-0.004,0.057l0.051,0.145l0.052,0.112l0.071,0.106  l0.111,0.133l0.113,0.043l0.16,0.035l0.094,0.063l-0.086,0.126l0.073,0.127l0.118,0.154l0.135,0.133l0.117,0.054l0.018,0.04  l-0.027,0.088l-0.065,0.133l0.024,0.098l0.061,0.047l0.07,0.042l0.058,0.075l0.013,0.08l-0.021,0.188l0.01,0.083l0.039,0.009  l0.102,0.086l0.092,0.098v0.047l0.188,0.035l0.098,0.091l0.065,0.116l0.095,0.106l0.069,0.04l0.135,0.044l0.056,0.033l0.029,0.072  l0.02,0.1l0.025,0.087l0.057,0.038l0.133,0.207l0.039,0.034l0.273-0.001l0.045,0.045l0.076,0.146l0.027,0.035l0.087-0.002  l0.16-0.092l0.094-0.023l0.074,0.039l0.092,0.164l0.045,0.035l0.132,0.045l0.152,0.072l0.15,0.141l0.063,0.125v0.346l-0.023,0.195  l0.006,0.09l0.043,0.035l0.117,0.01l0.061,0.031l0.029,0.071l0.027,0.12l-0.006,0.04l0.006,0.315l-0.021,0.102l-0.067,0.197  l-0.025,0.169l-0.037,0.11l-0.01,0.092l-0.025,0.08l-0.125,0.137l-0.008,0.008l-0.049,0.09l0.215,0.085l0.05,0.03l0.014,0.025  l0.015,0.067l0.02,0.029l0.086,0.043l0.023,0.015l0.107,0.131l0.083,0.139l0.054,0.152l0.017,0.166l-0.031,0.161l-0.11,0.368  l-0.016,0.171l0.018,0.039l0.033,0.048l0.034,0.063l0.015,0.078l-0.021,0.072L54.762,87l0.137,0.189l0.029,0.049l0.115,0.094  l0.066,0.025l0.064,0.004l0.063,0.016l0.051,0.066l0.02,0.095l-0.002,0.175l0.031,0.092l0.072,0.072l0.303,0.246l0.083,0.111  l0.243,0.3l0.107,0.141l0.129,0.132l0.111,0.146l0.106,0.368l0.098,0.406l0.308,0.896c0.025,0.187,0.052,0.372,0.074,0.56  l0.049,0.198l0.183,0.076l0.196,0.049l0.092,0.113l0.087,0.237l0.017,0.108l-0.033,0.099l-0.065,0.105l-0.05,0.107l0.019,0.094  l0.161,0.133l0.145,0.023l0.144-0.02l0.149,0.006l0.037,0.024l0.049,0.073l0.047,0.018l0.05-0.011l0.13-0.054l0.184,0.006  l0.065,0.048l0.067,0.131l0.117-0.117l0.28,0.207l0.175-0.037l0.072,0.05l0.072,0.019l0.064-0.015L59.52,92.8l0.084,0.048  l0.062-0.019l0.052-0.032l0.069,0.003l0.041,0.031l0.112,0.142l0.263,0.166l0.082,0.101l-0.031,0.144l0.104-0.01l0.099,0.008  l0.091,0.036l0.075,0.075l-0.097,0.113l0.016,0.041l0.066,0.012l0.062,0.017l0.157,0.151l0.083,0.053l0.099,0.021l0.45-0.174  l0.218,0.116l0.238,0.064l0.217,0.088l0.157,0.19v0.002c0.041-0.051,0.082-0.103,0.121-0.154l0.211,0.068l0.239,0.141l0.211,0.06  l-0.06,0.173v0.084l0.087,0.028l0.202,0.004l0.048,0.058l0.176,0.27L63.596,95l0.592,0.303l0.285,0.086l0.266,0.014l0.357-0.096  l0.15,0.034l0.063,0.204l0.073,0.038l0.162-0.058l0.235-0.123l0.104-0.006l0.439,0.063l0.481-0.059h0.578l0.15,0.041l0.016,0.131  l0.102,0.031l0.664,0.041l0.149,0.033l0.142,0.069l0.144,0.112l0.073,0.111l0.062,0.133l0.08,0.115l0.222,0.098l0.344,0.353  l0.137,0.092l0.12,0.054l0.13,0.022l0.16,0.005l0.053,0.063l0.043,0.132l0.078,0.121l0.162,0.028l0.029-0.031h0.002l0.005-0.051  l0.011-0.037v-0.002l0.063,0.002l0.049,0.043l0.023,0.063l0.031,0.055l0.078,0.022l0.152-0.067l0.004-0.164l-0.055-0.193  l-0.021-0.153l0.031-0.047l0.174-0.124l0.133,0.094l0.178-0.057c0.047-0.044,0.092-0.088,0.139-0.131l0.021-0.137v-0.002  l0.102-0.022l0.365,0.022l0.508-0.041l0.014-0.072c-0.014-0.206-0.027-0.411-0.045-0.617l-0.065-0.229l-0.098-0.018l-0.079,0.051  l-0.032,0.124l-0.015,0.151l-0.028,0.134l-0.058,0.091l-0.067,0.055l-0.188,0.084l-0.041,0.043l-0.012,0.037l-0.023,0.011  l-0.079-0.037L71.576,96l-0.029-0.051l-0.035-0.141l0.006-0.115l0.088-0.201l0.011-0.148l0.108,0.051l0.077-0.02l0.052-0.078  l0.025-0.126l-0.09-0.04l-0.096-0.018l-0.207-0.004l-0.096-0.019l-0.07-0.038l-0.055-0.037L71.225,95l-0.095-0.1l-0.034-0.227  l0.008-0.253l0.039-0.177l-0.105-0.171L71,93.998L70.988,93.9l0.025-0.07l0.051-0.059l0.025-0.064l-0.047-0.094l-0.061-0.049  L70.93,93.57l-0.054,0.027l-0.069,0.016l-0.063-0.081v-0.179l0.043-0.18l0.07-0.081l0.045-0.034l-0.032-0.064l-0.058-0.038  l-0.031,0.046l-0.014,0.03l-0.041,0.04L70.675,93.1l-0.055-0.007l-0.013-0.055l0.067-0.17L70.672,92.8l-0.047-0.018l-0.164-0.017  l-0.053-0.02l-0.045-0.105l-0.008-0.113l-0.039-0.09L70.178,92.4l-0.098-0.006l-0.02-0.031l0.02-0.079l0.023-0.236l0.039-0.129  l0.008-0.073l-0.258-0.091l0.201-0.058l0.068-0.061l0.04-0.111l0.021,0.045l0.051,0.074l0.026,0.059l-0.047-0.276l-0.169-0.563  l-0.079-0.557l-0.183-0.541l-0.053-0.373l-0.035-0.141l-0.063-0.127l-0.094-0.09l-0.123-0.04l-0.107-0.002l-0.082-0.025  l-0.057-0.106l-0.003-0.114l0.019-0.169l0.037-0.161l0.053-0.081l0.08,0.036l0.338,0.315l0.092-0.162l-0.102-0.11l-0.301-0.138  l-0.086-0.102l-0.068-0.121l-0.041-0.15l-0.021-0.365l0.016-0.096l0.08-0.035l0.424-0.029l0.104-0.079l-0.002-0.143l-0.095-0.214  l0.09-0.088l-0.051-0.119l-0.076-0.106l0.012-0.045l0.117-0.013l0.117-0.041l0.098-0.07l0.054-0.104l-0.02-0.108l-0.054-0.134  L70.006,86l0.07-0.049l0.029-0.064l0.014-0.148l-0.003-0.157L70.1,85.486l0.092-0.035l0.052-0.09l0.009-0.117l-0.043-0.11  l-0.503,0.159l-0.147,0.104l-0.144,0.063l-0.188-0.004l-0.377-0.089l-0.166-0.068l-0.115-0.075l-0.123-0.063l-0.19-0.025  L67.88,85.16l-0.172-0.047l-0.104-0.159l0.187,0.006L67.968,85l0.179,0.02l0.184-0.065l0.085-0.108l-0.034-0.092l-0.113-0.031  l-0.149,0.063L68.1,84.754l-0.012-0.023l-0.013-0.062l0.155-0.078l-0.09-0.175l-0.279-0.275h0.109l-0.08-0.177l-0.26-0.26  l-0.029-0.205l0.24,0.161l0.191,0.189l0.607,0.877l0.023,0.08l0.003,0.072l0.028,0.055l0.104,0.021l0.081-0.017l0.041-0.039  l0.008-0.057l-0.025-0.057l0.142-0.205l0.071-0.033l0.048,0.121l0.12-0.105l0.063-0.037l0.082-0.029l-0.057-0.118l0.094-0.056  l0.176-0.176l0.146-0.063l-0.03,0.158l-0.017,0.166l0.028,0.098l0.063,0.03l0.055-0.012l0.012-0.027l0.056,0.041l0.034,0.009  l-0.002,0.019l-0.063,0.074l-0.054,0.028l-0.08,0.013l-0.151-0.011l0.027,0.034l0.016,0.029l0.02,0.025l0.041,0.027L69.65,84.87  l-0.275,0.146l0.145,0.102l0.107-0.032l0.162-0.185l0.493-0.201l0.085-0.063l0.021-0.191l0.313-0.881l0.106-0.127l0.023-0.088  l0.023-0.17l0.133-0.373l0.229-0.436l0.029-0.07l0.019-0.188l0.024-0.096l0.039-0.068l0.089-0.114l0.074-0.135l0.023-0.136  l-0.059-0.112l-0.676-0.287l-0.119-0.115l-0.196-0.243l0.054-0.064l-0.025-0.088l0.063-0.244l-0.037-0.135l-0.059,0.076  l-0.089,0.039l-0.095-0.002l-0.071-0.05l-0.245,0.056l-0.176-0.027L69.65,80.25l-0.123-0.208l0.125-0.049l0.029-0.003l0.063,0.018  l0.022,0.036l0.008,0.038l0.009,0.018l0.046,0.018l0.059,0.029l0.057,0.014l0.044-0.012l0.021-0.078l0.041-0.027l0.211-0.018  l0.428,0.018l0.197-0.052l-0.022,0.056l-0.011,0.034l-0.018,0.032l-0.055,0.047l0.188-0.016l0.309-0.133l0.18-0.021l0.13,0.038  l0.108,0.095l0.098,0.125l0.084,0.146h-0.154v0.063l0.198,0.024l0.169-0.127l0.6-0.859l0.278-0.505l0.009,0.026v0.022l0.012,0.013  l0.037-0.006l0.125-0.254l0.053-0.07l0.076-0.08l0.021-0.041l-0.009-0.054l-0.013-0.119l0.052-0.331l-0.022-0.101l-0.08-0.065  l-0.054,0.024l-0.028,0.017l-0.008,0.008l0.012,0.029l0.025,0.038l-0.119,0.146l-0.373,0.154l-0.078,0.144l-0.015,0.106  l-0.034,0.116l-0.054,0.099l-0.058,0.062l-0.09,0.035l0.004-0.039l0.033-0.083v-0.09l-0.076-0.123l-0.105-0.096L72.07,78.42  l-0.17-0.021l-0.063-0.084l0.144-0.188l0.313-0.319l-0.119-0.037l-0.032-0.084l0.03-0.094l0.063-0.072l0.094-0.017l0.105,0.033  l0.061,0.063l-0.051,0.09l0.207-0.054l0.296-0.122l0.268-0.168l0.121-0.185h0.05l0.049,0.124l-0.043,0.263l0.049,0.088l-0.024,0.044  l-0.022,0.032l-0.025,0.021l-0.03,0.021l0.272,0.09l0.087-0.037l0.104-0.171l0.079-0.177l0.042-0.146L73.9,77.195l-0.1-0.09  l0.18-0.279l0.104-0.129l0.089-0.004l0.013,0.129l-0.078,0.143l-0.043,0.155l0.108,0.159l-0.108,0.141l-0.066,0.139l-0.088,0.314  l0.128-0.061l0.245-0.064l0.119-0.083l0.268-0.366l0.128-0.136l0.272-0.168l0.078-0.112l-0.146-0.322l0.03-0.152l0.074-0.148  l0.047-0.15l-0.108-0.211l-0.226-0.271l-0.146-0.238l0.122-0.111l0.104,0.061l0.156,0.115L75.2,75.52l0.063-0.086l-0.021-0.135  l-0.061-0.098L75,75.046l-0.068,0.03l-0.02-0.055l0.023-0.084L75,74.875l0.063-0.04l0.066,0.063l0.137,0.211l0.033,0.029  l0.085,0.049l0.036,0.033l0.016,0.057l0.006,0.08l0.016,0.072l0.039,0.03l0.138,0.015l0.07,0.047l0.024,0.099l0.016,0.315  l0.043,0.138l0.079,0.071l0.125-0.037l0.135,0.105l0.829-0.464l0.117-0.036l0.26-0.162l0.146-0.035l0.549-0.295l-0.023-0.203  l-0.219-0.195l-0.289-0.104l-0.229,0.063l-0.082,0.07l-0.131,0.071l-0.121,0.002l-0.056-0.146l0.07-0.014l0.397-0.197l-0.063-0.159  l-0.039-0.066l-0.055-0.063l-0.053-0.043l-0.156-0.074l-0.222-0.151l-0.09-0.03l-0.076,0.08l-0.06,0.013l-0.066-0.093V73.92  l0.041-0.208l0.006-0.088l-0.021-0.087l-0.028-0.063l-0.217-0.293l-0.064-0.132l-0.031-0.153l-0.006-0.215l0.088,0.047l0.035,0.029  l0.031,0.047l0.098-0.059l0.104-0.012l0.102,0.027l0.092,0.07l0.063,0.081l0.021,0.053l0.013,0.066l0.031,0.118l0.014,0.067  l-0.004,0.058l0.007,0.055l0.036,0.063l0.036,0.015l0.104-0.005l0.045,0.022l0.082,0.024l0.094-0.024l0.076-0.012l0.031,0.069  l0.065,0.207l0.284-0.198l0.064,0.161l-0.047,0.168l-0.113,0.035l-0.138,0.017l-0.116,0.108l0.231-0.037l0.266-0.106l0.442-0.269  l-0.256-0.075l-0.104-0.07l0.023-0.121l0.024-0.073l-0.018-0.064l-0.027-0.063l-0.004-0.066l0.029-0.036L78,72.965l0.047-0.051  l0.021-0.081l-0.025-0.065l-0.057,0.024l-0.066,0.054l-0.056,0.018l-0.052-0.067l-0.056-0.131l-0.042-0.151l-0.007-0.127h0.047  l0.027,0.07l0.139,0.227l0.029-0.037l0.069-0.041l0.047-0.041l0.107,0.115l0.045,0.131l-0.02,0.125l-0.077,0.102l0.038,0.082  l0.222,0.218l0.044,0.085l0.004,0.059l0.029,0.019l0.131-0.038l0.156-0.098l0.204-0.25l0.159-0.075l-0.047,0.116l0.168-0.106  l0.104-0.046l0.117-0.018l0.152,0.002l0.056,0.033l-0.033,0.084l-0.175,0.285l-0.04,0.098l0.04,0.063l0.154,0.024l0.104-0.019  l0.101-0.033l0.108-0.022l0.128,0.015v0.061H80l-0.119,0.099l-0.349,0.04l-0.134,0.07l-0.032,0.131l0.164,0.004l0.37-0.107  L80.35,73.6l0.154-0.029l0.102-0.039l0.291-0.17l0.151-0.025l0.144,0.077l0.049,0.142l-0.027,0.135l-0.085,0.059l-0.161,0.035  l-1.094,0.559l-0.256,0.188l-0.184,0.225l0.231-0.104l0.491-0.305l0.437-0.146l0.466-0.367l0.781-0.185l0.496-0.248l0.896-0.594  l-0.271,0.025l-0.293,0.111l-1.045,0.6l-0.021,0.021l-0.049,0.015L81.5,73.582l-0.037-0.012l-0.029-0.051l0.008-0.033l0.02-0.034  l0.012-0.146l0.028-0.078l0.011-0.09l-0.048-0.104l1.022-0.377l0.285-0.031l0.352,0.021l0.341-0.023l0.336-0.083l0.327-0.155  l0.872-0.566l0.519-0.369L85.65,71.4l0.17-0.021l0.089-0.06l0.409-0.354l0.41-0.462l0.217-0.117l0.553-0.435l0.059-0.11l0.012-0.119  l-0.004-0.146l-0.062-0.362l-0.007-0.188l0.068-0.193l-0.099-0.225l-0.058-0.072l0.132,0.07l0.121,0.017l0.099,0.047l0.063,0.163  l0.209-0.119l0.178-0.136L88.711,68l0.004-0.023l-0.009-0.072l0.005-0.021l0.023-0.006l0.063,0.011l0.021-0.005l0.156-0.116  l0.071-0.072l0.032-0.108h0.053l0.119,0.097l0.117-0.067l0.087-0.166l0.034-0.188l0.062-0.172l0.142-0.041l0.158,0.041l0.117,0.084  l0.02-0.037l0.023-0.014l0.025-0.006l0.029-0.01l-0.34-0.154l-0.101-0.018l-0.081-0.062l-0.211-0.36l-0.007,0.021v0.026  l-0.013,0.004h-0.016l-0.002,0.021l0.004,0.018l0.032,0.029v0.064l-0.194-0.008l-0.031-0.116l-0.01-0.144l-0.128-0.094v-0.061  l0.11-0.035l0.107-0.057l0.09-0.084l0.056-0.121l-0.563-0.174l-0.246-0.16l0.06-0.232l0.081-0.086l0.113-0.151l0.043-0.146  l-0.252-0.131l-0.041-0.147l0.043-0.159l0.141-0.104l-0.034-0.079l-0.049-0.035l-0.063-0.007l-0.084,0.002l-0.082-0.02l-0.063-0.052  l-0.115-0.139l0.036-0.042l0.456,0.015l0.237,0.146l0.232,0.209l0.229,0.105l0.243-0.164l0.121-0.294l0.082-0.276l0.058-0.082  l0.136-0.075l0.274-0.114l0.175-0.1l0.064-0.016l0.06,0.038l0.028,0.163l0.066,0.037l0.143,0.037l0.033,0.094l0.004,0.135  l0.055,0.157l-0.063,0.188l-0.097,0.418l-0.104,0.313l-0.138,0.285l-0.097,0.133l-0.078,0.037l-0.107,0.016l-0.084,0.029  l-0.016,0.072l0.057,0.075l0.078,0.034l0.094,0.008l0.395-0.059l1.109-0.326l0.14,0.008l0.121,0.054l0.121,0.112l0.147,0.056  l0.115-0.085l0.068-0.063l0.005,0.121l-0.05,0.156l-0.096,0.07l-0.135,0.018l-0.381-0.021l-0.066,0.02l-0.09,0.06L91.572,66.1  l-0.057,0.036l-0.076,0.038l-0.088,0.027l-0.181,0.029l-0.194,0.105l-0.617,0.604l-0.064,0.115l0.032,0.084l0.179,0.033l0.155-0.07  l0.394-0.47l0.276-0.202l2.428-1.1l0.905-0.342l0.643-0.36l0.228-0.101l0.317-0.101l0.17-0.018l0.922,0.018l0.224,0.064l0.087-0.005  l0.121-0.151l-0.121-0.271l-0.415-0.48l-0.179-0.318l0.061-0.316l0.598-0.858l0.072-0.161l0.029-0.16l0.089-0.037l0.198-0.01  l0.148,0.016v-0.002l0.155-0.273l0.448-0.507L98.4,60.85l0.014-0.082l0.1-0.172l0.049-0.199l-0.006-0.142l-0.027-0.125l-0.016-0.162  l-0.019-0.058l-0.072-0.129l-0.021-0.088l0.015-0.101l0.072-0.171l0.022-0.089l-0.037-0.196l-0.109-0.126l-0.115-0.108l-0.055-0.133  l-0.029-0.388l0.025-0.17l0.107-0.194l0.186-0.23l0.058-0.119l0.021-0.162l-0.011-0.07l-0.092-0.262l0.005-0.011l-0.005-0.17  l-0.021-0.042l-0.063-0.039l-0.021-0.045l0.004-0.174l0.065-0.153l0.116-0.11l0.148-0.043l0.016-0.092l0.109-0.438l0.064-0.137  l0.258-0.209l0.074-0.123l0.063-0.422l0.274-0.509l0.043-0.147l0.013-0.078v-0.105l-0.008-0.098l-0.039-0.168l-0.009-0.098  l0.03-0.093l0.066-0.073l0.115-0.104l0.047-0.092l0.012-0.041l-0.059-0.112l-0.056-0.065l-0.121-0.19l-0.065-0.2l0.112-0.092  l0.07-0.012l0.206-0.063l0.062-0.041L100,52.497L99.971,52.434z M77.998,75.553l-0.036-0.01l-0.049,0.021l-0.067,0.014l-0.027,0.038  l0.006,0.183l-0.004,0.068l-0.092,0.158l-0.095,0.045l-0.286-0.026l-0.164,0.022l-0.103,0.056l-0.155,0.162l-0.352,0.161  l-0.059,0.043l-0.074,0.086l-0.32,0.176l-0.072,0.148l-0.063,0.052l-0.291,0.175l-0.09,0.038l-0.125,0.019l-0.244,0.082  l-0.154,0.018l-0.128,0.066l-0.034,0.149l0.025,0.161L75,77.756v0.053l-0.086,0.088l-0.085,0.14l-0.063,0.159l-0.024,0.15h0.058  l0.057-0.146l0.092-0.128l0.21-0.198l0.407-0.304l0.189-0.204l0.717-0.377l0.42-0.361l0.235-0.155l0.25-0.063l0.554-0.272  l0.012-0.037l0.063-0.099l0.022-0.067l0.006-0.072l-0.006-0.227L77.998,75.553z M78.718,75.018l-0.431,0.381v0.063l0.148-0.017  l0.123-0.084l0.192-0.196l0.187-0.054l0.061-0.082l0.16-0.118l0.063-0.035l-0.008-0.021l0.025-0.022l0.029-0.015l0.063-0.008v-0.058  l-0.325,0.095L78.718,75.018z"></path></svg></g></svg>