<svg xmlns="http://www.w3.org/2000/svg" xmlns:xlink="http://www.w3.org/1999/xlink" width="100" height="100" viewBox="0 0 100 100"><rect width="100%" height="100%" fill="#374574"></rect><g transform="translate(50 50) scale(0.69 0.69) rotate(0) translate(-50 -50)" style="fill:#ffffff"><svg fill="#ffffff" xmlns="http://www.w3.org/2000/svg" xmlns:xlink="http://www.w3.org/1999/xlink" version="1.1" x="0px" y="0px" viewBox="0 2 100 96" enable-background="new 0 2 100 96" xml:space="preserve"><path d="M81.759,79.514l0.144,0.176l0.045,0.047l0.047,0.023v-0.043c0.029-0.035,0.059-0.07,0.087-0.105l0.075-0.057l0.132-0.016  l0.087-0.045l-0.031-0.087l-0.094-0.069l-0.087-0.047l-0.24-0.188l-0.092-0.09L81.604,78.9l-0.145,0.123l-0.01,0.146l0.016,0.088  l0.003,0.327l0.085-0.014l0.105-0.1L81.759,79.514z M78.02,78.514l0.037,0.071l0.034,0.101l0.077,0.037l0.169,0.025l0.072-0.085  l0.155-0.28l-0.043-0.15l-0.166-0.064l-0.168,0.031l-0.136-0.01l-0.125,0.016l-0.028,0.132l0.028,0.087l0.028,0.034L78.02,78.514z   M77.559,97.445l-0.056-0.053l-0.069-0.041H77.35l-0.269,0.233l-0.097,0.054l-0.146-0.013l-0.141-0.047l-0.108,0.03l-0.057,0.226  l0.396-0.053l0.196-0.06l0.125-0.084l0.058-0.092l0.039-0.105l0.053,0.08l0.017-0.002v-0.047l0.017-0.031l0.031,0.074l0.03,0.058  l0.051,0.04l0.074,0.025l-0.024-0.117L77.559,97.445z M72.4,97.677l-0.008,0.041l0.133-0.041l0.064-0.053l-0.061,0.013L72.4,97.677z   M82.921,95.521l-0.101-0.008l-0.053,0.055l0.041,0.096l0.041,0.051l0.121,0.081l0.104,0.136l0.027-0.07l-0.068-0.211L82.921,95.521  z M72.52,97.086l-0.166-0.05l-0.146,0.034l-0.035,0.043l0.075-0.008l0.068,0.006l0.091,0.053l0.108,0.061l0.106,0.202l0.013,0.078  l0.037-0.142l-0.023-0.155L72.52,97.086z M80.057,95.771l-0.041-0.02l-0.041,0.003l-0.021-0.019l0.006-0.074h-0.081l-0.091,0.306  l0.135,0.017l0.087,0.033l0.022,0.058l-0.072,0.081v0.105l0.237-0.02l0.141,0.074l0.044,0.145l-0.063,0.193h-0.08l-0.072-0.172  l-0.172-0.115l-0.389-0.105l0.078,0.1l0.078,0.068l0.197,0.129l-0.098,0.121l-0.041,0.022l-0.033,0.05l-0.082,0.061l-0.287,0.138  l-0.131-0.078l-0.153,0.06l-0.253,0.215v0.102l0.938-0.27l0.449-0.188l0.328-0.231v-0.107l-0.449-0.525L80.057,95.771z   M81.668,96.218l0.038,0.048l0.09,0.055l0.054-0.107l-0.091-0.061L81.668,96.218z M80.156,78.254l-0.088-0.104l-0.164-0.016  l-0.033,0.125l0.027,0.084l0.063,0.065l0.081,0.044l0.02,0.128l-0.028,0.222l0.038,0.057l0.121-0.25l0.037-0.111l-0.03-0.094  l-0.065-0.075l-0.027-0.04l0.013-0.014L80.156,78.254z M82.154,95.171l-0.391-0.306l-0.097-0.018l-0.037-0.021l-0.038-0.05  l0.868,1.35l0.022,0.432l0.291-0.223l-0.197-0.568L82.154,95.171z M78.609,97.039l-0.356,0.098l-0.155,0.006l-0.125-0.104h-0.082  l-0.063,0.088L77.8,97.205l0.019,0.074l0.072,0.072v0.09l-0.135,0.147l-0.053,0.05l0.996-0.287l-0.059-0.246L78.609,97.039z   M33.414,22.352l0.072-0.075l-0.031-0.159l-0.021-0.019l-0.166-0.016l-0.175-0.059l-0.325-0.057l-0.193,0.166l-0.244,0.021  l-0.544-0.084l0.138,0.119l0.266,0.105l0.138,0.075l0.087,0.104l0.095,0.141l0.1,0.125l0.116,0.053l0.28,0.104h0.153l0.068-0.15  l0.028-0.141l0.072-0.138L33.414,22.352z M39.941,20.111l-0.309,0.2l-0.525,0.275l-0.104,0.128l0.738-0.159l0.293-0.163l0.132-0.3  l-0.094-0.031L39.941,20.111z M60.421,30.247l-0.063-0.09l-0.098-0.069l-0.097,0.084l-0.006,0.209l0.104,0.063l0.176-0.084  l0.095-0.031l-0.044-0.022L60.421,30.247z M38.223,21.292l-0.174,0.06l-0.066,0.028l-0.043,0.068l-0.057,0.069l-0.106,0.032  l-0.134,0.021l-0.038,0.053l-0.003,0.069l-0.044,0.06l-2.803,1.35l-0.581,0.144l-0.294,0.022l-0.359-0.219l-0.212-0.05l0.344,0.232  l0.29,0.09l0.766-0.003l0.284-0.087l0.801-0.459l0.274-0.234l1.31-0.569l0.78-0.606l0.3-0.122l-0.003-0.063l0.106-0.1l0.075-0.034  V20.93l-0.165,0.087L38.223,21.292z M73.078,70.066l-0.252,0.025l-0.436-0.097l-0.26-0.109l-0.199-0.159l-0.156-0.226l-0.112-0.308  l-0.037-0.161l-0.048-0.142l-0.071-0.115l-0.112-0.088l0.057,0.451l0.122,0.455l0.097,0.223l0.119,0.158l0.146,0.119l0.793,0.467  l0.201,0.043l0.228-0.074l0.335-0.278l0.246-0.058l-0.547-0.299L73.078,70.066z M12.742,11.065l-0.456,0.119l-0.088-0.104  l-0.31,0.131l-1.415,0.191l-0.578-0.021l-0.2,0.028L9.333,11.55L9.214,11.6L8.89,11.703l-0.935-0.009l-0.769,0.272l-1.528,0.256  L4.59,12.247l-0.237,0.087l0.725,0.094l8.939-1.141l0.147,0.065l0.144,0.025l0.134-0.025l0.109-0.065l-1.256-0.162L12.742,11.065z   M72.453,66.843l-0.256-0.266l-0.266-0.101h-0.179l0.168,0.432l0.25,0.466l0.177,0.446l-0.058,0.369l0.172,0.281l0.2,0.719  l0.175,0.297l0.175,0.064l0.014-0.256l-0.098-0.753l-0.101-0.213l-0.206-0.312l-0.153-0.33l0.125-0.521L72.453,66.843z   M70.872,66.928l-0.019-0.351l-0.084-0.075l-0.041-0.021l-0.063-0.002l0.162,0.689l0.116,0.294l0.179,0.334l-0.052-0.327  L70.872,66.928z M65.795,56.504l-0.318-0.591l-0.131-0.106l-0.22-0.104l0.058,0.184l0.158,0.255l0.094,0.111l0.109,0.229  l0.561,0.658l0.23,0.18l-0.054-0.226L65.795,56.504z M70.693,65.641l-0.064-0.315l-0.145-0.337l-0.06-0.104l-0.041,0.011  l-0.077,0.094l0.125,0.263l0.043,0.72l0.109,0.309l0.094-0.325L70.693,65.641z M65.992,53.904l-0.035,0.047l-0.064,0.125  l0.243-0.104l-0.094-0.054L65.992,53.904z M85.725,86.291l-0.076,0.078l0.18,0.182l0.107,0.084l0.127,0.078l0.033-0.138l0.034-0.065  l-0.009-0.063l-0.035-0.112l-0.109-0.017l-0.148,0.035l-0.055-0.006l0.028-0.033L85.725,86.291z M65.161,36.697l0.06-0.003  l0.02-0.009l0.068-0.109l0.012-0.179l-0.088-0.041l-0.064,0.016l-0.07-0.025l-0.078,0.038l-0.004,0.05l0.049,0.028l-0.033,0.016  l-0.051-0.003l-0.049,0.003l-0.005,0.05l0.185,0.068v0.06L65.161,36.697z M86.377,87.234l0.105,0.041l0.094-0.063l0.041-0.097  l0.115-0.17l-0.037-0.155l-0.063-0.028l-0.161-0.033l-0.173,0.023l-0.071,0.122l0.047,0.188L86.377,87.234z M66.154,53.982  l0.025-0.028l-0.045,0.019L66.154,53.982z M99.973,66.273l-0.078-0.455l-0.176-0.231v-0.108l0.203-0.217v-0.394l-0.344-1.403  l-0.084-0.152l-0.125-0.094l-0.291-0.088l-0.168-0.078v-0.091l0.156-0.075l0.154-0.018l0.135-0.049l0.095-0.158l-0.019-0.176  l-0.25-0.536l-0.271-0.794l-0.319-0.646l-0.04-0.213l-0.085-0.236l-0.368-0.182l-0.084-0.193l-0.5-0.558l-0.104,0.021l-0.297,0.09  L97,59.193l-0.206-0.129l-0.093-0.026l-0.335-0.392l-0.078-0.121l0.175-0.012l0.109,0.055l0.08,0.084l0.092,0.072l0.293,0.153  l0.529,0.134l0.148,0.135l0.116,0.291l-0.011-0.229l-1.942-4.694l-0.469-2.24l-4.22-9.354l-0.1-0.353l-0.388-0.791l-0.243-0.853  l-0.122-0.303l-0.31-1.444l-0.051-0.609l-0.054-0.29l-0.405-0.794l0.098-0.093v-0.109l-0.146-0.363l-0.213-1.362l0.256,0.113  l0.441,0.409l0.564,0.203l0.041,0.266l-0.104,0.303l-0.112,0.229l-0.097-0.094l-0.097,0.212l-0.051,0.291v0.294l0.057,0.222  l0.185,0.216l0.238,0.109l0.84,0.144l0.119-0.003l0.155-0.049l0.01-0.054l-0.02-0.215l0.01-0.053l0.084-0.003l0.078,0.041  l0.063,0.053l0.044,0.019l0.26-0.022l0.18,0.063l0.119,0.147l0.082,0.228l0.092,0.591l-0.008,0.59l-0.396,1.884l-0.025,2.565  l0.123,0.622l0.396,1.181l0.774,1.416l0.121,0.519l0.397,0.459l0.053,0.103l0.044,0.139l0.314,0.615l-0.012-0.638l-1.06-1.622  l-0.274-0.635l-0.045-0.237l-0.189-0.425l-0.278-1.512l-0.063-0.813l0.035-0.319l-0.098-0.103l0.091-0.191l0.009-1.456l0.041-0.082  l0.109-0.05l0.098-0.112l0.074-0.125l0.028-0.081l0.118-0.025l0.238-0.269l0.158-0.315l-0.193-0.296l-0.321-0.972l-0.784-1.387  l-0.697-0.99l-0.828-1.535l-1.772-2.825l-0.069-0.287l-0.119-0.266l-0.23-0.172l-0.168-0.172l0.078-0.266l-1.217-2.271l-0.858-2.378  l-0.79-1.769l-0.585-1.087l-0.084-0.275l-0.06-0.306l-0.02-0.3l-0.061-0.285l-0.399-0.709l-0.185-0.906l-0.131-0.131l-0.084-0.163  l-0.076-0.747l-0.064-0.215l0.102-0.112l-0.136-0.059l-0.084-0.084l-0.024-0.116l0.056-0.144l-0.075-0.021l-0.118-0.066  l-0.077-0.016l0.08-0.484l-0.447-1.747l-0.084-1.147l-0.057-0.29L82.6,14.784l-0.115-0.275l-0.426-1.663l-0.016-0.625l0.088-0.674  L82.09,11.4l-0.094-0.1l-0.09-0.082l-0.045-0.087l0.048-0.487l-0.048-0.196l-0.065-0.141l-0.063-0.054l-0.063-0.034l-0.078-0.081  l-0.063-0.122l-0.088-0.231l-0.078-0.118l-0.358-0.3l-0.01-0.06L80.77,9.22l-0.101-0.212l-0.015-0.275l0.027-0.266l-0.011-0.344  l0.028-0.125l0.119-0.05l0.121,0.047l0.101,0.119l0.067,0.153l0.021,0.153l0.008,0.35l0.037,0.278l0.105,0.216l0.209,0.156  l-0.047-0.44l0.047-1.288l0.098-0.413l0.025-0.256l-0.072-0.115l-0.047-0.035L81.486,6.8l-0.024-0.069l-0.097-0.034l-0.106,0.016  l-0.181,0.072L80.996,6.8l-0.311-0.125L80.674,6.56l-0.096-0.025L80.34,6.466l-0.425,0.131L79.79,6.6l-0.547-0.122l-0.132-0.059  l-0.178-0.116L78.84,6.3l-0.137,0.025L78.563,6.31l-0.638-0.194l-0.192-0.084L77.6,5.95l-0.084-0.078l-0.131-0.093l-0.186-0.05  L77.081,5.72l-0.118,0.016l-1.199-0.494l-0.18-0.1L75.48,5.06l-0.193-0.125L75.172,4.91l-0.1-0.007L74.986,4.91l-0.18-0.013  l-0.104,0.006L74.59,4.938l-0.064,0.057L74.49,5.057l-0.021,0.097v0.031l-0.013,0.104L74.438,5.36l-0.039,0.069l-0.058,0.047  L74.223,5.5l-0.109-0.015l-0.135-0.044L73.91,5.46l-0.041,0.056l-0.021,0.159L73.822,5.76l-0.037,0.075l-0.156,0.156l-0.038,0.057  l-0.024,0.065l-0.02,0.072l-0.012,0.147l0.043,0.375L73.572,6.8l-0.016,0.094l-0.092,0.35l-0.013,0.082l0.013,0.178l0.028,0.122  l0.044,0.141l0.059,0.137L73.85,8.26l0.061,0.118l0.021,0.072l0.016,0.153l-0.008,0.172l-0.178,1.012l-0.266,0.947l-0.034,0.2  l-0.007,0.094l0.025,0.438l-0.004,0.097l-0.027,0.119l-0.051,0.056l-0.067,0.037l-0.363,0.101H72.91l-0.066-0.006L72.6,11.79  l-0.09-0.016l-0.605,0.072l-0.129-0.013l-0.094-0.031l-0.064-0.044l-0.053-0.057l-0.076-0.131l-0.196-0.563l-0.026-0.134  l-0.004-0.079l0.01-0.087l0.033-0.178l0.063-0.222l0.016-0.082l0.007-0.082l-0.01-0.065l-0.02-0.072l-0.063-0.131l-0.056-0.097  l-0.311-0.406L70.857,9.25l-0.017-0.063l0.003-0.063l0.021-0.056l0.057-0.097l0.037-0.1V8.828l-0.027-0.025  C59.4,8.016,47.87,7.224,36.34,6.432L36.224,6.45l-0.587-0.622L35.44,4.822l-0.016-0.644l-0.101-0.359L35.146,3.46l-0.112-0.116  l-0.106-0.459L34.852,2.72l-0.078-0.082l-0.229-0.163l-0.059-0.068l-0.013-0.194l0.028-0.049c-11.355,0-22.709,0.002-34.064,0.006  L0.35,2.382l0.025,0.715L0.354,3.173L0.084,3.76L0.031,3.92L0.013,4.01L0,4.104l0.019,0.119l0.057,0.128l0.13,0.206l0.151,0.188  L0.99,5.373l0.075,0.113l0.271,0.506L1.521,6.25l0.19,0.147l1.057,0.65l0.106,0.097l0.043,0.053l0.02,0.153L2.925,7.575L2.84,8.103  L2.73,8.506L2.509,8.91L2.455,9.041L2.443,9.106L2.47,9.353l0.248,0.725l0.009,0.016l0.225,0.128l0.091,0.075l0.115,0.047  l0.264-0.028l0.111,0.028l0.113,0.146l0.069,0.21l-0.01,0.185l-0.121,0.082l-0.315,0.075l-0.247,0.184l-0.388,0.469v0.103  l0.163,0.113l0.006,0.153l-0.097,0.153l-0.153,0.119l-0.156,0.041l-0.328-0.009l-0.16,0.062l0.232,0.082l0.225,0.115l-0.487,0.069  l-0.15,0.044l-0.118,0.084l-0.078,0.088L1.44,12.987L1.287,13.05v0.112l0.141-0.068l0.291-0.078l0.105,0.034l0.229-0.132  l1.871-0.393l0.294-0.134l-0.047-0.275l0.135-0.044l0.331-0.053l0.115-0.063l0.047-0.146l-0.037-0.375l0.031-0.147l0.247-0.15  l0.297-0.025l0.253-0.094l0.109-0.353l0.057,0.043l0.016,0.013l0.027,0.038H5.88l0.31-0.584l0.05-0.192L6.184,9.716L5.937,9.332  L5.88,9.147L5.83,8.659l0.047-0.162l0.191-0.031L6.221,8.56l0.068,0.153l0.095,0.134l0.225,0.034L6.583,8.953L6.549,9.128  L6.524,9.203l0.287,0.038l0.112,0.215l0.044,0.271l0.087,0.2l-0.074,0.21l-0.021,0.25l0.071,0.175l0.206-0.009l0.128-0.168  l0.095-0.52l0.165-0.356l0.284-0.825l0.068-0.109l0.013-0.153L7.864,8.153l0.278,0.166l0.144,0.312l0.138,0.203l0.25-0.163  l0.072,0.094L8.762,8.81l0.012,0.071l-0.45,0.203L8.133,9.247L8.055,9.466l0.021,0.147l0.063,0.072L8.24,9.709l0.127,0.003  L8.43,9.778l0.176,0.293l0.118,0.066l0.222,0.024L9.24,10.24l0.272,0.128l0.158,0.185l-0.015,0.162l-0.194-0.06l-0.243-0.137  l-0.175-0.071l-0.856,0.702L7.95,11.193l-0.719,0.01l-0.794,0.215l-0.494,0.231l-0.105,0.025L5.753,11.74L5.7,11.908l0.659-0.081  l1.31-0.362l2.049-0.281l0.738-0.006l0.371-0.063l0.291-0.149l0.278,0.118l1.071-0.118l1.025,0.063l0.152-0.11l-0.006-0.231  l0.016-0.069l0.31,0.047l0.163-0.05l0.162-0.222l0.119-0.05l0.171-0.016l0.169-0.053l0.156-0.078l0.138-0.106l0.028-0.113  L15.001,9.6l-0.009-0.181l0.111,0.2l0.132,0.141l0.125,0.021l0.091-0.162l0.094-0.082l0.128-0.028l0.315,0.003l-0.297,0.413  l-0.059,0.225l0.178,0.194l0.234,0.028l0.181-0.109l0.163-0.147l0.19-0.072l0.253-0.035l0.568-0.15l0.256-0.034l0.563,0.1  l0.264-0.021l0.212-0.191l0.159,0.406l0.172,0.141l0.231-0.047l0.344-0.168l-0.009,0.247l-0.095,0.078l-0.068,0.069l0.075,0.229  l0.399,0.437l0.013,0.082l0.104,0.112l-0.016,0.209l-0.128,0.116l-0.235-0.185l-0.131-0.072l-0.628-0.181L18.522,10.9l-0.188-0.116  l-0.182-0.025l-0.165,0.09l0.031,0.106l0.156,0.088l0.203,0.037l0.063,0.041l-0.037,0.097l-0.088,0.104l-0.078,0.06l-0.597-0.147  l-0.144-0.128L17.4,10.934l-0.056-0.175l-0.01,0.016l-0.019-0.022l-0.059,0.006l-0.072,0.156l-0.072,0.209l-0.1,0.178l-0.163,0.078  l-0.862-0.197l-1.059-0.038l-0.207-0.065l-0.016,0.044l0.004,0.044l-0.016,0.021l0.34,0.225L16.62,11.6l2.262,0.621l1.672,0.513  l1.524,0.803l1.128,0.556l1.585,1.166l0.312,0.078L25,15.193l-0.081-0.097l0.106-0.031l0.165,0.178l0.101-0.219l-0.223-0.2  l-0.24-0.156l-0.104-0.185l0.197-0.287l-0.163-0.163l-0.124-0.171l-0.147-0.135l-0.243-0.056l-0.281,0.047l-0.176,0.075  l-0.149,0.003l-0.203-0.172l-0.097-0.266l0.141-0.202l0.24-0.138l0.216-0.063l0.415-0.047l0.153-0.109l0.15-0.269l0.159,0.315  l0.172,0.244l0.121,0.225l-0.003,0.263l0.156,0.049l0.091-0.122l0.091-0.166l0.153-0.084l0.182-0.069l0.189-0.112l0.154-0.025  l0.062,0.206l0.235-0.159l0.318-0.55l0.128-0.119l0.131,0.075l0.119,0.178l0.162,0.369l-0.312-0.016l-0.514,0.612l-0.312-0.125  l-0.204,0.028l-0.553,0.694L25.1,14.403l0.104,0.15l0.094,0.104l0.106,0.081l0.459,0.225l0.125,0.101l0.1,0.178l0.226-0.063  l0.307,0.119l0.287,0.191l0.178,0.156l0.028-0.078l0.031-0.063l0.025-0.066l0.006-0.103l0.247,0.094l0.2-0.065l0.203-0.104  l0.25-0.019v0.094L27.887,15.5l-0.047,0.23l0.091,0.138l0.237-0.119l0.051,0.225l-0.025,0.516l0.115,0.25l0.197,0.1l0.131-0.128  l0.159-0.341l0.119-0.069l0.013,0.034l-0.007,0.079l0.054,0.068l0.105,0.013l0.216-0.016l0.095,0.05l0.059,0.162l-0.156,0.076  l-0.213,0.059l-0.105,0.116l-0.209,0.122l-0.463-0.194l-0.466-0.338l-0.209-0.318L27.4,15.993l-0.859-0.266l0.009-0.278  l-0.804-0.144l-0.105,0.031l0.115,0.172l0.653,0.653l0.178,0.082l1.679,1.375l-0.263-0.004l-0.307-0.196l-0.269-0.281l-0.153-0.25  h-0.097l0.031,0.141l0.034,0.1l0.047,0.087l0.069,0.094l0.387,0.337l1.507,0.706l0.219,0.178l0.233,0.244l0.191,0.278l0.078,0.278  l0.09,0.219l0.422,0.55l0.125,0.325l-0.059,1.059l0.012,0.178l0.051,0.063l-0.094,0.137l-0.154,0.141l-0.124,0.069l-0.182-0.006  L29.96,22l-0.347-0.522l-0.144-0.319l-0.094-0.34l-0.035-0.347l0.035-1.041l-0.035-0.15l-0.196,0.334l0.037,0.775l0.25,1.271  l0.125,0.215l0.213,0.231l0.262,0.119L30.535,22l0.29,0.009l0.31,0.05l0.284,0.009l1.534-0.5l0.531-0.021l1.047,0.112l0.172-0.103  l0.269-0.403l0.331-0.05l0.231-0.388l0.175-0.097l0.203-0.075l0.169-0.141l0.175-0.081l0.213,0.1l-0.391,0.637l-0.06,0.125  l0.063,0.262l0.146-0.046l0.191-0.169l0.181-0.097l0.253-0.057l0.213-0.125l0.31-0.241l0.203-0.063l0.353-0.046l0.165-0.088  l0.663-0.638l0.396-0.284l0.641-0.181l0.547-0.444l0.719-0.421l0.147,0.153l0.212-0.016l0.25-0.088l0.256-0.049l0.544,0.053  l0.494,0.163v0.094l-0.054,0.053l-0.125,0.162l0.372-0.222l0.172-0.353l-0.091-0.325l-0.409-0.141l-0.813-0.106l-0.125-0.078  l-0.016-0.166l-0.047-0.144l-0.212-0.016l0.165-0.234l0.2,0.063l0.253,0.168l0.447,0.131l0.328,0.141l0.184,0.031l0.032-0.059  l-0.267-0.319l-0.084-0.137l-0.041,0.056l-0.094,0.1l-0.037,0.06l-0.057-0.137l-0.043-0.078l0.037-0.119l0.022-0.034l-0.011-0.034  l-0.049-0.122l0.1-0.112l0.05,0.047l0.034,0.021l0.088,0.044l-0.003-0.241l0.084-0.125l0.473-0.263l0.152-0.028L44,16.371  l0.022-0.072l0.075-0.159l0.109-0.172l0.119-0.106h0.068l0.065,0.031l0.04,0.041l-0.003,0.022h0.269l0.078-0.034l0.075-0.141  l0.085-0.032l0.078,0.019l0.037,0.038l0.022,0.041l0.037,0.015l0.101,0.09l0.059,0.182l0.072,0.134l0.131-0.053l0.271-0.175  l0.947-0.084l0.425-0.178l0.257-0.022l0.965,0.791l1.24,0.787l0.591,0.257l0.315-0.066l0.278,0.319l0.163,0.135l0.228,0.056  l0.163,0.091l0.578,0.435l0.124,0.15l0.111,0.194l0.498,0.519l0.113,0.328l0.055,0.082l0.123,0.072l0.125,0.093l0.056,0.156  l0.069,0.362l0.013,0.153l0.081,0.253l0.193,0.291l0.236,0.266l0.217,0.185l0.445,0.206l0.092,0.069l0.156,0.153l0.115,0.084  l0.266,0.109l0.262,0.041l0.227,0.072l0.152,0.19l0.057,0.315l-0.021,0.347l-0.084,0.303l-0.138,0.166l0.078,0.15l0.06,0.219  l0.017,0.212l-0.063,0.141l0.332,0.25l0.168,0.088l0.139-0.022l0.666,0.793l0.361,0.291l0.328-0.056l0.27,0.231l0.226,0.247  l0.401,0.55l0.229,0.446l0.034,0.025L58.77,27.6l0.03,0.15l0.048,0.097l0.125,0.134l0.205,0.135l0.238,0.1l0.203,0.043l0.188,0.082  l0.118,0.19l0.091,0.209l0.098,0.131l-0.153,0.144l-0.006,0.134l0.104,0.103l0.187,0.038l0.071,0.082l0.011,0.175l0.062,0.178  l0.219,0.078l0.17-0.003l0.091-0.016l0.237-0.091l0.189-0.038l0.372-0.006l0.155-0.05l0.229,0.146l0.298,0.122l0.303,0.013  l0.26-0.188l0.061,0.084l0.146,0.15l0.063,0.081l0.104-0.072l0.266-0.134v0.303l0.027,0.235l0.105,0.175l0.227,0.119l-0.281,0.172  l0.148,0.256l0.492,0.39l-0.014,0.063v0.454l-0.038,0.147l-0.067,0.156l0.074,0.119l0.152,0.069l0.16,0.016l-0.088,0.303  l0.068,0.256l0.553,0.69l0.095,0.078l0.103,0.038l0.25,0.038l0.092,0.037l0.141,0.191l0.034,0.219l-0.097,0.722l0.013,0.159  l0.097,0.444l-0.328-0.409l-0.209-0.125l-0.182,0.231l0.033,0.131l0.26,0.34l0.066,0.194l0.041,0.059l0.094-0.003l0.091,0.022  l0.043,0.127v0.513l0.024,0.15l0.041,0.1l-0.006,0.103l-0.109,0.147l-0.047,0.109l0.006,0.132l0.041,0.131l0.05,0.097l-0.134,0.263  l-0.045,1.284l-0.137,0.443l-0.029,0.179l-0.016,0.803l-0.283,0.5l0.016,0.109v0.094l-0.159,0.178l-0.472,1.253l0.094-0.031  l0.037-0.021l0.05-0.047l0.028,0.194l-0.109,0.209l-0.277,0.418l-0.101,0.418l-0.081,0.197l-0.178,0.197l-0.125-0.084l-0.061,0.2  l-0.016,0.291l0.009,0.2l0.072,0.375l0.074,0.225l0.125,0.212L63.87,45.89l-0.037,0.181l-0.017,0.394l-0.291,1.359l-0.438,1.191  L63.02,48.8l0.031-0.257l0.094-0.253l0.125-0.193l-0.135,0.131l-0.146,0.207l-0.119,0.256l-0.05,0.271l0.027,0.287l0.123,0.425  l0.026,0.197l0.185,0.347l0.805,0.791l0.181,0.487l0.04,0.247l0.107,0.331l0.146,0.259l0.165,0.038l0.014-0.185l-0.091-0.326  l-0.194-0.512l-0.155-0.267l-0.781-0.854l-0.106-0.203l0.047-0.209l0.254,0.25l0.51,0.408l0.234,0.27l0.236,0.361l0.163,0.102  l0.281,0.033l0.021,0.066l-0.013,0.321l0.031,0.127l0.071,0.065l0.088,0.025h0.244l0.215-0.092l0.146-0.215l0.044-0.27l-0.091-0.244  l0.159-0.452l0.019-0.097l0.041-0.078l0.176-0.226l0.057-0.146V49.85l-0.072-0.313l-0.02-0.175l0.423-0.254l0.118-0.092  l-0.565,0.071l-0.506-0.196l-0.487-0.287l-0.51-0.204l0.213-0.25l0.604-0.172l0.166-0.184H65.12l-0.119-0.032l-0.003-0.071  l0.078-0.109l0.006-0.063l0.066-0.166l0.016-0.118l-0.021-0.104L65.027,46.9l-0.031-0.131l0.527,0.515l-0.002-0.153l0.002-0.047  h0.084l0.106,0.159l0.169,0.138l0.362,0.2v0.109l-0.272,0.103v0.109l0.416,0.01l0.344,0.071l0.234,0.194l0.088,0.378l-0.084,0.719  l0.016,0.367l0.166,0.287l0.115,0.031l0.469,0.02l0.063-0.15l-0.025-0.15l-0.08-0.212l0.016-0.543l0.057-0.235l0.115-0.178  l0.271-0.153l0.229,0.025l0.159,0.175l0.122,0.615l0.259,0.619l0.038,0.337l-0.109,0.226l-0.425,0.479l-0.094,0.152l-0.369,0.257  l-0.063,0.101l-0.205,0.415L67.6,51.82l-0.119,0.037l-0.104,0.076l-0.044,0.172l-0.043,0.115l-0.363,0.293l-0.175,0.303  l-0.094,0.308l-0.131,0.269l-0.281,0.19l0.053,0.142l0.038,0.053l-0.155,0.182l0.168-0.072l0.207-0.033l-0.082,0.182l-0.179,0.131  l-0.385,0.105l-0.206,0.109l0.189,0.037l0.16,0.061l0.145,0.09l0.138,0.117l-0.28,0.018l-0.342-0.176l-0.322-0.096l-0.228,0.254  l0.081,0.092l0.091,0.065l0.097,0.013l0.092-0.063h0.084l0.01,0.15l-0.025,0.134l-0.06,0.118L65.438,55.3l-0.146-0.147l-0.348-0.168  l-0.137-0.098l-0.068-0.117l-0.2-0.488h-0.091l0.043,0.234l0.257,0.67l0.149,0.215l0.207,0.091l0.489,0.084l0.511,0.382l0.248,0.131  l0.188,0.193l0.144,0.713l0.274,0.564l0.013,0.368h-0.087l-0.045-0.09l-0.043-0.041l-0.047-0.03l-0.054-0.051v0.318l0.166,0.291  l0.219,0.29l0.152,0.317h0.101V58.73l0.135,0.097l0.091,0.159l0.045,0.212v0.243l-0.069-0.067l-0.05-0.075l-0.063-0.166l0.074,0.332  l0.313,0.612l0.133,0.521l1.191,2.379l0.088,0.291l0.053,0.053l0.064,0.053l0.16,0.098l-0.063-0.229l-0.177-0.344l-0.04-0.231  l0.356,0.388l0.384,1.256l0.395,0.27l0.121,0.007l0.092,0.017l0.189,0.07l0.104,0.063l0.123,0.123l0.09,0.024l0.08-0.016  l0.035-0.034l0.024-0.035l0.041-0.016l0.063,0.035l0.127,0.143l0.037,0.032l0.086-0.06l0.1-0.106l0.075-0.103l0.013-0.052  l0.112,0.157l0.044,0.415l0.121-0.063l0.082-0.192l-0.01-0.216l-0.115-0.649l-0.209-0.545l-0.072-0.108l-0.081-0.095l-0.185-0.455  l-0.139-0.163l-0.1,0.109l-0.145-0.135l-0.381-0.476l-0.154-0.272l-0.041-0.12l0.272,0.135l0.146,0.165l0.261,0.445l0.196,0.052  l0.219-0.113l0.135-0.043l-0.05,0.253l0.239,0.278l0.145,0.128l0.066-0.05l0.074-0.142l0.166-0.02L72.51,62.9l0.057-0.234  l0.304,0.084l0.237-0.049l0.226-0.096l0.534-0.111l0.287-0.271l0.219-0.068l-0.16,0.445l-0.074,0.106l-0.123,0.069l-0.287,0.059  l-0.655,0.395l-0.257,0.199l-0.021,0.188l0.27,0.226l0.178,0.09l0.101,0.135l0.028,0.359l-0.025,0.327l-0.322,1.707l-0.012,0.328  l0.065,0.226l0.231,0.521l0.063,0.263l-0.016,0.344l-0.068,0.213l-0.025,0.182l0.109,0.256l0.209,0.232l0.162-0.004l0.182-0.115  l0.266-0.113v0.207l0.125-0.063l0.311-0.092l0.105-0.054l0.051-0.078l0.4-1.137l0.139-0.234l0.436-0.463l0.253-0.209l0.216-0.091  l0.25-0.034l0.315-0.188l0.196-0.078l-0.057,0.176l-0.072,0.132l-0.1,0.106l-0.131,0.097l-0.138-0.075l-0.146,0.061l-0.118,0.131  l-0.048,0.135L75.6,67.611l-0.15,0.187l0.054,0.369l-0.246,0.403l-0.354,0.34l-0.355,0.244l-0.057,0.068l-0.061,0.053l-0.1,0.021  l-0.094-0.04l-0.092-0.159l-0.053-0.007l-0.081,0.132l-0.034,0.215l0.004,0.22l0.03,0.141l0.081-0.108l0.071,0.074l0.041,0.016  l0.172-0.09l0.72,0.399h0.271l0.06,0.04l0.063,0.068l0.089,0.041l0.06-0.041l0.057-0.129l-0.051-0.364l-0.006-0.216l0.09,0.23  l0.264,0.459l0.097,0.219l0.063,0.289l0.027,0.908h-0.091v-0.1h-0.09l0.05,0.246l0.391,0.716l0.01,0.05v0.098L76.366,73.1  l0.112,1.146l0.236,1.047h0.102l-0.01-0.162l0.006-0.152l0.028-0.147l0.056-0.138l0.227,1.051l0.206,0.372l0.378,0.29l-0.111,0.138  l0.033,0.179l0.121,0.168l0.145,0.112l0.125,0.028l0.301-0.034l0.197,0.006l-0.049,0.169l-0.1,0.197l-0.128,0.162L78.119,77.6  l-0.146-0.078l-0.146-0.149l-0.155-0.097l-0.187,0.074l0.092,0.426l0.05,0.111l0.129,0.153l0.047,0.026l0.095,0.02h0.08l-0.006-0.1  l0.071-0.068l0.031-0.031l0.047-0.105l0.044-0.081l0.091,0.122l0.131,0.074l0.156,0.024l0.162-0.034l0.129-0.085l0.101-0.198  l0.131-0.104l0.071,0.168l0.132,0.119l0.145,0.054l0.109-0.033l0.023,0.094l0.027,0.033l0.004,0.045l-0.057,0.107l0.108-0.043  l0.153-0.128l0.053-0.028l0.116,0.031l0.181,0.139l0.27,0.114l0.152,0.149l0.141,0.06l0.177-0.185l0.138,0.121l0.172,0.242  l0.149,0.125l0.163,0.064l0.387,0.072l0.169,0.068l0.315,0.225l0.313,0.281l0.25,0.385l0.104,0.111l-0.348,0.264l-0.121,0.162  l0.166,0.072l0.057,0.08l0.158,0.391l0.088,0.125l0.113,0.02l0.439,0.028l0.016,0.266l0.051,0.165l0.105,0.116l-0.003,0.198  l0.274,0.504l0.138,0.656l0.051,0.139l0.152,0.063l0.3-0.072l0.128,0.06l0.021,0.101l-0.051,0.115l-0.082,0.096L84.439,83.6  l0.146,0.283l0.429,0.481l0.188,0.559l0.016,0.142l0.069,0.301l0.016,0.152l0.103,0.152l0.606,0.484l0.5,0.1l0.075,0.032  l0.229,0.144l0.463,0.077l0.24,0.129l0.746,0.79l0.092,0.26l-0.133,0.313l-0.228,0.171l-0.288,0.079l-0.284-0.01l-0.233-0.097V88.05  l0.074-0.022l0.122-0.059l0.072-0.025v-0.1l-1.007-0.428l-0.168-0.119l-0.045-0.006l-0.229-0.443l-0.087-0.119l-0.135-0.131  l-0.156-0.104l-0.159-0.035l0.082-0.206l-0.244,0.194l-0.215,0.478L84.95,87.49l-0.019,0.453l0.152,0.439L85.3,88.84l0.618,0.594  l0.207,0.047l0.611-0.146l0.531-0.05l0.428-0.095l0.504-0.008l0.246-0.046l0.304-0.334l0.058-0.016l0.367-0.243l0.189,0.188  l0.396,0.082l-0.048,0.117v0.11l0.116,0.04l0.065,0.013l0.043-0.044l0.047-0.119l0.068,0.081l0.069,0.048l0.065,0.034l0.064,0.043  l0.016-0.065l0.025-0.043l0.027-0.037l0.027-0.061l0.129,0.156l0.213,0.072l0.219,0.009l0.158-0.031l0.264-0.253l0.172-0.07  l0.197,0.117h0.08l0.078-0.117l-0.008-0.092l-0.046-0.094l-0.024-0.139l0.076-0.043l0.479-0.108l-0.024,0.065l-0.013,0.006  l-0.019-0.004l-0.045,0.031l0.209,0.071l0.117-0.212l0.094-0.318l0.131-0.231l0.195-0.063l0.531-0.011l0.17-0.024l0.053,0.094  l0.017,0.044l0.017,0.06l-0.119,0.025L93.586,87.9l-0.037,0.056l-0.047,0.094l0.087,0.048l0.075,0.063l0.057,0.081l0.045,0.098  l0.225-0.142l0.26,0.031l0.199,0.188l0.041,0.318h0.1l-0.043-0.297l-0.16-0.226l-0.236-0.135l-0.291-0.027l0.166-0.188l0.26-0.121  l0.207-0.02l-0.004,0.223l0.182,0.063l0.26,0.378l0.196,0.16l0.006-0.135l-0.169-0.162l-0.158-0.216l0.037-0.285l0.016-0.158  l0.226-0.256l0.044-0.135l0.023-0.125l0.063-0.107l0.595-0.68l0.48-0.42l0.016-0.178l-0.097-0.115l-0.166-0.094l-0.104-0.115  l0.096-0.275l0.107-0.199l-0.052-0.078l-0.09-0.061l-0.063-0.081l-0.041-0.313l0.021-0.266l0.111-0.266l0.221-0.303l0.077-0.248  l0.013-0.713l0.047-0.281l0.385-0.377l0.275-0.618l0.021-0.351l0.047-0.142l0.144-0.13l0.128-0.021h0.129l0.137-0.054l0.193-0.274  l0.01-0.612l0.166-0.382l0.082-0.528l0.475-0.618l0.105-0.006l0.041,0.193l0.01,0.375l-0.092,0.658v0.606h0.092l0.209-4.274  l-0.209-0.328v-0.105l0.219-0.169l0.125-0.435l0.328-2.155l-0.045-0.322l0.078-0.212l0.025-0.247l-0.013-0.503l0.028-0.219  l0.131-0.446l0.109-1.983l0.205-0.029L100,68.148L99.973,66.273z M98.241,80.686l-0.054,0.078l-0.074,0.065l-0.102,0.065v0.09  L98.068,81l0.037,0.021l0.035,0.031l0.051,0.028l-0.142,0.131l-0.019,0.153l0.08,0.115l0.168,0.006l0.061-0.094l0.031-0.806h-0.092  L98.241,80.686z M91.992,44.296l0.033,0.16l0.02,0.184h0.1l-0.039-0.141l-0.22-0.479L91.992,44.296z M92.367,38.865l-0.223-0.446  l-0.185,0.009L91.795,38.5l-0.287,0.215l-0.281,0.168l-0.078,0.104l-0.084,0.247l-0.281-0.006l-0.1,0.406l0.033,0.485l0.119,0.234  l0.115,1.203l0.066,0.278l0.188,0.321l0.463,1.422l0.2,0.406l-0.021-0.219c-0.074-0.177-0.146-0.355-0.217-0.534l-0.027-0.175  l0.014-0.141l0.063-0.269l0.081-1.822l0.112-0.563l0.409-0.931L92.367,38.865z M65.029,35.594L64.938,35.6l-0.033,0.081l0.027,0.087  l0.051,0.05l-0.012,0.056l-0.052,0.078l-0.013,0.037l0.063,0.02h0.137l0.109-0.098l0.003-0.156l-0.084-0.113L65.029,35.594z   M94.65,49.842l0.379,1.094l0.246,0.433l0.031,0.128l0.027,0.178l0.116,0.301l0.065,0.44l0.092,0.212l0.119,0.189l0.119,0.25  l0.537,2.229l0.169,0.47l0.019,0.184l0.041,0.082l0.182,0.148l0.041,0.072l0.05,0.212l0.802,1.763l0.141,0.571l0.265,0.322  l0.19,0.422l-0.057-0.349l-2.246-6.039l-0.043-0.233l-0.022-0.31l-0.06-0.307l-0.188-0.551l-0.531-0.931l-0.269-0.606l-0.1-0.603  l-0.039-0.054l-0.037-0.033l-0.021-0.045v-0.071l-0.099,0.032l-0.036,0.023l-0.048,0.055L94.65,49.842z M80.904,95.809l-0.043-0.047  l-0.098-0.082l-0.103-0.043l-0.081-0.01L80.52,95.59l-0.043,0.012l-0.054,0.15l-0.017,0.191l0.054,0.121l0.031,0.031l0.034,0.03  l0.063,0.017l0.055-0.037l0.064-0.021l0.081,0.024l0.075,0.076l0.057,0.103l0.037-0.06l-0.02-0.266L80.904,95.809z M85.736,95.34  l-0.27,0.125l0.422,0.003l0.146,0.087l0.068,0.217l0.068-0.196l0.081-0.138l0.118-0.098l0.311-0.122l0.041-0.044l0.01-0.104  l-0.285,0.044L85.736,95.34z M83.766,95.982l-0.164,0.197l0.022,0.028l0.125-0.069l0.106-0.104l-0.025-0.061L83.766,95.982z   M97.832,84.075l-0.038,0.071l-0.209,0.838l-0.112,0.23l-0.182,0.146l0.038,0.017l0.034,0.002l0.019,0.021l0.188-0.176l0.179-0.307  l0.124-0.328l0.05-0.318l0.022-0.063l0.023-0.116l-0.021-0.071L97.832,84.075z M81.359,95.85l-0.098-0.014l-0.029,0.051l0.049,0.004  l-0.02,0.024l-0.089,0.071l0.021,0.094l0.149,0.135l0.03,0.063l0.072,0.004l0.027-0.141l-0.041-0.164L81.359,95.85z M81.287,79.27  l0.037-0.1l-0.037-0.094l-0.035-0.044l-0.023-0.125l-0.096-0.222l-0.121-0.099l-0.203,0.038l-0.063,0.031l-0.112,0.025l-0.181,0.09  l-0.041,0.158l0.064,0.086l0.039,0.037v0.063l0.014-0.013l0.025-0.099l0.01-0.053l0.006-0.068l0.065-0.05l0.063,0.047l0.037,0.049  l0.207,0.018l0.074,0.105l0.037,0.074l0.053,0.084l0.099,0.098L81.287,79.27z M86.824,95.268l0.975-0.412l0.193-0.178l0.158-0.027  l0.058-0.028l0.053-0.05V94.48l-0.415,0.097L86.824,95.268z M92.188,92.159l-0.416,0.509l0.136-0.053l0.272-0.281l0.111-0.172  l0.003-0.028l-0.017-0.05L92.188,92.159z M96.602,86.277l-0.354,0.52l-0.176,0.105l-0.422,0.109l-0.082,0.084l0.048,0.166  l0.101,0.078l0.096,0.098l0.035,0.209l-0.127,0.303l-0.484,0.529l-0.254,0.627l-0.594-0.125l-0.078,0.256l0.185-0.074l0.149,0.057  l0.076,0.137l-0.051,0.17l-0.102-0.053H94.52l0.006,0.053l0.063,0.105l-0.117,0.172l-0.142,0.075l-0.281,0.04l0.048,0.188  l-0.089,0.168l-0.327,0.345l-0.185,0.307L93.395,91l-0.213,0.021l-0.07,0.088l-0.156,0.506l-0.148,0.06l-0.201,0.043L92.479,91.8  l0.072,0.159l0.258-0.003l0.295-0.297l0.488-0.638l0.406-0.354l0.104-0.149l0.119-0.336l0.09-0.154l0.145,0.041l0.141-0.082  l1.071-1.057v-0.09l-0.058-0.222l0.164-0.354l0.435-0.619l0.384-0.496l0.063-0.146l0.029-0.111l0.064-0.173l0.088-0.165l0.091-0.095  l0.054-0.031l0.049-0.04l0.041-0.057l0.045-0.078l-0.287-0.118L96.602,86.277z M90.93,93.165l-0.113,0.058L90.732,93.3l-0.031,0.093  l0.064,0.008l0.2-0.133l0.097-0.067l0.153-0.175l-0.021-0.065L90.93,93.165z M89.896,93.762l-0.035-0.025l0.004-0.096l0.023-0.145  l-0.59,0.422l-0.129,0.159l0.48-0.034l0.214-0.061l0.114-0.103l0.065-0.088l0.017-0.044v-0.064h-0.082L89.896,93.762z"></path></svg></g></svg>