<?xml version="1.0" encoding="UTF-8"?>
<svg width="100pt" height="100pt" version="1.1" viewBox="0 0 100 100" xmlns="http://www.w3.org/2000/svg">
 <g>
  <path d="m5 0h90c2.7617 0 5 2.7617 5 5v90c0 2.7617-2.2383 5-5 5h-90c-2.7617 0-5-2.7617-5-5v-90c0-2.7617 2.2383-5 5-5z" fill="#00bac2"/>
  <path d="m63.98 52.105c-2.1523-0.058594-4.2344 0.75391-5.7773 2.2539l-11.059 10.953v-0.003906c-1.0312 1.0234-1.7656 2.3086-2.1172 3.7188h15.047c1.5625 0 3.0508 0.66406 4.0938 1.8281l5.2383-5.1914-0.003906 0.003907c2.2344-2.2539 2.918-5.6172 1.7422-8.5625-1.1797-2.9453-3.9961-4.9102-7.1641-5zm-0.25 1.8477c1.6094-0.019531 3.1602 0.61328 4.2969 1.7539 1.1367 1.1406 1.7656 2.6953 1.7383 4.3047 0.027344 1.5977-0.58594 3.1406-1.707 4.2812s-2.6562 1.7852-4.2539 1.7852c-1.5977 0-3.1289-0.64453-4.25-1.7852-1.1211-1.1406-1.7383-2.6836-1.7109-4.2812-0.023438-1.5859 0.58203-3.1133 1.6836-4.25 1.1055-1.1367 2.6172-1.7891 4.2031-1.8086z"/>
  <path d="m56.305 49.121c0.13281-0.089844 0.26172-0.18359 0.39062-0.27734h0.88281-0.003906c2.1406 0 4.2148 0.73828 5.8711 2.0938-2.2695 0.089844-4.4219 1.0273-6.0352 2.625l-11.059 10.953c-1.2461 1.2305-2.1055 2.8008-2.4805 4.5117h-3.7812c-0.22266 0-0.4375-0.089844-0.59375-0.24609-0.16016-0.16016-0.25-0.37109-0.25-0.59766v-5.7148c-0.015625-0.29688-0.26172-0.53125-0.55859-0.53125-0.30078 0-0.54688 0.23438-0.5625 0.53125v5.7148c0 1.0859 0.87891 1.9688 1.9648 1.9688h19.984c2.3984 0.007812 4.3398 1.957 4.3398 4.3555 0 2.4023-1.9414 4.3477-4.3398 4.3555h-24.199c-1.7148 0.003907-3.3594-0.67969-4.5742-1.8906-1.2109-1.2148-1.8906-2.8594-1.8906-4.5703v-14.281c0-2.4609 0.97656-4.8203 2.7148-6.5625 1.7422-1.7383 4.1016-2.7148 6.5625-2.7148h0.88281-0.003906c0.12891 0.09375 0.25781 0.1875 0.39062 0.27734 0.67578 3.9883 4.1289 6.9062 8.1719 6.9062 4.043 0 7.4961-2.918 8.1719-6.9062z"/>
  <path d="m61.512 55.754c1.5469-0.83203 3.4258-0.76172 4.9023 0.1875 1.4805 0.94922 2.3281 2.625 2.2148 4.375-0.55859-0.18359-1.0195-0.59375-1.2578-1.1328-0.19531-0.4375-0.64453-0.70312-1.1211-0.66406-2.0039 0.16797-3.8984-0.9375-4.7383-2.7656z"/>
  <path d="m60.582 56.406c-1.1289 1.0078-1.7188 2.4844-1.5977 3.9922 0.12109 1.5078 0.94141 2.8711 2.2148 3.6875 1.2734 0.81641 2.8516 0.98828 4.2734 0.46484 1.418-0.51953 2.5117-1.6758 2.957-3.1211-0.92969-0.25391-1.6914-0.91016-2.0859-1.7891-2.4023 0.20312-4.6836-1.0781-5.7617-3.2344z"/>
  <path d="m68.949 69.664c1.9688 1.375 4.6797 0.90234 6.0625-1.0586 1.3828-1.9648 0.91797-4.6758-1.043-6.0664l-1.2344-0.87109v0.003906c-0.33594 1.8203-1.2227 3.4922-2.5391 4.7969l-2.4023 2.3789z"/>
  <path d="m54.949 49.945c-4.2578 2.2812-9.375 2.2812-13.637 0 0.95312 2.9609 3.707 4.9648 6.8203 4.9648 3.1094 0 5.8633-2.0039 6.8164-4.9648z"/>
  <path d="m38.23 47.73c-2.3672-2.2266-3.9141-5.1836-4.3906-8.3984-0.48047-3.2109 0.13672-6.4922 1.7539-9.3086-1.1094-1.1992-1.6797-2.7969-1.5781-4.4258s0.86719-3.1445 2.1172-4.1914c-1.8008-0.53125-3.7422-0.18359-5.2461 0.9375-1.5039 1.125-2.3867 2.8906-2.3867 4.7656v20.59c0 2.7734-1.6094 5.2969-4.1211 6.4688-0.14062 0.0625-0.21484 0.21484-0.17969 0.36719 0.03125 0.14844 0.16406 0.25391 0.32031 0.25391h4.3164c1.375-4.0664 5.1055-6.8711 9.3945-7.0586z"/>
  <path d="m44.039 23.348c-3.1836 0.94141-5.9453 2.9453-7.8203 5.6797-0.83984-1.0312-1.2148-2.3594-1.043-3.6797 0.17188-1.3164 0.87891-2.5078 1.9531-3.2852 1.0742-0.78125 2.4258-1.0859 3.7305-0.84375 1.3086 0.24219 2.457 1.0117 3.1797 2.1289z"/>
  <path d="m55.5 32.379c1.7305 2.0742 3.7266 3.9102 5.9375 5.4609 0.17969-3.6953-1.1875-7.2969-3.7695-9.9453-2.582-2.6484-6.1523-4.1016-9.8477-4.0156-3.6992 0.085938-7.1953 1.7031-9.6523 4.4688s-3.6523 6.4297-3.3047 10.113c3.2031 0.67187 6.5273 0.46094 9.6172-0.60938 3.0898-1.0742 5.832-2.9648 7.9297-5.4727 0.38281-0.46094 0.94922-0.72266 1.5469-0.72266 0.59375 0 1.1602 0.26172 1.543 0.72266z"/>
  <path d="m61.316 39.121c-2.5-1.6836-4.75-3.7109-6.6797-6.0234-0.16797-0.20312-0.41797-0.32031-0.68359-0.32031-0.26172 0-0.51562 0.11719-0.68359 0.32031-2.1836 2.6133-5.0273 4.5977-8.2344 5.7461-3.2031 1.1523-6.6602 1.4258-10.008 0.79688 1.1914 6.4102 6.8438 11.02 13.363 10.891s11.988-4.957 12.926-11.41z"/>
 </g>
</svg>
