<?xml version="1.0" encoding="UTF-8"?>
<svg width="100pt" height="100pt" version="1.1" viewBox="0 0 100 100" xmlns="http://www.w3.org/2000/svg">
 <g>
  <path d="m100 50c0 27.613-22.387 50-50 50s-50-22.387-50-50 22.387-50 50-50 50 22.387 50 50"/>
  <path d="m69.941 26.598c-5.3867-5.1914-14.023-5.2969-19.91-0.47266-2.6992-2.3789-6.1133-3.6758-9.7305-3.6758-3.9922 0-7.7344 1.5781-10.547 4.4453-5.7852 5.9023-5.7852 15.508-0.011718 21.398l0.55078 0.57031c3.4375 3.4961 5.3281 8.125 5.3281 13.027v9.168c0 3.3555 2.5078 6.1953 5.7109 6.4688 1.8398 0.16016 3.6953-0.50781 4.957-1.8164 1.1875-1.1875 1.8438-2.7539 1.8438-4.4141l-0.003906-5.0039c-0.015625-2.9609 4.6875-2.9805 4.6328 0v4.7422c0 3.1641 2.2344 5.9258 5.1992 6.4258 1.8359 0.30469 3.6836-0.19922 5.0898-1.3906 1.4141-1.1914 2.2227-2.9336 2.2227-4.7734v-11.578c0-4.082 1.5742-7.9375 4.4414-10.867l0.52734-0.54687c2.8711-2.9258 4.4141-6.8086 4.3555-10.938-0.058594-4.1094-1.7109-7.9375-4.6562-10.77z" fill="#fff"/>
 </g>
</svg>
