<?xml version="1.0" encoding="UTF-8"?>
<svg width="100pt" height="100pt" version="1.1" viewBox="0 0 100 100" xmlns="http://www.w3.org/2000/svg">
 <g>
  <path d="m100 50c0 27.613-22.387 50-50 50s-50-22.387-50-50 22.387-50 50-50 50 22.387 50 50" fill="#12b0fb"/>
  <path d="m69.898 20.086h-39.801c-1.1953 0-2.2031 1.0078-2.2031 2.2031v17.695c0 1.1328 0.62891 2.2031 1.6367 2.707l12.91 7.1211 1.3867-3.0234c1.0703-2.3945 3.5273-3.9688 6.1719-3.9688s5.1016 1.5742 6.1719 3.9688l1.3242 3.0234 12.973-7.1172c1.0078-0.50391 1.6367-1.5742 1.6367-2.707v-17.699c0-1.1953-0.94531-2.2031-2.207-2.2031z"/>
  <path d="m65.051 58.312-8.6289-0.94531c-0.44141-0.0625-0.75391-0.31641-0.94531-0.69141l-3.5859-7.9336c-0.75391-1.6367-3.0859-1.6367-3.8398 0l-3.5898 7.8711c-0.1875 0.37891-0.56641 0.62891-0.94531 0.69141l-8.6289 0.94531c-1.8281 0.1875-2.5195 2.457-1.1953 3.6523l6.3594 5.8555c0.31641 0.31641 0.44141 0.69141 0.37891 1.1328l-1.7617 8.5c-0.37891 1.7617 1.5117 3.1484 3.0859 2.2656l7.6172-4.2773c0.37891-0.1875 0.82031-0.1875 1.1953 0l7.4961 4.2812c1.5742 0.88281 3.4648-0.50391 3.0859-2.2656l-1.7031-8.5c-0.0625-0.44141 0.0625-0.82031 0.37891-1.1328l6.4219-5.7969c1.3242-1.2578 0.57031-3.4648-1.1953-3.6523z"/>
 </g>
</svg>
