<?xml version="1.0" encoding="UTF-8"?>
<svg width="100pt" height="100pt" version="1.1" viewBox="0 0 100 100" xmlns="http://www.w3.org/2000/svg">
 <g>
  <path d="m5 0h90c2.7617 0 5 2.7617 5 5v90c0 2.7617-2.2383 5-5 5h-90c-2.7617 0-5-2.7617-5-5v-90c0-2.7617 2.2383-5 5-5z" fill="#ff814a"/>
  <path d="m51.59 74.363c5.543-0.35938 10.582-2.5664 14.508-6.0117l3.2656 3.2656c1.4805 1.4805 3.7305-0.76953 2.25-2.25l-3.2656-3.2656c3.4453-3.9258 5.6562-8.9648 6.0117-14.508h4.6133v-3.1836h-4.6172c-0.35547-5.543-2.5625-10.586-6.0117-14.508l3.2656-3.2656c1.4805-1.4805-0.76953-3.7305-2.25-2.25l-3.2656 3.2656c-3.9258-3.4453-8.9648-5.6562-14.508-6.0117v-4.6172h-3.1836v4.6172c-5.543 0.35938-10.582 2.5664-14.508 6.0117l-3.2656-3.2656c-1.4805-1.4805-3.7305 0.76953-2.25 2.25l3.2656 3.2656c-3.4453 3.9258-5.6562 8.9648-6.0117 14.508h-4.6133v3.1836h4.6172c0.35938 5.543 2.5664 10.582 6.0117 14.508l-3.2656 3.2656c-1.4805 1.4805 0.76953 3.7305 2.25 2.25l3.2656-3.2656c3.9258 3.4453 8.9648 5.6562 14.508 6.0117v4.6133h3.1836v-4.6172zm-1.2578-9.7852c1.4219 0 2.5742-1.1523 2.5742-2.5742s-1.1523-2.5742-2.5742-2.5742-2.5742 1.1523-2.5742 2.5742 1.1523 2.5742 2.5742 2.5742zm0-24.004c1.4219 0 2.5742-1.1523 2.5742-2.5742s-1.1523-2.5742-2.5742-2.5742-2.5742 1.1523-2.5742 2.5742 1.1523 2.5742 2.5742 2.5742zm0.11719 14.785c2.957 0 5.3594-2.3984 5.3594-5.3594 0-2.957-2.3984-5.3594-5.3594-5.3594-2.957 0-5.3594 2.3984-5.3594 5.3594 0 2.957 2.3984 5.3594 5.3594 5.3594zm-12.199-12.996c2.0195 0 3.6562-1.6367 3.6562-3.6562s-1.6367-3.6562-3.6562-3.6562-3.6562 1.6367-3.6562 3.6562 1.6367 3.6562 3.6562 3.6562zm0 10.215c1.4219 0 2.5742-1.1523 2.5742-2.5742s-1.1523-2.5742-2.5742-2.5742-2.5742 1.1523-2.5742 2.5742 1.1523 2.5742 2.5742 2.5742zm0 12.379c2.0195 0 3.6562-1.6367 3.6562-3.6562s-1.6367-3.6562-3.6562-3.6562-3.6562 1.6367-3.6562 3.6562 1.6367 3.6562 3.6562 3.6562zm23.496-22.594c2.0195 0 3.6562-1.6367 3.6562-3.6562s-1.6367-3.6562-3.6562-3.6562c-2.0195 0-3.6562 1.6367-3.6562 3.6562s1.6367 3.6562 3.6562 3.6562zm0 10.215c1.4219 0 2.5742-1.1523 2.5742-2.5742s-1.1523-2.5742-2.5742-2.5742-2.5742 1.1523-2.5742 2.5742 1.1523 2.5742 2.5742 2.5742zm0 12.379c2.0195 0 3.6562-1.6367 3.6562-3.6562s-1.6367-3.6562-3.6562-3.6562c-2.0195 0-3.6562 1.6367-3.6562 3.6562s1.6367 3.6562 3.6562 3.6562z" fill-rule="evenodd"/>
 </g>
</svg>
