<?xml version="1.0" encoding="UTF-8"?>
<svg width="100pt" height="100pt" version="1.1" viewBox="0 0 100 100" xmlns="http://www.w3.org/2000/svg">
 <g>
  <path d="m5 0h90c2.7617 0 5 2.7617 5 5v90c0 2.7617-2.2383 5-5 5h-90c-2.7617 0-5-2.7617-5-5v-90c0-2.7617 2.2383-5 5-5z"/>
  <path d="m78.016 53.621-27.184-21.012-27.18 21.012-1.6406-2.1211 28.82-22.285 28.828 22.285z" fill="#fff"/>
  <path d="m50.922 34.957-23.078 17.438v23.504h46.156l0.003906-23.504zm7.9805 26.508h-5.7578v5.7578h-4.3164v-5.7578h-5.7578v-4.3164h5.7578v-5.7578h4.3164v5.7578h5.7578z" fill="#fff"/>
 </g>
</svg>
