<?xml version="1.0" encoding="UTF-8"?>
<svg width="100pt" height="100pt" version="1.1" viewBox="0 0 100 100" xmlns="http://www.w3.org/2000/svg">
 <path d="m24.082 36.641c0.49219-11.078 12.723-18.742 23.332-13.195 1.7422 0.91797 3.2227 0.91797 4.9844 0.023438 9.4531-4.7266 19.969-0.070312 22.859 10.09 1.1523 4.0703 0.96484 8.2773-1.457 11.711-3.8789 5.5039-5.2695 11.734-6.6094 18.109-0.91797 4.2578-2.1172 8.4414-4.5391 12.137-1.1289 1.7188-2.5625 3.293-4.8438 2.7969-2.1406-0.46875-2.8945-2.3281-3.3867-4.2578-1.4102-5.4336-1.3633-10.961-1.3398-16.488 0-2.2812-0.53906-4.375-1.9766-6.1836-0.77734-0.98828-1.4336-1.0586-2.2578-0.023437-1.4336 1.8359-2.0234 3.9023-2 6.1836 0 5.5273 0.09375 11.078-1.3398 16.488-0.51562 2-1.293 3.9492-3.5742 4.3281-2.1875 0.375-3.5742-1.1289-4.6562-2.7734-2.7734-4.3047-4.0469-9.1484-5.0078-14.086-1.1055-5.6914-2.6328-11.148-6.0898-15.945-1.8633-2.6094-2.2617-5.7383-2.0977-8.9141zm2.3047 0.94141c-0.070313 3.1523 1.0586 5.9023 2.8477 8.4414 2.1875 3.1289 3.5273 6.5859 4.3516 10.301 1.0117 4.6562 1.7656 9.4297 3.5742 13.875 0.73047 1.7656 1.457 3.5508 2.7969 4.9844 1.0586 1.1289 2.0234 1.082 2.7266-0.39844 0.61328-1.2695 0.89453-2.6328 1.082-4.0469 0.70703-4.9844 0.66016-10.02 0.87109-15.027 0.11719-2.8945 1.4805-5.1992 3.5508-7.125 1.1758-1.082 2.3281-1.082 3.5273 0 1.3867 1.2695 2.4219 2.7734 3.0586 4.5391 0.70703 1.9297 0.51562 3.9258 0.58984 5.9023 0.1875 4.9375 0.11719 9.9023 1.4336 14.723 0.23438 0.89453 0.53906 2.0469 1.6211 2.1641 1.0352 0.11719 1.668-0.80078 2.1875-1.6211 2.0469-3.1289 3.1992-6.6328 3.9727-10.254 1.5273-7.0547 3.0117-14.016 7.2422-20.203 3.2227-4.7266 1.9531-11.266-2-15.547-3.9492-4.2812-10.371-5.7148-15.594-3.1055-3.0117 1.5039-5.5508 1.4336-8.5859 0-8.9297-4.1562-19.207 2.5195-19.254 12.398zm2.5859 0.80078c0.94141 0.16406 1.293-0.63672 1.3633-1.3867 0.32812-3.457 1.9297-6.1133 4.9141-7.9492 0.66016-0.39844 1.2227-1.0117 0.75391-1.8359-0.5625-0.98828-1.4102-0.58984-2.0938-0.14063-3.3828 2.2109-5.5469 5.2188-5.8281 8.8672-0.14062 1.3633-0.11719 2.2578 0.89062 2.4453z"/>
</svg>
