<?xml version="1.0" encoding="UTF-8"?>
<svg width="100pt" height="100pt" version="1.1" viewBox="0 0 100 100" xmlns="http://www.w3.org/2000/svg">
 <defs>
  <clipPath id="a">
   <path d="m38 18.512h24v62.977h-24z"/>
  </clipPath>
 </defs>
 <path d="m5 0h90c2.7617 0 5 2.7617 5 5v90c0 2.7617-2.2383 5-5 5h-90c-2.7617 0-5-2.7617-5-5v-90c0-2.7617 2.2383-5 5-5z" fill="#00bac2"/>
 <g clip-path="url(#a)">
  <path d="m41.324 61.824v-15.27c0-0.68359 0.066406-1.3516 0.19141-2l1.4258 2.1992s1.0078-0.67578 0.23047-1.543l-3.7461-5.7227-0.44531-0.73047c-0.56641-0.84766-0.57031-1.5898-0.11719-2.582 0.37891-0.82031 2.4336-6.2383 2.4336-6.2383 0.43359-0.89453 1.4023-2.1133 2.832-2.1133h1.6602c0.48438 0 0.71484 0.1875 0.84375 0.26562 0.41797 0.25 0.87109 0.37891 1.4062 0.37891 0.78906 0 1.4805-0.13281 2.0469-0.39844 0.15234-0.074218 0.41797-0.24609 0.98437-0.24609h1.25c1.2852 0 2.2734 0.88672 2.5469 1.9023l1.8164 6.582c-0.62891-0.49609-1.8867-0.95703-2.8477-0.95703l-0.078126-0.46094-0.50781-3.0742s-0.80469 0.015625-0.82812 0.74609l0.050781 0.41016 0.60547 3.4844c1.332 0 2.1914 0.26953 2.9258 0.57812 3.6797 1.5586 5.4531 5.2656 5.4531 9.5156v15.266zm5.5781 19.664-1.1328-18.508h5.8594l-0.85547 18.508zm-2.4609-60.086c0-1.5977 1.293-2.8906 2.8867-2.8906h1.4727c1.5938 0 2.8906 1.293 2.8906 2.8906v3.082c0 1.5938-1.6953 2.8906-3.293 2.8906-1.6602 0-2.4062-1.1133-3.6367-2.8438-0.10156-0.14453-0.32031-0.5625-0.32031-1.0078z"/>
 </g>
</svg>
