<?xml version="1.0" encoding="UTF-8"?>
<svg width="100pt" height="100pt" version="1.1" viewBox="0 0 100 100" xmlns="http://www.w3.org/2000/svg">
 <defs>
  <clipPath id="a">
   <path d="m18.512 18.512h62.977v62.977h-62.977z"/>
  </clipPath>
 </defs>
 <path d="m5 0h90c2.7617 0 5 2.7617 5 5v90c0 2.7617-2.2383 5-5 5h-90c-2.7617 0-5-2.7617-5-5v-90c0-2.7617 2.2383-5 5-5z" fill="#ffd65b"/>
 <g clip-path="url(#a)">
  <path d="m22.02 81.098c-0.89062 0.60938-2.0938 0.5-2.8594-0.26172-0.73828-0.77344-0.88281-1.9375-0.35156-2.8672l15.43-18.559 6.2969 6.3828zm55.18-29.359c-4.0547 5.4844-10.574 8.5898-17.391 8.2812-3.9805-0.066406-7.8008 1.5625-10.508 4.4766-1.6641 1.6562-4.3516 1.6602-6.0156 0.007812l-7.7734-7.8789-0.007813-0.007812c-0.80859-0.80469-1.2578-1.9023-1.25-3.043 0.011719-1.1406 0.47656-2.2305 1.2969-3.0273 2.8906-2.6562 4.5039-6.4258 4.4258-10.355-0.21094-5.8711 2.082-11.559 6.3047-15.641 3.875-3.8672 9.125-6.0391 14.594-6.0391 0.38672 0 0.76953 0.011719 1.1523 0.03125 5.8945 0.30859 11.367 3.1484 15.016 7.7891 5.8594 7.4375 5.9219 17.898 0.15625 25.406z"/>
 </g>
</svg>
