<?xml version="1.0" encoding="UTF-8"?>
<svg width="100pt" height="100pt" version="1.1" viewBox="0 0 100 100" xmlns="http://www.w3.org/2000/svg">
 <defs>
  <clipPath id="a">
   <path d="m18.512 21h62.977v59h-62.977z"/>
  </clipPath>
 </defs>
 <path d="m5 0h90c2.7617 0 5 2.7617 5 5v90c0 2.7617-2.2383 5-5 5h-90c-2.7617 0-5-2.7617-5-5v-90c0-2.7617 2.2383-5 5-5z" fill="#45dee0"/>
 <g clip-path="url(#a)">
  <path d="m55.66 25.219-3.1016-3.7617-2.4258 2-2.4297-2-3.1016 3.7617 1.6992 1.4023-27.598 22.762 3.1016 3.7617 28.324-23.367 28.324 23.363 3.1016-3.7617-27.594-22.762zm-5.5469 9.0234 22.801 18.391v26.418h-19.246v-0.76562c3.5625-0.57812 5.3438-2.3789 5.3438-5.4141v-3.6055c0-1.1055-0.375-2.1094-1.1133-3.0078-0.74609-0.89062-2.875-2.7383-6.4062-5.5273-1.7461-1.4375-2.6211-2.668-2.6211-3.707l-0.14453-1.8398c0-1.0977 0.44141-1.6523 1.3164-1.6523 0.75391 0 1.1289 0.28516 1.1289 0.85156v3.3516h7.1289v-3.0352c0-2.5352-1.543-4.1133-4.6328-4.7266v-1.9336l-7.125-0.003906v1.9336c-3.5273 0.59375-5.293 2.3398-5.293 5.2305v3.1836c0 1.3008 0.85547 2.7227 2.5625 4.2617 3.582 2.8047 5.7031 4.5625 6.3633 5.2852 0.67188 0.71484 1 1.4297 1 2.1445v3.3555c0 0.64844-0.45703 0.97266-1.375 0.97266-0.94922 0-1.4258-0.32422-1.4258-0.97266v-4.6484l-7.1289 0.003906v4.6016c0 2.5 1.7656 4.1133 5.293 4.8203v0.84375h-19.137v-26.734z" fill-rule="evenodd"/>
 </g>
</svg>
