<?xml version="1.0" encoding="UTF-8"?>
<svg width="1200pt" height="1200pt" version="1.1" viewBox="0 0 1200 1200" xmlns="http://www.w3.org/2000/svg">
 <g>
  <rect width="1200" height="1200" fill="#364573"/>
  <path d="m408.05 382.36h-4.5352l0.75391 3.7773c1.5117-0.75391 3.7773-0.75391 5.2891-0.75391z" fill="#fff"/>
  <path d="m406.54 418.63c-0.75391 0.75391-0.75391 1.5117-2.2656 1.5117 1.5117 0 3.0234 1.5117 2.2656 3.0234 3.0234-0.75391 3.7773-3.0234 3.0234-5.2891-0.75781 0-2.2695 0-3.0234 0.75391" fill="#fff"/>
  <path d="m435.26 419.39c2.2656 0.75391 2.2656 3.0234 3.0234 4.5352 1.5117 1.5117 3.0234 3.0234 4.5352 4.5352-0.75391-3.0234-0.75391-4.5352-3.0234-6.8008-1.5117-2.2656-3.7773-6.0469-6.0469-7.5586 0 3.0195-0.75781 4.5312 1.5117 5.2891" fill="#fff"/>
  <path d="m417.12 421.65c0.75391-0.75391 0.75391-0.75391 1.5117 0v-0.75391c2.2656 1.5117 1.5117 10.578 5.2891 9.0703v3.0234h2.2656c-2.2656-3.7773 3.0234-5.2891 5.2891-7.5586-6.0469-3.7773-10.578-7.5586-17.383-6.8008 0.75391 3.0234-3.0234 3.7773-5.2891 6.8008-3.0234 3.7773-0.75391 8.3125 0 3.7773 0.75391 1.5117 1.5117 3.0234 0 3.7773 2.2656 3.0234 1.5117-4.5352 1.5117-5.2891 0.75391 0.75391 2.2656 1.5117 2.2656 1.5117 0.75391 1.5117-0.75391 2.2656 0 3.7773s3.0234 2.2656 4.5352 0.75391c0 1.5117 4.5352 0 1.5117-3.7773 0.003906-3.0234-2.2617-5.2891-1.5078-8.3125" fill="#fff"/>
  <path d="m437.52 429.96c-3.0234 0.75391-1.5117 2.2656 1.5117 2.2656 0-0.75391-0.75781-1.5078-1.5117-2.2656" fill="#fff"/>
  <path d="m414.85 439.04-0.75391-0.75391c2.2656 0 3.7773-0.75391 4.5352-3.0234-1.5117-0.75391-2.2656-0.75391-2.2656 0.75391 0-1.5117-2.2656-2.2656-2.2656-3.0234-1.5117 0.75391-3.0234 1.5117-4.5352 0.75391v0.75391c1.5117 0 3.0234 1.5117 3.7773 3.0234-0.75391 0-0.75391 0-1.5117-0.75391-0.003906 2.2695 0.75391 3.0234 3.0195 2.2695" fill="#fff"/>
  <path d="m429.21 438.28c-2.2656-5.2891-6.8008-0.75391-3.7773 1.5117 0 1.5117 0 1.5117 0.75391 3.0234 0.75391-2.2656 3.0234-3.0234 3.0234-4.5352" fill="#fff"/>
  <path d="m433.75 432.99c-3.0234 3.0234 0.75391 4.5352-0.75391 8.3125 0.75391 0 5.2891 0 2.2656-1.5117 0.75391-0.75391 1.5117-0.75391 2.2656-1.5117-0.75391-0.75391-1.5117-1.5117-3.0234-3.0234 3.0234 0.003906 0.75781-2.2656-0.75391-2.2656" fill="#fff"/>
  <path d="m442.81 439.04c-0.75391-1.5117-1.5117-3.0234-3.7773-3.0234 0.75391 1.5117-1.5117 6.0469 0 6.8008 2.2656 1.5117 4.5352-2.2656 6.8008 0 0-1.5117-0.75391-3.7773-3.0234-3.7773" fill="#fff"/>
  <path d="m424.68 442.81c-0.75391 0.75391 0 1.5117-1.5117 1.5117 1.5117 0.75391 1.5117 3.0234 1.5117 4.5352 0.75391-1.5117 2.2656-2.2656 3.0234-3.7773h-1.5117c0-0.75391 0.75391-0.75391 0.75391-1.5117 0-0.75781-1.5078-0.75781-2.2656-0.75781" fill="#fff"/>
  <path d="m397.47 432.99c-1.5117 0-2.2656 3.7773-0.75391 1.5117-3.0234-0.75391-1.5117 5.2891 0.75391 8.3125s4.5352 4.5352 6.8008 3.7773c-2.2656 3.7773 6.8008 4.5352 8.3125 4.5352v-2.2656c0.75391 2.2656-3.0234 0-3.7773-1.5117-0.75391-1.5117-0.75391-4.5352-0.75391-6.0469 1.5117 0.75391 3.7773 1.5117 3.7773-0.75391-2.2656-1.5117-1.5117 0.75391-3.7773-0.75391-0.75391-0.75391-0.75391-2.2656-1.5117-3.7773-1.5117-1.5117-4.5352-3.7773-6.0469-5.2891 0 0-0.75391-1.5117-0.75391-2.2656-0.75391-0.75391-2.2656 1.5117-1.5117-0.75391-1.5117 0.75391-2.2656 3.0234-3.0234 4.5352 0.75391-0.75391 1.5117-1.5117 2.2656-2.2656 0.75781 2.2578 0.75781 3.0117 0 3.0117" fill="#fff"/>
  <path d="m425.43 449.61c-2.2656-0.75391-0.75391 3.0234-3.7773 3.0234 1.5117-1.5117 0.75391-1.5117-0.75391-1.5117 2.2656-2.2656 0-2.2656 0-3.7773 0-2.2656 0.75391-3.7773 1.5117-6.0469-2.2656 0-2.2656-1.5117-2.2656-3.7773-0.75391 2.2656-3.0234 2.2656-3.0234 4.5352-0.75391 1.5117 2.2656 3.7773-0.75391 4.5352 0.75391-0.75391 0-0.75391 0.75391-1.5117v-0.75391h-0.75391c-1.5117 2.2656-0.75391 5.2891-0.75391 7.5586 1.5117-0.75391 6.0469 2.2656 6.0469 3.0234-0.75391-0.75391-0.75391 0-1.5117 0 1.5117 0.75391 1.5117 1.5117 0 1.5117 0.75391 0.75391 2.2656 0.75391 3.0234 0-3.0234-3.0234 4.5352 0 4.5352-0.75391-2.2773-0.76172-2.2773-6.0547-2.2773-6.0547z" fill="#fff"/>
  <path d="m433.75 506.29c-0.75391-3.0234-1.5117-6.0469-1.5117-9.0703-3.7773 1.5117-0.75391 10.578 3.0234 9.8242 3.0234-0.75391-0.75391-9.0703 0-11.336-1.5117-0.75391-3.7773 0-4.5352 1.5117 0.75391 0 1.5117-0.75391 1.5117-0.75391 0.75391 2.2656 1.5117 3.7773 2.2656 5.2891 0 0-0.75391 0-0.75391-0.75391 0.75391 2.2656 0.75391 3.7773 0 5.2891" fill="#fff"/>
  <path d="m437.52 462.46-8.3125 15.113-0.75391 3.7773c3.0234 2.2656 6.8008 3.7773 7.5586 8.3125 8.3125-4.5352 6.0469 7.5586 6.0469 11.336v3.7773c0.75391 2.2656 3.7773 2.2656 4.5352 4.5352 0.75391 2.2656-1.5117 3.7773 1.5117 3.7773 2.2656 0 2.2656-3.0234 4.5352-2.2656 3.0234 0.75391 1.5117 3.7773 2.2656 6.0469 1.5117 3.7773 3.7773 2.2656 6.0469 4.5352-0.75391-3.0234 2.2656-4.5352 2.2656-7.5586 0-1.5117-1.5117-6.8008-2.2656-8.3125-1.5117-2.2656-4.5352-2.2656-6.8008-3.7773-2.2656-2.2656-2.2656-5.2891-6.0469-5.2891 0.75391 2.2656 2.2656 9.8242-1.5117 10.578 0.75391-1.5117 0.75391-3.7773-0.75391-4.5352v-3.0234l-1.5117-3.7773c2.2656-3.0234 0-9.8242-2.2656-12.09-3.0234-3.7773-5.2891-1.5117-9.0703-2.2656-4.5352-0.75391-2.2656-0.75391 0.75391-2.2656 2.2656-1.5117 3.0234-6.0469 5.2891-6.0469 0.75391 0.75391 0 1.5117-0.75391 1.5117 0.75391 0.75391 0.75391 0.75391 1.5117 1.5117 0.75391-3.7773 5.2891-5.2891 6.0469 0 0.75391-2.2656 3.7773-1.5117 4.5352-3.7773 0.75391-3.0234-5.2891-6.0469-7.5586-6.8008 3.0234-3.0234 0.75391-4.5352-0.75391-6.8008-0.75391 0.75391-1.5117 1.5117-3.0234 1.5117v-1.5117c-0.76562-1.5156-1.5195 3.0195-1.5195 3.7734" fill="#fff"/>
  <path d="m446.59 561.46c0.75391 3.0234 3.0234 2.2656 5.2891 0.75391-1.5117-0.75391-2.2656-0.75391-3.7773-1.5117 1.5117 0.75391 2.2656 0 1.5117-2.2656-0.75391-0.75391-2.2656-1.5117-3.0234-1.5117 1.5117 0 3.0234 0 3.7773 0.75391 0-1.5117-0.75391-3.0234-2.2656-3.7773 0.75391 0 1.5117-0.75391 1.5117-1.5117-2.2656-1.5117 1.5117-5.2891-2.2656-5.2891-0.75391 0.75391-0.75391-0.75391-1.5117-1.5117-2.2656 1.5117-2.2656 4.5352-0.75391 6.0469-0.75391 0 0 0-0.75391 0.75391 0-0.75391 0-0.75391-0.75391-1.5117-1.5117 0.75391-1.5117 3.0234 0 3.7773l-0.75391 0.75391v6.0469c2.2617-1.5078 2.2617-1.5078 3.7695 0.003907" fill="#fff"/>
  <path d="m452.64 572.04c-0.75391 0-0.75391 0-1.5117-0.75391 0 4.5352-3.7773 8.3125-4.5352 12.848v3.7773c0 0.75391-1.5117 8.3125 2.2656 6.0469 3.0234-1.5117-2.2656-6.8008 3.7773-6.8008v-0.75391c-0.75391 0-0.75391 0-1.5117 0.75391 0-1.5117 0.75391-1.5117 2.2656-1.5117 2.2656 3.7773-6.0469 4.5352-2.2656 7.5586 0 0 6.8008-4.5352 8.3125-5.2891-1.5117-1.5117-7.5586-2.2656-4.5352-3.7773-2.2656-2.2656 0-3.7773-0.75391-5.2891 0.003907-3.7852-1.5078-4.5391-1.5078-6.8086" fill="#fff"/>
  <path d="m411.07 605.29c2.2656 3.0234 3.0234 5.2891 3.7773 9.0703 3.7773-2.2656 3.0234-5.2891 2.2656-8.3125-0.75391-3.7773 0-5.2891 0.75391-9.0703-0.75391 0.75391-3.0234 1.5117-3.0234 3.0234-0.75391 0-0.75391 0-0.75391-0.75391-3.0195-0.003906-2.2656 3.7734-3.0195 6.043" fill="#fff"/>
  <path d="m433.75 607.56c-2.2656-3.0234-3.7773 0-5.2891 2.2656 4.5312 1.5117 9.8203 0.75781 5.2891-2.2656" fill="#fff"/>
  <path d="m428.45 617.38c0.75391 1.5117 1.5117 2.2656 3.0234 1.5117-0.75391-0.75391-0.75391-1.5117-1.5117-2.2656 0.75391 0 0.75391 0.75391 1.5117 0.75391-0.75391-0.75391-0.75391-1.5117 0.75391-0.75391 1.5117 0.75391 1.5117 0.75391 0.75391-0.75391 0-0.75391 0.75391-2.2656 0-3.0234-3.0234-3.7773-3.7773 2.2656-5.2891 3.0234 0.003907 0.75391 0.003907 0.75391 0.75781 1.5078" fill="#fff"/>
  <path d="m432.23 383.11s93.707 3.0234 233.52 3.0234 251.65-4.5352 251.65-4.5352l9.8242 324.2c0.75391 2.2656-0.75391 3.7773-1.5117 6.0469 0 3.0234 0.75391 2.2656 1.5117 4.5352 2.2656 3.7773 4.5352 6.0469 6.0469 10.578 0.75391 2.2656 0.75391 5.2891 1.5117 7.5586 0.75391 1.5117 2.2656 3.0234 3.0234 4.5352 0.75391 4.5352-7.5586 9.8242-1.5117 12.848l3.0234 8.3125-183.64 3.7773-3.7773 4.5352c-6.8008 3.7773-14.359 3.7773-21.16 4.5352-4.5352 0.75391-9.0703 1.5117-13.602 1.5117-4.5352 0.75391-9.0703 0-12.848 0.75391-5.2891 1.5117-7.5586 6.8008-12.848 7.5586-8.3125 2.2656-15.871 2.2656-24.184 4.5352-6.8008 2.2656-12.09 4.5352-18.137 9.0703-6.0469 4.5352-13.602 5.2891-21.16 6.0469-3.7773 0-6.0469 0-9.0703-2.2656-2.2656-1.5117-3.0234-3.7773-6.0469-4.5352-3.0234 0-5.2891 2.2656-8.3125 3.7773-3.7773 2.2656-7.5586 3.0234-10.578 4.5352-2.2656 1.5117-5.2891 3.7773-8.3125 4.5352-3.0234 0.75391-6.0469-0.75391-9.0703-0.75391-4.5352 0-6.0469 0.75391-9.0703 3.0234-2.2656 1.5117-3.7773 3.7773-6.8008 3.0234-3.0234-0.75391-3.0234-5.2891-4.5352-7.5586-1.5117-2.2656-4.5352-3.0234-6.8008-3.7773-7.5586-1.5117-15.871-3.0234-23.426-3.0234-3.7773 0-7.5586 1.5117-11.336 1.5117s-6.8008-0.75391-10.578 0c-6.8008 0.75391-12.09 7.5586-18.895 9.8242-6.0469 2.2656-12.848 6.0469-19.648 6.8008-7.5586 1.5117-16.625-2.2656-24.184-3.7773-6.0469-1.5117-15.113-2.2656-19.648-6.8008-3.7773-4.5352-4.5352-15.113-4.5352-20.402 0-6.8008 0.75391-15.871-3.0234-21.914-0.75391-0.75391-7.5586-15.871-6.0469-16.625-5.2891 0.75391-9.8242-5.2891-12.848-7.5586-2.2656-1.5117-5.2891-3.7773-9.0703-4.5352-4.5352-0.75391-6.8008 2.2656-10.578 3.7773-3.0234 0.75391-5.2891 0-7.5586-2.2656-3.7773-3.0234-4.5352-5.2891-6.8008-8.3125-1.5117-3.0234-3.7773-4.5352-7.5586-3.7773-4.5352 0-18.137 3.7773-15.113-5.2891-2.2656 0.75391-4.5352 3.7773-6.8008 4.5352-1.5117-0.75391-2.2656-0.75391-3.7773-1.5117-0.75391 0-1.5117 0.75391-2.2656 1.5117-2.2656 0.75391-3.7773 3.0234-6.0469 2.2656-5.2891-0.75391-4.5352-5.2891-8.3125-7.5586-5.2891-3.0234-4.5352 1.5117-4.5352 4.5352-0.75391-1.5117-3.0234-1.5117-3.7773 0-0.75391-2.2656 3.0234-7.5586 3.0234-9.8242 0.75391-4.5352 0.75391-9.8242 0.75391-14.359 0-6.0469-0.75391-12.09 0-18.137 0-1.5117 0-4.5352 0.75391-5.2891 3.0234-2.2656 1.5117 5.2891 0.75391 0-0.75391 3.0234 1.5117 7.5586 1.5117 11.336 0 3.7773-1.5117 6.8008-1.5117 10.578 0 3.0234-0.75391 6.0469 0.75391 9.0703 1.5117 4.5352 3.7773 0.75391 6.0469 3.7773 0-2.2656 0.75391-3.0234 1.5117-4.5352 0.75391-2.2656 0-3.7773 0-6.0469 1.5117 1.5117 0.75391 1.5117 2.2656 3.0234 2.2656 2.2656 5.2891 2.2656 6.0469 6.0469 0.75391-4.5352-7.5586-6.8008-8.3125-11.336 0-1.5117 1.5117-6.8008 3.7773-3.7773 3.0234-3.7773-4.5352-12.09-4.5352-16.625 1.5117 2.2656 5.2891 3.0234 4.5352 5.2891 0.75391 0 1.5117-0.75391 1.5117-0.75391-1.5117 0-6.0469-9.0703 1.5117-11.336 5.2891-1.5117 4.5352 4.5352 9.0703 2.2656-1.5117 0-2.2656-1.5117-3.7773-0.75391-0.75391-3.0234-1.5117-2.2656-3.0234-3.7773 0 0-0.75391-0.75391-0.75391-1.5117-1.5117-1.5117-3.0234-1.5117-3.0234-3.0234-3.7773 0.75391-2.2656 5.2891-7.5586 1.5117-0.75391 2.2656-3.0234 2.2656-6.0469 2.2656-7.5586-3.0234-4.5352-9.8242-5.2891-16.625 0-1.5117-3.7773-10.578 0.75391-8.3125 0.75391 0 0.75391 3.7773 1.5117 4.5352 0.75391 2.2656 3.0234 0.75391 1.5117 4.5352 2.2656-2.2656 3.0234-0.75391 4.5352 1.5117 1.5117-2.2656-2.2656-3.7773 0.75391-5.2891-1.5117 0-2.2656-0.75391-3.7773 0 2.2656-1.5117 2.2656-5.2891 6.8008-3.0234-2.2656-4.5352 14.359-6.0469 15.871-9.0703-3.7773 3.0234-8.3125-1.5117-12.09 0-3.0234 0-3.7773-0.75391-6.0469-2.2656-0.75391-1.5117 0-1.5117 0-3.0234-0.75391-2.2656-3.0234-3.7773-5.2891-4.5352-9.8242-2.2656-2.2656 12.848-8.3125 14.359 0.75391-8.3125 0.75391-16.625 0.75391-24.938-1.5117-6.8008-1.5117-14.359-5.2891-21.16 1.5117-1.5312-4.5312-9.8438 0-6.8203-1.5117-1.5117-3.7773-2.2656-4.5352-4.5352-1.5117-3.0234-0.75391-6.8008-0.75391-9.8242 0-6.8008-0.75391-13.602-1.5117-20.402-0.75391-5.2891-0.75391-20.402-8.3125-20.402 1.5117-3.7773-8.3125-15.871-10.578-13.602 0-1.5117-1.5117-4.5352-2.2656-5.2891-0.75391-2.2656-1.5117-4.5352-2.2656-6.8008-2.2656-6.0469-0.75391-12.848-2.2656-18.895-0.76172-1.5156-2.2734-3.7812-2.2734-5.293 0-2.2656 2.2656-3.0234 3.0234-5.2891 0.75391-2.2656-0.75391-3.0234-0.75391-5.2891 0-2.2656 2.2656-4.5352 3.0234-6.8008 1.5117-6.0469-4.5352-5.2891-3.7773-9.8242 0.75391-4.5352 6.0469-1.5117 8.3125-0.75391 10.578 5.2891 21.16 16.625 33.25 15.871 1.5117 0.75391 12.09 5.2891 10.578 7.5586-1.5117-1.5117 1.5117 2.2656 3.0234 3.0234 2.2656 1.5117 5.2891 2.2656 8.3125 2.2656 5.2891 1.5117 10.578 1.5117 15.871 1.5117h6.8008c1.5117 0 3.0234 0 4.5352 0.75391l3.0234 2.2656c3.0234 0.75391 4.5352-1.5117 7.5586-0.75391 1.5117 0 2.2656 2.2656 4.5352 2.2656 2.2656 0 14.359 0 20.402 3.0234 4.5352-3.0234 7.5586-6.8008 12.848-9.0703-1.5117 0.75391-2.2656 0.75391-2.2656 3.0234 0-0.75391-0.75391-0.75391-0.75391-0.75391-0.75391 0.75391-2.2656 1.5117-3.0234 2.2656 5.2891-2.2656 9.0703 3.7773 11.336 8.3125-1.5117 1.5117-2.2656 7.5586 2.2656 7.5586 0.75391 0 1.5117-7.5586-1.5117-7.5586 3.7773-1.5117 5.2891-1.5117 9.0703-1.5117-1.5117 6.0469 0.75391 3.0234 3.7773 6.0469 2.2656 2.2656 0.75391 5.2891-0.75391 7.5586 5.2891-0.75391 5.2891-6.0469 2.2656-9.0703-2.2656-2.2656-2.2656-0.75391-1.5117-4.5352 0.75391-2.2656 1.5117-3.0234 3.7773-5.2891 2.2656 0 4.5352-0.75391 6.8008-0.75391-0.75391 1.5117-0.75391 2.2656 0.75391 3.7773-3.0234 1.5117-3.7773 2.2656-3.0234 6.0469 0 1.5117 1.5117 6.0469 4.5352 4.5352-1.5117 3.7773 3.7773 5.2891 4.5352 8.3125 0.75391 2.2656-2.2656 8.3125 1.5117 4.5352 0 2.2656 3.0234 6.0469 1.5117 8.3125-1.5117 0-3.0234 0-4.5352-0.75391 0.75391 5.2891-1.5117 4.5352-3.7773 8.3125-1.5117 2.2656-5.2891 11.336-3.0234 13.602-3.0234 2.2656-1.5117-0.75391-3.7773 0 1.5117 2.2656-1.5117 1.5117-1.5117 0 0-1.5117 0.75391-3.7773 0.75391-4.5352 1.5117-5.2891 2.2656-14.359 0.75391-15.871 0 3.7773 0 9.0703-1.5117 9.8242-3.0234 1.5117-0.75391-4.5352-2.2656-5.2891-0.75391 0 0 10.578 0 10.578-0.75391-0.75391-0.75391 0-1.5117-0.75391 0 2.2656-2.2656 8.3125-4.5352 10.578 3.7773-0.75391-1.5117 3.0234-2.2656 3.7773-3.7773 2.2656-4.5352 4.5352-6.8008 8.3125-3.7773 6.8008-11.336 15.871-12.848 24.184-0.75391 3.7773 0.75391 4.5352 3.7773 3.7773l2.2656-1.5117c0.75391 0 3.0234 1.5117 4.5352 0.75391 3.0234-0.75391 6.8008-3.0234 9.0703-3.7773 3.0234-0.75391 8.3125-3.7773 7.5586-7.5586-3.7773 3.0234-9.0703 3.7773-12.848 6.8008-0.75391 0.75391-2.2656 3.0234-3.7773 3.0234-3.0234 0-0.75391-0.75391-1.5117-2.2656-4.5352 3.7773-6.8008-0.75391-5.2891-5.2891 0.75391-2.2656 3.0234-4.5352 4.5352-6.0469 1.5117-2.2656 2.2656-4.5352 3.7773-6.8008 2.2656-3.7773 5.2891-6.0469 8.3125-9.0703 0.75391-0.75391 11.336-10.578 8.3125-4.5352 2.2656-1.5117 3.7773-1.5117 6.0469-3.0234 2.2656-2.2656 1.5117-3.7773 2.2656-6.8008 1.5117-5.2891 6.8008-11.336 11.336-15.113l1.5117-2.2656h2.2656v4.5352l0.75391 0.75391 1.5117-0.75391-0.75391-3.7773v-2.2656l-1.5117-3.7773h0.75391l-1.5117-2.2656-1.5117-0.75391v-1.5117l-1.5117-0.007812 0.75391 2.2656 5.2891 1.5117v1.5117l1.5117 3.0234 0.75391 6.0469 1.5117 1.5117v1.5117l-2.2656 1.5117 1.5117 1.5117c3.7773 6.0469-5.2891 6.8008-6.8008 2.2656-0.75391 3.0234 1.5117 3.7773-0.75391 6.8008-3.7773 4.5352-2.2656-0.75391-5.2891 0 0-1.5117-1.5117-2.2656-2.2656-4.5352-1.5117 1.5117-0.75391 4.5352 1.5117 4.5352 0 1.5117 0 0.75391 0.75391 1.5117 0 0 0-0.75391-0.75391-0.75391 0.75391 0 0.75391 0 1.5117 0.75391 0 0-0.75391 0-0.75391 0.75391 0.75391 1.5117 1.5117 4.5352 0 6.0469 0.75391 0.75391 1.5117 1.5117 2.2656 1.5117l-0.75391 3.7773c0.75391 1.5117 0 3.7773-1.5117 4.5352l-3.7773-3.7773v-2.2656c-1.5117-1.5117-0.75391-3.0234-1.5117-4.5352-1.5117 0.75391-3.0234 3.7773-1.5117 5.2891 1.5117-0.75391 2.2656 3.7773 3.0234 4.5352-0.75391-0.75391-0.75391-2.2656-0.75391-3.0234 0-0.75391 1.5117 0 2.2656 1.5117 0.75391 1.5117 2.2656 0.75391 1.5117 3.0234l-6.0469 3.7773c3.0234-0.75391 6.0469-0.75391 8.3125-3.0234 1.5117-1.5117 2.2656-3.7773 4.5352-4.5352 0 0.75391 0.75391 2.2656 0 3.0234h1.5117c-0.75391 1.5117-0.75391 3.7773-1.5117 5.2891 3.0234 0.75391 3.7773 0.75391 3.0234 3.0234 0 0.75391-1.5117 2.2656-1.5117 3.0234-0.75391 2.2656-0.75391 5.2891-1.5117 7.5586l-1.5117 3.0234c2.2656 2.2656-0.75391 9.0703-3.0234 7.5586 2.2656 4.5352 3.0234 6.0469 0 10.578-2.2656-1.5117-0.75391-3.7773-2.2656-6.0469 0 1.5117 0 2.2656 0.75391 3.7773-1.5117 0.75391-2.2656 0-3.7773-0.75391-1.5117 3.7773 6.8008 3.7773 3.7773 8.3125-1.5117-0.75391-3.0234-3.0234-4.5352-4.5352-0.75391-0.75391-3.0234-4.5352 0-3.0234-0.75391-1.5117-2.2656-2.2656-3.0234 0-0.75391-0.75391-0.75391-1.5117-0.75391-2.2656 1.5117 3.0234 0.75391-1.5117 0.75391-2.2656 0.75391-1.5117 2.2656-2.2656 1.5117-0.75391 1.5117-0.75391 1.5117-2.2656 0-2.2656 1.5117-0.75391 3.7773-2.2656 4.5352-3.7773 0.75391-1.5117-0.75391-3.0234 0-4.5352-0.75391 0.75391-3.0234 9.8242-6.0469 5.2891 0.75391 1.5117-1.5117 4.5352-3.7773 3.0234 1.5117 3.0234-2.2656 6.0469-3.0234 9.8242 1.5117-0.75391 0.75391 0.75391 0.75391 1.5117 0 0 4.5352 1.5117 0.75391 6.0469v-2.2656c-0.75391 1.5117-0.75391 2.2656 0 3.7773l0.75391-0.75391c-0.75391 1.5117-0.75391 3.0234-2.2656 4.5352-0.75391-0.75391-6.8008-7.5586-1.5117-16.625 1.5117-2.2656-2.2656-4.5352 2.2656-5.2891-2.2656-0.75391-2.2656-1.5117-1.5117-3.0234-0.75391 0-1.5117 0.75391-2.2656 0.75391-0.75391-2.2656 0-4.5352-0.75391-6.0469 0.75391 0-2.2656 15.871-4.5352 10.578 1.5117 3.0234-3.7773 3.0234-4.5352 4.5352-1.5117 2.2656-1.5117 6.8008-1.5117 9.8242-3.7773-1.5117-8.3125 0.75391-12.09-0.75391 0.75391-1.5117 2.2656-2.2656 3.7773-1.5117-3.0234-2.2656 0-3.0234 1.5117-4.5352-1.5117-0.75391-7.5586 4.5352-7.5586 6.0469 2.2656-0.75391 3.0234 2.2656 9.0703 0.75391 2.2656-0.75391 4.5352-0.75391 3.7773 2.2656 0.75781 0.75-11.336 0.75-9.8242 3.7734 1.5117-1.5117 3.0234-3.0234 5.2891-2.2656 0.75391 4.5352-5.2891 3.0234-6.0469 6.8008 0.75391-0.75391 0.75391-0.75391 0.75391 0.75391 0.75391-1.5117 4.5352-2.2656 6.0469-3.7773 0 0 3.0234-6.0469 3.0234-2.2656 1.5117-1.5117 4.5352-3.0234 3.7773-5.2891 3.0234 0.75391 1.5117 5.2891 0 3.0234 0 2.2656-3.0234 3.7773-1.5117 6.0469h-3.0234c1.5117 2.2656-2.2656 1.5117-2.2656 3.7773 0 2.2656 2.2656 3.0234 1.5117 5.2891 1.5117-1.5117-0.75391-3.0234 0-4.5352 0.75391-0.75391 0.75391-0.75391 1.5117-2.2656 0.75391-1.5117 3.0234-1.5117 3.7773-3.0234 0-0.75391-0.75391-0.75391-0.75391-1.5117 0.75391-0.75391 0.75391-2.2656 1.5117-3.0234 0 2.2656-0.75391 5.2891-0.75391 7.5586 0 2.2656 1.5117 3.7773 2.2656 5.2891 0-2.2656 0.75391-2.2656 0.75391 0 0.75391-3.0234-2.2656-15.113 3.7773-13.602-0.75391-1.5117 1.5117-1.5117 1.5117 0 0 1.5117 0.75391 2.2656-1.5117 2.2656v1.5117c1.5117-0.75391 1.5117 3.0234 2.2656 4.5352 0.75391 0 0.75391-9.0703 0.75391-10.578 2.2656 3.0234 3.0234 5.2891 5.2891 8.3125 9.8242 6.0469 21.16-18.137 18.895-25.695 3.7773 0 9.0703 6.0469 9.8242 9.0703v-3.0234c3.0234 1.5117 0.75391-3.0234 3.7773 0-0.75391-1.5117-3.0234-3.0234 0-1.5117-0.75391-1.5117-3.0234-3.0234-4.5352-3.0234 1.5117-3.7773 6.8008-3.0234 9.0703-5.2891 2.2656-2.2656 2.2656-7.5586-0.75391-9.0703 0-2.2656-0.75391-3.7773-3.0234-4.5352 3.0234-3.7773 0-3.7773-0.75391-8.3125-0.75391-1.5117 0-3.0234 0-4.5352 0-0.75391-1.5117-2.2656-1.5117-3.0234 1.5117-5.2891 4.5352 0.75391 5.2891 2.2656 1.5117 3.0234 2.2656 4.5352 4.5352 6.0469-1.5117-1.5117-2.2656-3.0234-3.0234-5.2891-0.75391-2.2656 0-3.7773-0.75391-6.0469-0.75391-3.7773-6.0469-4.5352-8.3125-8.3125 1.5117 0 4.5352-5.2891 5.2891-6.0469 0.75391-2.2656 0-3.7773 0-6.0469-0.75391-2.2656-1.5117-3.0234-0.75391-5.2891 0.75391-2.2656 3.7773-3.7773 5.2891-6.0469 1.5117-3.0234 0.75391-9.0703 3.0234-12.09 0 0 10.578-4.5352 6.8008-4.5352 0.75391-1.5117 1.5117-7.5586 4.5352-5.2891-0.75391-2.2656-1.5117-0.75391-2.2656-3.0234-2.2656 4.5352-9.8242-6.0469-11.336-6.8008l-2.2656-5.2891v-3.7773c3.0234-3.7773-1.5117-6.0469-0.75391-9.0703 0 0.75391-0.75391 1.5117-0.75391 1.5117-0.75391-2.2656-4.5352-0.75391-5.2891 0 0 0.75391 0.75391 1.5117 0.75391 2.2656 0 0.75391-0.75391 1.5117-1.5117 1.5117-0.75391 2.2656-1.5117 0-1.5117 2.2656 0 3.0234 3.0234 5.2891 4.5352 6.8008 2.2656 3.0234 3.7773 5.2891 5.2891 8.3125-3.0234 0-3.0234-2.2656-3.7773-4.5352-1.5117-2.2656-3.7773-2.2656-5.2891-5.2891-3.7773 4.5352-5.2891-5.2891-5.2891-7.5586 0-1.5117-1.5117-5.2891 0-6.8008 1.5117-3.0234 5.2891 0 6.0469-3.7773 1.5117 0.75391 3.7773 2.2656 5.2891 3.0234 0-0.75391 0.75391-1.5117 0.75391-3.0234 0.75391 2.2656 1.5117-2.2656 3.0234-3.7773-3.0234 2.2656-1.5117 0-0.75391-0.75391-1.5117 0.75391-1.5117 0.75391-0.75391-0.75391-2.2656 0.75391-6.8008-9.0703-10.578-6.8008 1.5117-0.75391 2.2656-1.5117 0-3.0234-0.75391 4.5352-3.7773-4.5352-5.2891-4.5352 2.2656 0 2.2656-3.0234 2.2656-3.7773-2.2656 0.75391-2.2656 0-3.7773 2.2656-2.2656 1.5117-3.0234 2.2656-6.0469 1.5117 0-0.75391-3.7773-3.7773 0.75391-4.5352 0-1.5117 0-2.2656-0.75391-3.0234 0-0.75391-3.0234-2.2656-2.2656-1.5117-0.75391-2.2656 0.75391-1.5117 2.2656-1.5117 3.0234-0.75391 5.2891-3.7773 6.8008 0 0.75391 1.5117-2.2656 5.2891 0.75391 5.2891-0.75391-2.2656-0.75391-3.7773 1.5117-4.5352 0.75391 1.5117 1.5117 4.5352 3.0234 5.2891 0.75391 0.75391 2.2656 0 3.0234 1.5117 0.75391-0.75391 1.5117-1.5117 1.5117-3.0234 0-2.2656-3.0234-3.7773-0.75391-5.2891-3.0234-2.2656-1.5117-8.3125-6.8008-6.8008v-1.5117c1.5117 1.5117 3.0234 0.75391 4.5352 1.5117 1.5117 0.75391 1.5117 2.2656 3.0234 2.2656 9.0703-4.5352-3.0234-9.0703-3.7773-13.602l0.75391 0.75391c0.75391-1.5117 0-6.0469-0.75391-3.0234-1.5117-4.5352 3.7773-7.5586-1.5117-10.578-5.2891-3.7773-8.3125 3.0234-10.578 6.8008-3.0234-3.7773 0.75391-3.0234 0-7.5586 0-2.2656-2.2656-4.5352-4.5352-3.7773 0 1.5117 0 0.75391-0.75391 2.2656 0-6.0469-2.2656-9.8242-6.8008-13.602 1.5117 0 5.2891-2.2656 3.7773-4.5352-0.75391-1.5117-2.2656 0-3.0234-0.75391-1.5117-1.5117-2.2656 0.75391-2.2656-2.2656 0-1.5117 3.0234-3.7773 3.7773-4.5352-3.7773 5.2891 7.5586 4.5352 2.2656 0.75391z" fill="#fff"/>
 </g>
</svg>
