<?xml version="1.0" encoding="UTF-8"?>
<svg width="1200pt" height="1200pt" version="1.1" viewBox="0 0 1200 1200" xmlns="http://www.w3.org/2000/svg">
 <defs>
  <clipPath id="a">
   <path d="m222.14 307h755.71v586h-755.71z"/>
  </clipPath>
 </defs>
 <rect width="1200" height="1200" fill="#364573"/>
 <g clip-path="url(#a)">
  <path d="m558.76 443.22 1.2695-1.6328 1.1797-2.9609 0.31641-1.5039-1.0898-0.097656-1.6562 0.70312-1.4297 0.89844-1.7305 1.6172-0.58984 1.4219 0.29297 4.2695zm19.504-42.875-0.11328 1.5117 0.75391 1.2305 0.85547-0.21094 2.75-2.5078 1.6992-0.69531 2.1094-1.6641 1.9062-2.0859 1.3828-2.3789 0.27344-0.33203 0.16016-0.40234v-0.63281l-1.293 0.066406-0.97656 0.58203-1.6328 2.0859-0.51953-2.0859-1.1875 0.95312-2.2227 3.8711-0.65625-0.82422 0.25-0.29297 0.11328-0.015625 0.12109-0.12109 0.17188-0.56641-1.1016 0.007813-0.9375 0.28125-0.75 0.57422-0.51953 0.95313-0.22656-0.082032-0.41406-0.082031h-0.58984l-0.75 0.16016v0.99609l1.2695 0.45312zm-10.82 7.3789 2.3203-0.56641 3.6289-2.8555 2.2461-1.2031-0.023437-0.56641-0.13672-0.42188-0.5-0.81641-0.63672-0.089844-0.73438 0.47656-0.85547 0.28906-1.0508-0.67969-1.1328 0.96094-2.4727 0.83984-1.0195 0.92969-0.36328 0.92969-0.16016 1.2305 0.17969 1.0898zm214.49 423.92 0.066406-3.2344-1.3672-10.812 0.39453-5.5234-0.12891-2.2578-0.84766-2.1836-1.4219-1.7305-1.5195-1.4219-1.2109-1.6914-0.69531-4.2852-0.44531-1.043-0.26562-1.0898 0.26562-1.793 0.58984-1.0742 0.96094-1.0039 1.7852-1.3906 0.19531 2.5391-0.78516 2.082-0.33984 2.1367 1.5625 2.7578 3.1602 2.8633 1.125 1.3008 0.94531 1.9648 1.0117 4.3516 0.35547 4.7695-0.058594 10.348-0.29297 2.5703-1.375 5.1914-0.80859 5.2305-2.2461 5.1836-0.49219 2.6133-0.61328 1.8281-5.4922 9.7344-0.71094 2.3945-0.34766 2.5938-0.089844 2.7656 2.2734-1.6836 3.0469-7.4141 1.918-2.9336 2.6836-1.4141 3.4531-0.75 3.5-0.10547 2.8047 0.51953-0.38672-1.2031-1.293-2.418-0.27344-1.0977 0.48437-1.1328 1.1328-0.16016 1.1094 0.074219 0.51953-0.51953 0.50781-2.2891 1.2461-2.0234 4.2109-4.6484 0.92969-0.75 1.1172-0.22656 2.0781-0.023438 0.25-0.49219 2.0312-2.9336 0.49219-1.2695-0.20312-0.56641-0.92969-0.75391 0.96094-0.875 0.26562-0.16016-0.30859-1.0586-0.5-1.0898-0.29297-0.41406-0.21875-0.20312-0.46094-0.30859-0.31641-0.37109-4.625-7.375-0.49219-0.85156 1.3359-0.89844c6.6641-4.1328 13.316-8.2812 19.965-12.438l1.5195-1.1406-1.4219-2.0859c-1.457-2.5469-2.9102-5.1016-4.3516-7.6719 2.0469-32.277 4.0977-64.562 6.1289-96.844l-2.5469-3.1484c7.5586-28.203 15.121-56.445 22.688-84.648l1.5859-2.0625c-0.83984-2.6445-1.6992-5.2734-2.5625-7.9141l1.043-4.5781 0.25-2.1172c0.64062-29.98 1.2617-59.973 1.8594-89.945l-0.70312-1.0586-0.90625-0.86719-0.5-0.33984-0.76953-1.1328-1.375-4.7383-0.40234-0.73438-0.54297-0.56641-0.71094-0.32422-1.5195-0.33984-0.73438-0.03125-0.67969 0.058594-0.63672 0.17188-0.56641 0.28906-0.48438 0.4375-0.38672 0.60547-0.29297 0.67969-0.44531 2.2891-0.29297 0.72656-0.40625 0.58984-0.4375 0.51562-1.0508 0.78516-1.0664 0.47656-0.40234 0.10547-0.16797-0.066407-0.19531-0.30078-0.6875-1.3164-0.51953-1.5117-0.16016-1.6172-0.023438-2.8398 0.16016-1.4727 0.26562-1.1484 5.0117-13.066 0.29297-1.4297 0.17969-2.7656-0.046875-1.375-0.16016-1.0586-0.25-0.61328-1.7305-3.1953-0.12891-0.79297 0.089844-0.79297 0.57422-2.0625 0.21875-1.7305-0.023437-1.0273-0.097656-0.83203-0.19531-0.63672-0.27344-0.55078-0.72656-1.1094-0.41406-1.1094-0.42969-1.6719-0.88281-5.7656-0.097656-2.0234 0.12891-3.6133-0.15234-1.1406-0.21875-0.88281-0.29297-0.56641-1.2227-1.6641-0.4375-0.74219-0.4375-1.1641v-0.91406l0.21875-0.80859 1.1328-1.9414 3.3086-10.68 0.37891-1.7852 0.29297-2.8125 0.16797-0.75 0.33984-0.66406 0.40234-0.61328 0.97656-0.96094 1.043-0.80078 1.1094-0.66406 1.043-0.76953 0.47656-0.96094 0.38672-1.4297 0.32422-2.8477 0.023437-2.6055-0.16016-1.3516-1.3516-5.9609-0.046875-1.082 0.046875-0.95312 0.25-0.78516 0.28906-0.75391 1.8438-3.5078 0.58984-1.5938 0.47656-2.2227 0.28906-1.9492 0.054687-1.2539-0.054687-1.2539-0.11328-0.79297-0.51172-1.9609-0.92969-2.1172-4.082-6.9297-1.3242-2.9414-0.28906-1.1328-0.73438-4.8438-0.14453-2.9492 0.097657-0.77734 0.16016-0.80078 1.5625-5.125 0.16797-1.5703 0.15234-3.0156 0.31641-1.625 0.875-2.7344 0.32422-1.2305 0.30859-1.918 0.074219-1.1328-0.023438-0.91406-0.097656-0.67188-0.21875-0.60547-0.27344-0.61328-1.7852-2.0039-0.46094-0.63672-0.4375-0.76172-0.38281-1.1641-0.16016-0.89063-0.046875-0.82422 0.16016-1.5625 0.16016-0.80078 0.53516-1.6836 0.33984-0.78516 1.5859-2.6523 0.44531-0.88281 0.33984-1.1094 0.36328-1.7773 0.046876-1.0664-0.089844-0.90625-0.5-1.9727-0.47656-3.1055-0.38672-1.6094c-42.863 0.29297-85.719 0.58984-128.59 0.88281l-1.5625-0.13672-2.7891 0.015625-12.121-1.5117-1.7305 0.097657-1.6562 0.55859-3.4766 2.3672-5.6016 2.0625-1.543 0.86719-4.1953 3.3477-1.6094 0.74219-5.1758 1.3867-13.43 8.2617c-13.672 12.621-27.355 25.227-41.066 37.824l-5.2539 7.2383-3.4922 4.1094-0.007812 0.007813 0.007812 0.007813 1.2227 1.9727 0.62891 2.4414 0.20313 2.3711-0.99609 1.8438-6.168 4.1172-0.13672 0.4375-0.097656 0.76172-0.13672 0.84766-0.34766 0.67578-0.36328 0.25-4.9961 2.0625-0.51562 0.875-0.91406 1.2383-12.43 10.941-12.387 5.6602-16.625 12.145-0.83984 1.9062 0.51953 2.8477 1.293 0.92188 1.6992 0.51562 1.6992 1.6484 0.47656 1.4805-0.25 1.0352-0.36328 0.875 0.13672 1.043 0.70312 0.74219 0.86328 0.12891 0.72656-0.62891 0.31641-1.5117 0.90625-1.7773 6.2188-3.1133 0.83984 1.8125 3.8086-0.72656 1.3359 1.457-0.67969 0.64844-0.27344 0.44531-0.40625 1.6992 0.72656-0.78516 0.79297-0.56641 0.86328-0.33984 0.95312-0.10547-0.58984 1.707-1.1094 1.7773-1.3359 1.3828-2.5156 1.2695-1.6328 1.5586-0.99609 1.5508 0.58984 0.71094h5.9492l1.7695-0.56641 2.6289-2.4844 1.5195-0.55859 1.5859 0.42969 0.70312 1.1016-0.22656 1.4805-1.1016 1.5859-1.4492 0.76953-3.1523 0.56641-1.2695 1.293-0.6875 1.9883-0.11328 1.5938-0.38672 1.6484-1.4961 2.0859-4.1562 3.5273-1.0664 1.875-2.6055-1.875 0.47656-0.83984 0.88281-2.6836-4.7148 2.3047-1.2852 1.2344-1.0898 2.1016 0.56641 0.92969 1.4062 0.67188 1.4961 1.3828 0.54297 0.64062 1.2227 0.98438 0.47656 0.58984 0.29297 0.97656 0.023437 1.0039 0.11328 1.043 1.2695 2.5312 0.86328 3.6133 0.63672 1.6562-0.88281 2.5469-0.14453 3.0078 0.37109 3.168 0.65625 3.0391 0.81641-1.8281 0.91406-1.2539 1.043-0.37891 1.2227 0.76953-4.0664 5.9258-0.47656 2.9023 2.6289 1.957-1.8594 1.7461-3.7188 4.5781-1.957 0.92969-6.4453 1.3594-2.4727-0.46875-3.9609-1.5352-1.707 0.28906-4.9648 5.0938-1.8438 1.4297-9.9844 4.8359-3.6484 2.6758-3.3086 3.3398-4.3086 8.2227-2.2891-1.6172-1.3594-0.33984-0.58984 1.457-0.5 0.55078-6.168 2.8203-9.8477 2.1016-0.5 0.36328-0.58984 1.1719-0.023437 0.96875 0.089844 0.78516-0.13672 0.64844-0.36328 0.82422 0.023437 0.40234-0.13281 0.25-0.88672 0.30859-0.97656 0.12109-0.88281-0.28125-0.75-0.63672-0.65625-0.98828 0.22656-0.47656 0.47656-1.3086-36.66-1.793-4.375 0.92969-12 4.4453-4.332-0.03125-3.9453-1.875-6.8477-6.2266-0.47656-0.21094-2.1328-0.58203-0.023438-1.4062-2.3789-1.1562-34.203-6.4688-11.504 1.875-14.652-2.1367-29.562 4.5352-6.1875 3.0664-10.324 1.7852-12.293 4.8828-6.5312 1.1562 0.42969 2.2656 0.5 11.742-0.066406 1.4219-0.21094 1.6797-0.38672 1.1016-0.56641 1.0586-0.40625 1.3242 0.046875 1.8672 0.007813 0.039063 3.7773 2.5391 10.641 1.2852 2.5859 3.2812-0.47656 2.9023-3.3555 3.5508-0.79297 2.9414 0.40625 1.1406 1.7969 1.6562 0.40625 0.76172 0.70312 5.7266 0.51953 1.4297 2.0391 3.9062 0.51953 1.6641 0.17188 1.1172v3.0156l-0.30859 3.1133-0.9375 2.3125-1.4492 1.6992-1.9336 1.3438-7.4531 3.3555-3.5586 2.2383-2.6758 3.3086-2.0195 4.7383-1.5195 2.2734-2.0391 0.94531-0.4375 0.55859-1.5859 3.4688-1.1328 1.9062-0.51953 0.52734-1.25 0.69531-6.3008 1.918-1.9727 2.7734-5.0391 3.3086-4.7383 1.9727-0.99609 0.59766-0.65625 0.81641-0.81641 1.2109-0.97656 1.1016-2.8359 1.4453-4.4883 6.1055-5.3516 2.9922-1.5508 1.8008-1.6562 1.5273-6.5078 2.4727-7.1719 5.7344-2.6992 1.293-1.9258 1.6016-1.0703 0.4375v34.492c140.97 0.089844 281.94 0.20312 422.91 0.31641l-0.054688 1.7227 2.2969 1.7617 2.9766 1.4219 2.0469 1.4219 0.56641 2.3672 0.1875 3.2031 0.55859 2.8398 1.5781 1.2148 5.2812-0.875 1.2031 0.40625 2.0859 1.8047 2.6055 0.95312 1.3672 2.3867 0.92969 0.54297 1.1953 0.49219-0.38672 1.1797-2.1992 2.7656 1.9805 1.082 1.6836 0.60547 1.1484 1.1484 0.41406 2.7891-0.29297 1.2031-1.3008 1.0898-0.29297 1.1953 1.3008 4.8359v2.6445l-0.58984 6.5742 0.26562 1.3164 1.2109 1.1953 4.8281 10.465 1.3008 1.9805 1.6328 1.4297 4.2539 1.0664 1.1797 1.1953 0.95312 1.4219 1.3359 1.2227 2.3281 0.49219 4.6719-0.30078 1.8594 1.1484 1.2383 1.1172 1.0039 0.015625 0.92969-0.46094 1.0977-0.29297 0.74219 0.41406 0.48437 0.98828 0.75391 2.0625 0.80859 1.2305 1.457 2.7266 0.55859 2.5234c18.906 11.594 37.832 23.164 56.77 34.711 6.3008 3.8711 12.602 7.7188 18.922 11.551zm-488.96-258.88 0.97656 0.80859 1.3164 1.7305 1.5625 1.5625 1.6562 0.33984 4.9492-7.8828 0.38672-1.625-0.83984-1.2109-2.4727-0.84766-1.4961-0.73438-1.5859 0.16016-1.6758 0.46875-1.7695 0.12109 0.17188 1.8906-1.2695 4.3555zm470.77 301.82-1.2148 0.73438-1.5117 0.51562-2.1367-0.13672-1.4648-0.44531-1.1328 0.29297-1.125 2.0625-0.35547 1.9062-0.1875 3.9375-0.67969 1.8594-0.64844 0.5-0.96094 0.38672-1.0195 0.59375-0.78516 1.1016-0.15234 0.85547 0.15234 3.4023 11.387-5.9844 4.7383-4.7461 0.31641-6.5312-1.8281-0.65625zm212.44-54.426-2.6133-0.26562-1.9258 0.32422 0.36328 1.3008v0.78516l-1.9062-0.33203-1.4219-0.72656-1.0898 0.26562-0.81641 2.5859-1.8359-0.64844-1.8125 0.94531-3.6289 3.082-3.6406 1.625-2.0234 0.42969-0.85547-0.6875-0.46094-1.3359-3.0977-4.7383-1.3438-0.50781-1.0273 1.5117-0.61328 2.418-0.046875 2.2148-3.5742-3.8398-1.3164-0.79297-0.88281 0.82422-0.42969 1.3359 0.03125 0.67969-1.1641 0.38672-2.5859 1.4219h-1.1953l-0.51953-0.91406-0.46875-1.4219-0.76953-0.89062-1.4883 0.64844 0.98828 2.4336-1.457 1.457-2.4805 1.125-5.2812 4.2617-1.707 1.7617-0.24219 1.4141 0.17188 1.543-1.4648 1.1797-2.207 0.80859-2.0625 0.46094-2.0938-0.33984-1.918-0.88281-1.875-0.29297-1.9805 1.5195-0.83203-0.67969-0.95312-0.33984-1.0039-0.054688-1.0742 0.11328 0.9375-1.5781 1.7383-1.707 1.9492-1.3359 2.4023-0.81641 0.75391-0.6875 1.293-1.6094 0.24219-0.48437 0.62109-1.5195 0.5-0.57422 0.44531-0.10547 1.082 0.1875 0.42969-0.089844 2.7188-2.2891 0.90625-0.30859 0.1875 0.81641 0.78516 1.5625 0.85547 0.91406 0.41406-1.1328-0.19922-1.5938-0.29297-1.2852 0.12891-1.2148 1.1016-1.4219 0.88281-0.40234h2.0469l0.97656-0.54297-0.75391-0.35547-0.67969-0.51953-0.62109-0.73438-0.55859-0.98828 6.5664-6.2188 3.75-2.2539 1.4297 2.3672 1.2695-0.47656 1.5195-1.0039 1.2695-1.3164 0.48438-1.4297-0.51562-1.125-1.2148-0.64844-1.4961-0.21094-1.3164 0.17969-5.1836 2.5938-1.4453 1.2031-2.3203 2.8125-1.4453 1.1484-4.3086 1.2227-2.0781 0.97656-1.7695 3.2031-5.6445 2.5312-6.0625 5.9258-2.1328 0.79297-12.297 2.5703-15-0.76172-16.32-0.007812 0.50781 1.3672-0.25781 0.86328-0.88281 0.40625-1.2539-0.066407 0.53516-2.5859-1.3828-0.5-2.1328 0.61328-1.6641 0.78516 0.4375 2.0938-1.0742 1.9648-1.8242 1.4062-4.3984 1.3594-1.0195 0.046875-0.79297-0.28125-1.9062-1.1094-0.86328-0.22656-1.9727-0.26562-8.2812-3.1289h-2.0547l-0.80859 0.98828 1.6758 2.4023 1.2461-1.8125 1.4453 0.76172 0.91406 1.9062-0.35547 1.7461-1.1953 0.015625-1.707-0.72656-1.7305-0.39453-1.3242 1.1016-1.1016-0.92969-0.83203-0.88281 0.89844-2.3516-1.6641-1.5781-2.4102-0.054687-1.3984 2.2539 0.31641 1.3164 1.543 2.0859 0.089844 0.97656-0.76172 0.54297-2.4102-1.2539-1.3438-0.14453 0.24219-0.58984 0.33984-0.37109-5.0469-1.3164-5.3594 1.4492-3.25 3.9883 1.2695 6.2578-1.3828 0.17188-1.5938-1.8125-1.7305-2.5156-1.8906-1.9258-1.1797 0.92188-1.0664 1.5039-0.16016 1.3359 3.1133 1.2695 0.33984 1.4727-0.58984 1.4727-1.0977 0.67969-0.71094-0.78516-0.72656-1.6406-1.0039-1.293-1.4883 0.20312-0.63672 1.1953 0.25 3.3477-0.28125 1.543-2.2148-1.6641-3.1133-0.875-2.7344 0.58203-1.0742 2.7891-4.4883-1.0742-2.6211 1.6641-4.1055 8.0195-0.47656 0.58984-0.98828 0.58984-0.47656 0.54297-0.16016 0.33984-0.32422 0.98828-0.17188 0.37109-2.6992 3.3945-0.48438 0.96094 0.33984 2.9258 2.7578 3.2031-0.49219 2.5234 1.5508 0.089844 4.9492-1.0195 0.58984-0.32422 1.1562-0.99609 0.88281-0.39453 1.2031 0.054688 0.88281 0.42969 0.80078-0.046875 1.0117-1.293-1.2109-1.6836-0.60547-0.49219-0.79297-0.38672 0.019531-0.83984 2.6602-1.9336 1.4961-0.51562 2.0859-0.20312 1.9258 0.29297 2.5625 0.79297 1.8594 1.1016-0.17188 1.3242 0.51562 0.76953 0.13672 0.36328 0.046875 0.56641-1.8438 0.14453-12.84 4.8359-1.7305 1.1094 3.2031 0.64844 13.535-4.1484h17.312v-0.86719l-2.5703-0.50781-7.1875 0.86328-2.0547-1.2031 0.56641-1.9258 2.6758-0.58984 5.3867-0.046875 10.438-3.5273 9.8008-0.76953 2.0625-0.75391 3.5586-2.2305 6.1602-1.375 1.0273-0.54297 1.4141-1.4297 0.90625-0.54297 1.6992-0.023437 4.2227 1.3984 2.2305 0.36328 1.3164-0.54297 0.023438-1.2461-0.24219-1.4453 0.53516-1.1016 1.2031-0.27344 1.1484 0.36328 1.1562 0.51953 1.1094 0.31641 1.1406-0.13672 4.1406-1.082 1.2383-1.1016 0.97656-0.26562 6.1875-0.25 2.0312-0.58984 2.3672-1.4883 1.1562-0.23438 2.2734 1.4492 1.0977 0.27344 2.0469-0.41406 1.4219-1.1016 0.41406-1.6641-0.97656-2.0547 3.3789 0.14453 10.699-1.5195 2.2891 0.14453-0.89844 1.0742-1.8125 0.78516-4.7383 1.1484-0.58984 0.20312-0.32422 0.39453 0.20312 0.67969 0.55859 0.49219 0.4375-0.22656 0.41406-0.47656 0.51953-0.26562 0.95312-0.074219 9.8398-4.1328 6.0391-1.1953 3.7617-2.3438 1.1016-0.97656-0.054687-1.1562-0.64844-1.2227-0.22656-1.293 0.38672-1.0273 1.125-0.41406 2.4492 0.25 1.1016 0.78516-0.089844 1.3672-1.1797 1.9805 1.8594-0.29297 3.3789-1.9062 3.2734-0.73438 5.3359-2.2461 8.918-6.082 6.0078-1.6914 6.9688-3.5586 6.4609-1.5859 11.75-6.9141 1.6406-0.64844 1.3828-0.78516 0.6875-1.2109zm-14.008-22.836 1.293-0.074219 1.4062-0.60547 2.5078-2.0469 1.707-0.97656 0.30859-0.074219 0.32422-0.1875 0.28906-0.5-7.5508 0.96094-1.6562 0.77734-0.48438 1.5352 0.62109 0.875zm-77.984 63.926-5.0312 1.3281c-0.78516 0.51562-1.5625 1.043-2.3516 1.5508l-4.0352 1.2227-1.3359 0.17188-1.293 0.53516-2.8203 2.6211-1.4648 1.0664-6.2578 2.3828-9.3164 1.8047-3.1797 1.4141-3.2031 0.25-2.6055-0.63672 0.58984 1.543 3.4023-0.16797 9.2891-1.875 10.188-3.5273 3.1758-1.6484 1.5625-0.30859 6.2734-3.8398 9.0156-2.8789 1.3906-0.16016 1.1484-1.0273 3.4688-1.6406-0.011718-0.75-1.6094 0.25zm-39.84 12.453-0.023438-0.36328 0.089844-0.17188 0.4375 0.015625v-0.76953l-1.8047 0.67969-6.0156 0.089844-1.082 0.23438-0.63672 0.28906-1.5625 1.2031-2.2656 0.83984-0.70312 0.51562-1.3594 0.60547-13.934 2.3789 2.1445 1.4492 13.77-2.7734 5.6016-3.0312 7.2305-0.78516z" fill="#fff"/>
 </g>
</svg>
