<?xml version="1.0" encoding="UTF-8"?>
<svg width="100pt" height="100pt" version="1.1" viewBox="0 0 100 100" xmlns="http://www.w3.org/2000/svg">
 <g>
  <path d="m100 50c0 27.613-22.387 50-50 50s-50-22.387-50-50 22.387-50 50-50 50 22.387 50 50" fill="#007335"/>
  <path d="m45.391 39.004c-2.543 0-4.6016-2.0625-4.6016-4.5938 0-2.543 2.0625-4.5938 4.5938-4.5938 2.543 0 4.5938 2.0625 4.5938 4.5938 0.019532 2.5312-2.043 4.5938-4.5859 4.5938z" fill="#fff"/>
  <path d="m55.098 42.852c-2.418 0-4.4062 1.8672-4.5938 4.2383v-2.0898c0-1.4141-0.57031-2.6914-1.4922-3.6172-0.92578-0.92578-2.2031-1.4922-3.6172-1.4922-2.8242 0-5.1094 2.2852-5.1094 5.1094v20.082c0 2.8242 2.2852 5.1094 5.1094 5.1094 1.1016 0 2.1328-0.35547 2.9688-0.94922-0.46094-0.50781-0.73828-1.1836-0.73828-1.918l-0.003906-11.418c0-1.582 1.2891-2.8711 2.8711-2.8711h0.054687c1.582 0 2.8711 1.2891 2.8711 2.8711v11.426c0 0.81641-0.33594 1.5547-0.88672 2.0781 0.73828 0.49609 1.625 0.78906 2.5859 0.78906 2.5508 0 4.6133-2.0625 4.6133-4.6133l-0.003907-18.125c-0.019531-2.5391-2.082-4.6094-4.6289-4.6094zm-1.9727 7.0195c0 1.4219-1.1562 2.5859-2.5859 2.5859h-0.042968c-1.4219 0-2.5781-1.1562-2.5781-2.5859v-0.042969c0-1.4219 1.1562-2.5781 2.5859-2.5781h0.042969c1.4219 0 2.5859 1.1562 2.5859 2.5781v0.042969z" fill="#fff"/>
  <path d="m55.098 41.926c-2.293 0-4.1484-1.8555-4.1484-4.1484 0-2.293 1.8555-4.1484 4.1484-4.1484 2.293 0 4.1484 1.8555 4.1484 4.1484 0 2.293-1.8594 4.1484-4.1484 4.1484z" fill="#fff"/>
 </g>
</svg>
