<?xml version="1.0" encoding="UTF-8"?>
<svg width="100pt" height="100pt" version="1.1" viewBox="0 0 100 100" xmlns="http://www.w3.org/2000/svg">
 <g>
  <path d="m5 0h90c2.7617 0 5 2.7617 5 5v90c0 2.7617-2.2383 5-5 5h-90c-2.7617 0-5-2.7617-5-5v-90c0-2.7617 2.2383-5 5-5z" fill="#4c25e0"/>
  <path d="m50.004 19.16c-9.3164 4.125-18.465 8.832-27.891 8.832 0.30859 35.895 0.25 35.922 27.891 52.352 27.734-16.43 27.797-16.461 27.887-52.352-10.754 0-19.457-5.1289-27.887-8.832zm-0.027344 10.812c0.42578-0.003906 0.83594 0.16016 1.1367 0.46094 0.30078 0.30078 0.46875 0.71094 0.46094 1.1367v16.609h16.609c0.42188-0.003907 0.82812 0.16016 1.125 0.45312 0.30078 0.29688 0.46875 0.69922 0.46875 1.1211s-0.16797 0.82422-0.46875 1.1211c-0.29688 0.29688-0.70312 0.46094-1.125 0.45312h-16.609v16.609c0.003906 0.42188-0.15625 0.82812-0.45312 1.1289-0.29688 0.29688-0.69922 0.46875-1.1211 0.46875s-0.82422-0.17188-1.1211-0.46875c-0.29688-0.30078-0.45703-0.70703-0.45312-1.1289v-16.609h-16.609c-0.42188 0.007813-0.82812-0.15625-1.1289-0.45312-0.29688-0.29688-0.46484-0.69922-0.46484-1.1211s0.16797-0.82422 0.46484-1.1211c0.30078-0.29297 0.70703-0.45703 1.1289-0.45312h16.609v-16.609c-0.011719-0.86719 0.67969-1.582 1.5508-1.5977z" fill="#fff"/>
 </g>
</svg>
