<?xml version="1.0" encoding="UTF-8"?>
<svg width="1200pt" height="1200pt" version="1.1" viewBox="0 0 1200 1200" xmlns="http://www.w3.org/2000/svg">
 <g>
  <rect width="1200" height="1200" fill="#364573"/>
  <path d="m335.5 512.34c0.75391 0.75391 1.5117 2.2656 0.75391 3.7773-1.5117 1.5117-2.2656 1.5117-1.5117 3.7773 0.75391 1.5117 1.5117 3.0234 1.5117 4.5352 0 6.0469-2.2656 3.0234-5.2891 3.7773-3.7773 0.75391-2.2656 3.7773 0.75391 5.2891 1.5117 1.5117 2.2656 1.5117 2.2656 3.7773-1.5117 0-3.7773 1.5117-5.2891 0.75391-2.2656-0.75391-3.7773-1.5117-6.8008-0.75391 0 3.7773 4.5352 6.8008 6.8008 9.0703-1.5117 1.5117-7.5586 3.0234-8.3125 5.2891 0 3.7773-2.2656 5.2891-4.5352 7.5586 0 3.7773 0 2.2656 1.5117 5.2891l2.2656 2.2656c0 1.5117 0 2.2656 0.75391 3.7773-2.2656 0-3.0234-1.5117-5.2891-1.5117-1.5117-1.5117-4.5352 0-4.5352 2.2656l1.5117 1.5117c0.75391 0 2.2656 0.75391 3.0234 1.5117 0 0.75391 0 1.5117 0.75391 2.2656-1.5117 1.5117-3.0234 2.2656-4.5352 0.75391-2.2656-1.5117-4.5352 4.5352-6.8008 4.5352-1.5117 0.75391-3.0234 0-4.5352-0.75391-3.7773 0-6.0469 3.0234-3.7773 6.0469 1.5117 3.0234 3.7773 2.2656 6.0469 2.2656 0.75391 1.5117 0.75391 2.2656 0 3.7773-1.5117 0.75391-3.7773 1.5117-5.2891 1.5117-1.5117 0.75391-2.2656 0.75391-1.5117 2.2656 0 2.2656 1.5117 2.2656 3.0234 3.7773-0.75391 1.5117-0.75391 3.0234-2.2656 2.2656l-1.5117-1.5117c0-5.2891-9.0703-3.7773-6.8008 3.7773 0 2.2656 4.5352 3.0234 1.5117 6.0469-1.5117 0.75391-3.0234 1.5117-3.7773 2.2656l-3.0195 0.76953c1.5117-1.5117 0.75391-6.8008-1.5117-6.8008-2.2656 0.75391-9.8242 9.0703-3.7773 9.0703v-3.0234c1.5117 0 1.5117-0.75391 2.2656 0.75391l2.2656 2.2656c-0.75391 1.5117-1.5117 2.2656-2.2656 3.7773-0.75391 0.75391 0 2.2656 0 3.0234-1.5117 0-5.2891 0-4.5352 2.2656 0 2.2656 0 2.2656 2.2656 3.0234 0.75391 0 2.2656 0.75391 2.2656 1.5117 0.75391 3.0234 0.75391 5.2891 1.5117 8.3125 0 0.75391 0 2.2656-0.75391 3.0234l-2.2656 1.5117c-0.75391-0.75391-2.2656-1.5117-3.0234-2.2656-4.5352 0-3.0234 5.2891-4.5352 8.3125-1.5117 1.5117-4.5352 0.75391-6.8008 0.75391-1.5117 0-1.5117-0.75391-3.0234 0.75391-0.75391-0.75-0.75391 1.5156-0.75391 1.5156l163.99 17.383v-0.75391l303.04 24.938 3.7773-23.426 5.2891-3.7773c2.2656 0 3.0234 5.2891 6.0469 2.2656 0.75391 0 1.5117 0.75391 2.2656 0.75391 2.2656-2.2656 6.0469-2.2656 8.3125-4.5352-0.75391-2.2656-1.5117-3.7773 0-6.0469 0.75391-1.5117 1.5117-1.5117 0.75391-3.0234 0-3.0234 2.2656-6.0469 4.5352-7.5586 2.2656-1.5117 5.2891-0.75391 5.2891-3.7773 0-0.75391 10.578-5.2891 11.336-5.2891 3.0234 0 6.0469 0.75391 9.0703 0 1.5117 0 2.2656-0.75391 3.0234-1.5117 1.5117 0 3.0234 0.75391 4.5352 1.5117 3.7773 0 3.7773-1.5117 6.8008-3.7773 3.0234-2.2656 7.5586-2.2656 9.0703-6.8008 0.75391-0.75391 3.0234 0.75391 3.7773 0 2.2656-0.75391 1.5117-1.5117 3.0234-3.0234 1.5117-1.5117 0-3.0234 2.2656-3.7773 1.5117-0.75391 2.2656 0.75391 3.7773 0 2.2656-1.5117 2.2656-3.7773 5.2891-4.5352 1.5117-0.75391 3.0234-0.75391 4.5352 0 1.5117 0 3.7773 2.2656 4.5352 1.5117 1.5117-1.5117 6.0469-7.5586 6.8008-9.8242 0.75391-1.5117 0-3.7773-0.75391-5.2891h1.5117c0.75391-1.5117 2.2656-3.0234 3.7773-2.2656 3.0234 3.0234 3.0234 0.75391 4.5352-1.5117s3.0234-3.7773 5.2891-6.0469c1.5117-0.75391 3.7773-3.0234 5.2891-3.0234 2.2656 0 2.2656 3.0234 3.7773 3.0234-3.7773 3.7773-0.75391 6.0469 2.2656 7.5586 0.75391 0 2.2656-0.75391 3.0234-1.5117 6.8008-3.0234 8.3125-12.09 15.871-14.359h4.5352c1.5117 0 2.2656-1.5117 3.7773-2.2656 3.7773-1.5117 5.2891 0 6.8008 3.7773 5.2891 5.2891 13.602-10.578 15.871-13.602 2.2656-4.5352 3.0234-6.8008 7.5586-9.0703 5.2891-2.2656 4.5352 0.75391 9.8242 0.75391-1.5117-3.0234-2.2656-5.2891-1.5117-8.3125 0.75391-1.5117 2.2656-3.7773 2.2656-4.5352 0-2.2656-0.75391-4.5352-0.75391-6.8008 1.5117-2.2656 2.2656-3.7773 3.0234-6.0469 0.75391-0.75391 1.5117-1.5117 2.2656-2.2656-6.0469 0-20.402-1.5117-20.402-0.75391 0 0.75391 0 1.5117-0.75391 1.5117-0.75391 1.5078-118.64-2.2695-133-3.7812l-2.2695 5.2891s-100.51-6.8008-120.16-11.336h-18.895l-75.57-9.0703-3.0234 0.75391-0.75391-0.75391-0.75391 0.75391-2.2656-2.2656-95.977-6.8008v-3.0234l-16.625-1.5078 1.5117 14.359-0.75391 3.0234h-0.75781l-94.465-10.578h-9.0703c-1.5117 1.5117-2.2656 2.2656-4.5352 3.7773-0.75391 0-1.5117-0.75391-1.5117-1.5117 0-0.75391 0.75391-2.2656 0.75391-3.0234z" fill="#fff"/>
 </g>
</svg>
