<svg xmlns="http://www.w3.org/2000/svg" xmlns:xlink="http://www.w3.org/1999/xlink" width="100" height="100" viewBox="0 0 100 100"><rect width="100%" height="100%" fill="#374574"></rect><g transform="translate(50 50) scale(0.69 0.69) rotate(0) translate(-50 -50)" style="fill:#ffffff"><svg fill="#ffffff" xmlns="http://www.w3.org/2000/svg" xmlns:xlink="http://www.w3.org/1999/xlink" version="1.1" x="0px" y="0px" viewBox="0 0 100 100" enable-background="new 0 0 100 100" xml:space="preserve"><path d="M7.457,1.178c0.011,0.209,0.207,0.397,0.196,0.613c-0.008,0.19-0.044,0.46-0.096,0.649C7.505,2.635,7.448,2.893,7.356,3.067  C7.301,3.172,7.2,3.226,7.169,3.333C7.036,3.791,7.802,3.866,8.076,4.056c0.018,0.303,0.069,0.525,0.156,0.815  c0.087,0.291,0.136,0.656,0.287,0.918c0.098,0.017,0.458,0.165,0.39,0.31C8.842,6.24,8.634,6.026,8.541,6.124  C8.45,6.218,8.704,6.826,8.711,6.962c0.025,0.468-0.087,0.922-0.148,1.38C8.531,8.6,8.481,8.852,8.385,9.094  c-0.113,0.283-0.16,0.582-0.273,0.862C8.05,9.921,7.99,9.943,7.928,9.942c0.013,0.287-0.174,0.611,0.02,0.857  c0.215,0.272,0.46,0.107,0.48,0.509c0.015,0.298-0.017,0.755-0.131,1.031c-0.103,0.25-0.408,0.379-0.301,0.679  c0.158,0.026,0.428-0.092,0.547,0.027c0.104,0.104,0.073,0.318-0.005,0.417c-0.204,0.254-0.629-0.002-0.873,0.223  c-0.228,0.212-0.129,0.567-0.153,0.828c-0.022,0.25-0.138,0.191-0.312,0.262c-0.211,0.084-0.314,0.27-0.467,0.437  c-0.277,0.303-0.34,0.616-0.506,0.997c-0.154,0.354-0.381,0.8-0.283,1.198c0.068,0.279,0.279,0.457,0.305,0.767  c0.023,0.279-0.17,0.511-0.126,0.791c0.049,0.326,0.343,0.479,0.58,0.671c0.252,0.204,0.439,0.458,0.702,0.632  c0.292,0.196,0.647,0.333,0.916,0.565c0.227,0.195,0.166,0.43,0.175,0.71c0.143,0.063,0.318,0.063,0.457,0.135  c0.104,0.054,0.17,0.15,0.262,0.238c0.244,0.233,0.381,0.391,0.531,0.693c0.171,0.345,0.317,0.684,0.589,0.965  c0.243,0.253,0.272,0.318,0.272,0.696c0,0.099-0.038,0.287-0.001,0.373c0.068,0.156,0.302,0.228,0.395,0.385  c0.162,0.277,0.06,0.588,0.13,0.877c0.065,0.27,0.297,0.514,0.196,0.808c-0.046,0.135-0.175,0.232-0.223,0.37  c-0.031,0.09-0.038,0.192-0.06,0.283c-0.089,0.359-0.22,0.687-0.176,1.056c0.048,0.401,0.174,0.787,0.307,1.167  c0.189,0.542,0.422,1.203,0.719,1.697c0.16,0.267,0.197,0.429,0.065,0.726c-0.093,0.209-0.271,0.345-0.358,0.558  c-0.129,0.312,0.221,0.587,0.415,0.828c0.193,0.239,0.407,0.49,0.643,0.704c0.284,0.257,0.619,0.442,0.879,0.717  c0.525,0.554,0.989,1.191,1.513,1.727c0.494,0.504,1.056,0.906,1.59,1.374c0.197,0.173,0.391,0.358,0.512,0.593  c0.094,0.181,0.123,0.345,0.104,0.555c-0.008,0.082-0.147,0.383-0.105,0.352c0.322-0.102,0.424-0.194,0.672,0.069  c0.155,0.165,0.228,0.379,0.348,0.561c0.133,0.201,0.311,0.359,0.437,0.585c0.084,0.151,0.16,0.295,0.256,0.438  c0.079,0.118,0.262,0.28,0.288,0.408c-0.585-0.149-0.73-1.113-1.111-1.257c0.166,0.307,0.225,0.423,0.147,0.779  c-0.044,0.197-0.095,0.388-0.141,0.583c-0.07,0.297-0.195,0.425-0.355,0.682c-0.193,0.312-0.022,0.267,0.242,0.332  c0.139,0.034,0.288,0.139,0.37-0.005c0.051-0.089-0.022-0.294-0.022-0.388c0-0.186,0.051-0.343,0.17-0.487  c0.106,0.409,0.706,0.701,1.009,0.966c0.217,0.187,0.375,0.395,0.561,0.609c0.243,0.28,0.305,0.161,0.63,0.235  c0.417,0.095,0.78,0.231,1.072,0.508c0.182,0.172,0.17,0.448,0.484,0.261c0.157-0.095,0.125-0.282,0.07-0.542  c0.216-0.002,0.396,0.249,0.64,0.151c-0.131-0.085-0.213-0.233-0.343-0.331c-0.184-0.139-0.461-0.124-0.454-0.389  c0.011-0.404,0.458-0.41,0.428-0.78c-0.962-0.024,0.187-0.686-0.213-1.024c0.158,0,0.254-0.038,0.388-0.112  c0.163-0.09,0.245-0.288,0.417-0.329c0.434-0.103,0.636,0.605,0.935,0.604c-0.04-0.178-0.044-0.359-0.079-0.536  c-0.043-0.222-0.172-0.403-0.111-0.633c0.179,0.263,0.141,0.556,0.241,0.846c0.035,0.101,0.103,0.296,0.194,0.354  c0.089,0.058,0.211,0.038,0.307,0.08c0.381,0.166,0.544,0.433,0.928,0.155c0.342-0.25,0.416-0.433,0.484-0.824  c0.147,0,0.522,0.02,0.566,0.195c0.034,0.133-0.121,0.26-0.108,0.406c0.222,0.053,0.447,0.054,0.665,0.1  c0.273,0.059,0.508,0.219,0.77,0.285c0.262,0.065,0.642,0.134,0.902,0.053c0.165-0.05,0.271-0.211,0.429-0.249  c0.159,1.393-2.762-0.177-3.221,0.062c-0.215,0.113-0.501,0.517-0.747,0.483c-0.252-0.034-0.381-0.404-0.628-0.443  c-0.196-0.031-0.297,0.111-0.434,0.22c-0.263,0.211-0.479,0.3-0.828,0.24c-0.005,0.201-0.057,0.385-0.242,0.495  c-0.184,0.11-0.28,0.031-0.187,0.271c0.059,0.151,0.167,0.261,0.323,0.305c0.239,0.07,0.352,0.083,0.47,0.322  c0.181,0.37-0.264,0.641,0.111,0.929c-0.012-0.003-0.024-0.009-0.035-0.015c0.679,0.202,1.142,0.866,1.257,1.547  c0.066,0.393,0.182,0.915,0.451,1.226c0.247,0.285,0.583,0.399,0.872,0.601c-0.072,0.078-0.129,0.067-0.224,0.097  c-0.252,0.079-0.443-0.023-0.663-0.163c-0.231-0.146-0.482-0.304-0.697-0.47c-0.238-0.183-0.444-0.434-0.718-0.567  c-0.236-0.114-0.467-0.093-0.681-0.266c-0.39-0.319-0.359-0.81-0.122-1.232c0.072-0.128,0.169-0.14,0.149-0.319  c-0.012-0.115-0.116-0.287-0.177-0.39c-0.122-0.207-0.39-0.425-0.651-0.392c-0.325,0.041-0.583,0.4-0.612,0.699  c-0.024,0.245,0.086,0.417,0.158,0.636c0.192,0.586-0.166,0.966-0.18,1.523c-0.003,0.138,0.007,0.27,0.108,0.375  c0.128,0.131,0.249,0.037,0.368,0.129c0.151,0.118,0.163,0.549,0.226,0.73c0.118,0.341,0.231,0.606,0.213,0.967  c-0.021,0.4-0.043,0.889,0,1.283c0.027,0.252,0.189,0.465,0.396,0.611c0.377,0.267,0.69,0.545,1.026,0.874  c0.256,0.25,0.574,0.408,0.854,0.627c0.242,0.189,0.457,0.398,0.775,0.439c0.239,0.031,0.56,0.031,0.774-0.07  c0.268-0.125,0.429-0.193,0.681,0.049c0.201,0.191,0.259,0.502,0.401,0.734c0.072,0.117,0.193,0.178,0.265,0.275  c0.089,0.119,0.073,0.299,0.171,0.428c0.124,0.16,0.113,0.133,0.045,0.311c-0.1,0.266-0.127,0.469-0.136,0.775  c-0.01,0.297,0.044,0.604-0.174,0.826c-0.328,0.336-0.552,0.225-0.853-0.061c-0.153,0.1-0.262,0.309-0.363,0.465  c-0.122,0.186-0.128,0.213,0.083,0.316c0.177,0.088,0.352,0.053,0.256,0.32c-0.082,0.229-0.218,0.168-0.401,0.229  c0.352,0.525,0.508,1.24,0.628,1.865c0.117,0.613,0.708,0.824,1.202,1.115c0.606,0.359,0.977,0.842,1.268,1.473  c0.053,0.115,0.101,0.234,0.162,0.346c0.103,0.184,0.122,0.172,0.327,0.213c0.33,0.07,0.453,0.207,0.565,0.529  c0.096,0.275,0.11,0.574,0.247,0.844c0.137,0.27,0.331,0.441,0.57,0.643c0.441,0.369,0.53,0.865,0.819,1.318  c0.162,0.34,0.138,0.359,0.521,0.475c0.236,0.072,0.441,0.131,0.612,0.316c0.21,0.227,0.404,0.494,0.603,0.744  c0.184,0.229,0.278,0.547,0.465,0.77c0.283,0.332,0.767,0.133,1.102,0.338c0.193,0.119,0.435,0.549,0.484,0.758  c0.055,0.232-0.041,0.504-0.218,0.652c-0.188,0.154-0.127,0.328-0.127,0.504c0,0.281,0.366,0.494,0.692,0.719  c0.154,0.105,0.367,0.316,0.508,0.287c0.094-0.018,0.185-0.143,0.304-0.158c0.122-0.016,0.259,0.033,0.37,0.072  c0.235,0.082,0.455,0.234,0.519,0.492c0.079,0.314-0.04,0.768-0.125,1.07c-0.071,0.256-0.232,0.424-0.262,0.705  c-0.029,0.264-0.029,0.344,0.186,0.51c0.259,0.203,0.473,0.443,0.339,0.812c-0.088,0.246-0.384,0.301-0.286,0.594  c0.076,0.227,0.255,0.365,0.284,0.621c0.048,0.426-0.745,1.213-0.108,1.508c0.182,0.086,0.474,0.014,0.646,0.162  c0.087,0.076,0.221,0.354,0.301,0.461c0.083,0.111,0.195,0.461,0.295,0.518c0.194,0.111,0.789-0.072,1.035-0.094  c0.318-0.027,0.608-0.012,0.927,0.002c0.578,0.025,1.157-0.014,1.732,0.031c0.541,0.043,0.865,0.402,1.335,0.457  c0.214,0.025,0.418-0.023,0.624-0.041c0.358-0.033,0.359,0.1,0.648,0.205c0.136,0.049,0.332,0.051,0.468,0.002  c0.085-0.031,0.065-0.133,0.159-0.166c0.184-0.066,0.482-0.062,0.66-0.01c0.192,0.059,0.348,0.225,0.546,0.305  c0.25,0.1,0.527,0.117,0.758,0.27c0.333,0.223,0.562,0.531,0.949,0.68c0.424,0.162,0.503,0.348,0.685,0.781  c0.155,0.371,0.173,0.66,0.543,0.854c0.544,0.281,1.125,0.498,1.716,0.65c0.274,0.072,0.462,0.176,0.719,0.254  c0.135,0.041,0.339-0.012,0.458,0.039c0.077,0.037,0.101,0.133,0.171,0.158c0.325,0.125,0.478-0.029,0.839-0.059  c0.463-0.037,1.203-0.066,1.672,0.031c0.293,0.061,0.746,0.607,0.873,0.9c0.05,0.113-0.07,0.254,0.032,0.338  c0.206,0.172,0.147,0.564,0.368,0.828c-0.334,0.273-0.827,0.518-0.185,0.818c0.172,0.082,0.331,0.049,0.508,0.166  c0.178,0.117,0.256,0.293,0.453,0.346c0.193-0.127,0.516-1.084,0.867-0.453c0.485-0.623,0.713,0.184,0.992,0.461  c0.187,0.186,0.546,0.277,0.77,0.414c0.231,0.141,0.421,0.342,0.658,0.479c0.007-0.082-0.018-0.537,0.197-0.391  c0.15,0.104,0.03,0.363,0.103,0.492c0.244,0.439,0.824,0.521,1.157,0.814c0.173,0.152,0.114,0.289,0.227,0.436  c0.123,0.164,0.215,0.107,0.362,0.223c0.18,0.141,0.217,0.256,0.437,0.383c0.169,0.096,0.381,0.191,0.533,0.324  c0.332,0.285,0.588,0.725,0.864,1.066c0.31,0.385,0.75,0.783,0.94,1.283c0.205,0.547,0.492,1.072,0.648,1.654  c0.117,0.436,0.046,0.945,0.196,1.357c-0.184,0.047-0.312,0.303-0.237,0.5c0.088,0.232,0.61,0.168,0.642,0.369  c0.017,0.121-0.343,0.195-0.412,0.379c-0.085,0.227,0.084,0.631,0.259,0.795c0.106-0.465,0.309-0.691,0.69-0.244  c0.145,0.17,0.381,0.559,0.373,0.771c-0.015-0.004-0.084,0-0.1,0.004c-0.027-0.225-0.181-0.404-0.348-0.535  c-0.193,0.195,0.085,0.412,0.179,0.623c0.104,0.232,0.047,0.527,0.047,0.787c2.239-0.455,20.523-1.896,20.523-1.896  c0.027-0.148,0.096-0.268,0.221-0.299c0.154,0.35,1.303-0.092,1.505-0.338c0.12-0.146,0.018-0.219,0.096-0.389  c0.103-0.225,0.47-0.477,0.495-0.76c0.019-0.217-0.12-0.383-0.254-0.537c0.094-0.078,0.177-0.184,0.235-0.305  c-0.021-0.068-0.032-0.15-0.054-0.215c-0.214-0.627-0.994-0.264-1.452-0.496c-0.456-0.234-0.427-0.719-0.326-1.121  c0.069-0.277,0.307-0.977,0.184-1.232c-0.139-0.287-0.708-0.189-0.768-0.523c-0.057-0.312,0.254-0.209,0.375-0.426  c0.102-0.18-0.084-0.383-0.033-0.494c0.079-0.164,0.362-0.123,0.499-0.186c0.418-0.193,0.359-0.59,0.602-0.947  c0.163-0.242,0.328-0.314,0.382-0.609c0.037-0.205-0.012-0.438-0.001-0.646c0.021-0.381,0.013-0.668,0.407-0.822  c-0.037-0.172-0.1-0.439-0.17-0.592c-0.065-0.139-0.226-0.254-0.279-0.402c-0.119-0.332,0.049-0.629,0.382-0.662  c0.003-0.074-0.038-0.223-0.078-0.285c-0.882-0.068-0.052-0.756,0.271-1.057c0.196-0.184,0.246-0.227,0.35-0.49  c0.264-0.664,0.866-0.527,1.207-1.123c0.06,0.049,0.144,0.047,0.203,0.121c0.234-0.24,0.404-0.549,0.639-0.785  c0.122-0.121,0.425-0.242,0.495-0.357c0.257-0.424-0.189-0.834-0.467-1.014c-0.367-0.238-0.663-0.484-0.993-0.789  c-0.075-0.068-0.052-0.197-0.142-0.24c-0.071-0.035-0.195,0.037-0.269,0.002c-0.271-0.131-0.146,0.014-0.225-0.295  c-0.046-0.18,0.017-0.404-0.037-0.576c-0.052-0.162-0.183-0.236-0.23-0.379c-0.053-0.156-0.072-0.311-0.124-0.447  c-0.045-0.119-0.09-0.256-0.142-0.389c-0.26-0.67-0.821-1.033-1.11-1.672c-0.143-0.314-0.347-0.408-0.369-0.795  c-0.02-0.35-0.003-0.691-0.003-1.043c0,0-16.735-15.688-24.35-22.381c-7.612-6.695-21.791-18.837-21.791-18.837V1.178H7.457z"></path><path d="M55.63,93.582c0.233,0.047,0.488,0.547,0.673,0.746c0.243,0.26,0.521,0.438,0.795,0.652  c0.377,0.291,1.283,0.943,0.261,0.875c0,0.051-0.012,0.107-0.013,0.16c-0.487-0.32-0.73-0.65-1.001-1.145  C56.154,94.523,55.561,94.043,55.63,93.582z"></path><path d="M55.613,89.025c0.152,0.053,0.299,0.01,0.459,0.016c0.224,0.01,0.285,0.094,0.458,0.213  c0.116,0.078,0.265,0.174,0.396,0.209c0.108,0.031,0.232,0.004,0.338,0.043c0.106,0.041,0.161,0.121,0.233,0.201  c0.147,0.174,0.287,0.309,0.457,0.461c0.256,0.227,0.3,0.363,0.238,0.701c-0.053,0-0.146,0.039-0.193,0.021  c-0.09-0.035-0.106-0.15-0.182-0.203c-0.148-0.104-0.427-0.068-0.621-0.096c-0.284-0.043-0.454-0.1-0.638-0.309  c0.116-0.053,0.221-0.291,0.195-0.404c-0.028-0.131-0.268-0.281-0.378-0.344C56.149,89.406,55.661,89.338,55.613,89.025z"></path><path d="M51.87,89.189c0.089,0.037,0.228,0.143,0.315,0.098c-0.066-0.098-0.021-0.396-0.136-0.438  c-0.036-0.014-0.141,0.049-0.16,0.084C51.836,89.035,51.824,89.104,51.87,89.189z"></path><path d="M47.507,91.053c0.107,0,0.217-0.004,0.324,0.002c0.157,0.26,0.443,0.346,0.703,0.471c-0.019,0.053-0.062,0.104-0.081,0.162  c-0.405,0.021-0.985-0.125-1.254-0.441C47.333,91.168,47.369,91.125,47.507,91.053z"></path><path d="M47.849,83.328c-0.174,0.016-0.247,0.225-0.364,0.336c-0.159,0.148-0.214,0.084-0.441,0.055  c-0.493-0.066-0.703,0.418-1.161,0.457c-0.269,0.025-1.065-0.066-1.218-0.395c-0.068-0.145,0.051-0.26,0.015-0.412  c-0.044-0.184-0.296-0.309-0.468-0.307c-0.01-0.299,0.731-0.031,0.869-0.02c0.379,0.033,0.812-0.018,1.151,0.201  c0.142,0.092,0.191,0.27,0.375,0.299c0.209,0.037,0.419-0.111,0.54-0.232c0.125-0.125,0.115-0.197,0.354-0.158  C47.625,83.174,47.727,83.348,47.849,83.328z"></path><path d="M43.97,84.133c-0.181,0.039-0.173-0.189-0.108-0.305c-0.077-0.008-0.167,0.025-0.235,0.018  c-0.093-0.01-0.187-0.07-0.288-0.086c-0.005-0.133,0.021-0.412-0.108-0.477c-0.194,0.197-0.403,0.117-0.658,0.107  c-0.196-0.006-0.228,0.037-0.385,0.109c-0.219,0.104-0.441,0.072-0.675,0.133c0.22,0.037,0.3,0.48,0.404,0.648  c0.141,0.227,0.316,0.361,0.575,0.441c0.394,0.117,0.468-0.057,0.737-0.277C43.424,84.283,43.717,84.123,43.97,84.133z"></path><path d="M40.418,83.043c0.13,0.002,0.3-0.062,0.42-0.008c0.079,0.035,0.288,0.277,0.341,0.348c-0.156,0.084-0.58,0.145-0.759,0.115  c0-0.32-0.418-0.205-0.629-0.219c0.139-0.117,0.45-0.264,0.624-0.299C40.42,83.004,40.416,83.021,40.418,83.043"></path><path d="M48.481,83.371c0.095,0.104,0.269,0.174,0.396,0.156C49,83.51,49.064,83.389,49.176,83.4  c0.073,0.322-0.744,0.416-0.757,0.039C48.444,83.434,48.459,83.379,48.481,83.371z"></path></svg></g></svg>