<svg width="133" height="133" xmlns="http://www.w3.org/2000/svg" xmlns:xlink="http://www.w3.org/1999/xlink" xml:space="preserve" overflow="hidden"><defs><clipPath id="clip0"><rect x="0" y="0" width="133" height="133"/></clipPath><clipPath id="clip1"><rect x="24" y="24" width="85" height="27"/></clipPath><clipPath id="clip2"><rect x="31" y="57" width="71" height="52"/></clipPath></defs><g clip-path="url(#clip0)"><path d="M6.65 0 126.35 0C130.023 0 133 3.67306 133 6.65L133 126.35C133 130.023 130.023 133 126.35 133L6.65 133C2.97694 133 0 129.327 0 126.35L0 6.65C0 2.97694 2.97694 0 6.65 0Z" stroke="#000000" stroke-width="1.33" fill="#00BAC2"/><g clip-path="url(#clip1)"><path d="M24.621 49.75 66.5 24.6196 108.379 49.75" stroke="#000000" stroke-width="1.33" fill="#FFFFFF"/></g><g clip-path="url(#clip2)"><path d="M32.996 58.125 32.996 108.379 58.1263 108.379 58.1263 87.4422C58.1263 84.9277 59.7992 83.2548 62.3137 83.2548L70.6886 83.2548C73.2031 83.2548 74.8759 84.9277 74.8759 87.4422L74.8759 108.379 100.006 108.379 100.006 58.125ZM49.7513 91.629 41.3712 91.629 41.3712 83.2541 49.7461 83.2541ZM49.7513 74.8737 41.3712 74.8737 41.3712 66.4988 49.7461 66.4988ZM70.6882 74.8737 62.3133 74.8737 62.3133 66.4988 70.6882 66.4988ZM91.6303 91.629 83.2555 91.629 83.2555 83.2541 91.6303 83.2541ZM91.6303 74.8737 83.2555 74.8737 83.2555 66.4988 91.6303 66.4988Z" stroke="#000000" stroke-width="1.33" fill="#FFFFFF"/></g></g></svg>