<svg width="20" height="20" xmlns="http://www.w3.org/2000/svg" xmlns:xlink="http://www.w3.org/1999/xlink" xml:space="preserve" overflow="hidden"><defs><clipPath id="clip0"><rect x="0" y="0" width="20" height="20"/></clipPath><clipPath id="clip1"><rect x="3" y="3" width="14" height="5"/></clipPath><clipPath id="clip2"><rect x="4" y="8" width="12" height="9"/></clipPath></defs><g clip-path="url(#clip0)"><path d="M1 0 19 0C19.5523 0 20 0.55234 20 1L20 19C20 19.5523 19.5523 20 19 20L1 20C0.44766 20 0 19.4477 0 19L0 1C0 0.44766 0.44766 0 1 0Z" stroke="#000000" stroke-width="0.2" fill="#FFD65B"/><g clip-path="url(#clip1)"><path d="M3.7024 7.4812 10 3.7022 16.2976 7.4812" stroke="#000000" stroke-width="0.2" fill="#FFFFFF"/></g><g clip-path="url(#clip2)"><path d="M4.9618 8.7406 4.9618 16.2976 8.7408 16.2976 8.7408 13.1492C8.7408 12.7711 8.99236 12.5195 9.37048 12.5195L10.6299 12.5195C11.008 12.5195 11.2595 12.7711 11.2595 13.1492L11.2595 16.2976 15.0385 16.2976 15.0385 8.7406ZM7.4814 13.7788 6.22124 13.7788 6.22124 12.5194 7.48062 12.5194ZM7.4814 11.2592 6.22124 11.2592 6.22124 9.99982 7.48062 9.99982ZM10.6298 11.2592 9.37042 11.2592 9.37042 9.99982 10.6298 9.99982ZM13.779 13.7788 12.5196 13.7788 12.5196 12.5194 13.779 12.5194ZM13.779 11.2592 12.5196 11.2592 12.5196 9.99982 13.779 9.99982Z" stroke="#000000" stroke-width="0.2" fill="#FFFFFF"/></g></g></svg>