<svg width="133" height="133" xmlns="http://www.w3.org/2000/svg" xmlns:xlink="http://www.w3.org/1999/xlink" xml:space="preserve" overflow="hidden"><defs><clipPath id="clip0"><rect x="0" y="0" width="133" height="133"/></clipPath></defs><g clip-path="url(#clip0)"><path d="M6.65 0 126.35 0C130.023 0 133 3.67306 133 6.65L133 126.35C133 130.023 130.023 133 126.35 133L6.65 133C2.97694 133 0 129.327 0 126.35L0 6.65C0 2.97694 2.97694 0 6.65 0Z" stroke="#000000" stroke-width="1.33" fill="#00FFFF"/><path d="M64.759 29.6497 64.759 42.2639 50.939 55.1691C50.7468 55.3457 50.6273 55.5899 50.6273 55.8497L50.6792 63.5699 36.3086 73.228C36.0488 73.4046 35.8878 73.7007 35.8878 74.0125L35.7838 102.384C35.7838 102.888 36.2462 103.33 36.7502 103.324L53.7901 103.22C54.3928 103.231 59.3751 103.298 61.9832 103.298L61.9832 101.49 62.0092 83.8732C63.1729 82.1535 64.2015 81.0573 65.0172 80.5223 65.8745 79.9664 66.4459 79.9144 67.033 80.0755 68.1552 80.3924 69.4799 82.0081 70.7736 83.8733L70.7736 101.802C70.7736 101.88 70.784 101.958 70.7996 102.035L70.8256 103.319C73.1582 103.34 77.8756 103.319 78.9926 103.319 83.9021 103.376 90.7963 103.282 96.2666 103.319 96.7654 103.319 97.2069 102.877 97.2069 102.378L97.103 74.0068C97.103 73.6951 96.9472 73.3938 96.6822 73.2223L81.3979 62.9356C81.4238 62.8524 81.4446 62.7641 81.4498 62.6758 81.5641 60.2807 81.4498 57.9169 81.4498 55.6102 81.4498 55.34 81.3407 55.0802 81.1381 54.9036L66.6637 42.1283 66.6637 35.3484 72.3682 35.3484C72.867 35.3484 73.3085 34.9068 73.3085 34.408L73.3085 30.6102C73.3085 30.1114 72.867 29.6698 72.3682 29.6698L66.2169 29.6698 66.113 29.6698C65.9364 29.6906 65.7286 29.6283 65.5883 29.6439L64.7519 29.6439Z" stroke="#000000" stroke-width="1.33"/></g></svg>