<svg xmlns="http://www.w3.org/2000/svg" xmlns:xlink="http://www.w3.org/1999/xlink" version="1.1" width="1000" height="1000" viewBox="0 0 1000 1000" xml:space="preserve">
<desc>Created with Fabric.js 3.5.0</desc>
<defs>
</defs>
<rect x="0" y="0" width="100%" height="100%" fill="rgba(255,255,255,0)"/>
<g transform="matrix(6.8182 0 0 6.8182 500.0011 500.0011)" id="83580">
<g style="" vector-effect="non-scaling-stroke">
		<g transform="matrix(1.3333 0 0 1.3333 -0.0016 -0.0016)">
<path style="stroke: rgb(0,0,0); stroke-width: 1; stroke-dasharray: none; stroke-linecap: butt; stroke-dashoffset: 0; stroke-linejoin: miter; stroke-miterlimit: 4; is-custom-font: none; font-file-url: none; fill: rgb(255,178,88); fill-rule: nonzero; opacity: 1;" transform=" translate(-50, -50)" d="m 5 0 h 90 c 2.7617 0 5 2.7617 5 5 v 90 c 0 2.7617 -2.2383 5 -5 5 h -90 c -2.7617 0 -5 -2.7617 -5 -5 v -90 c 0 -2.7617 2.2383 -5 5 -5 z" stroke-linecap="round"/>
</g>
		<g transform="matrix(1.3333 0 0 1.3333 -0.001 -0.001)">
<path style="stroke: rgb(0,0,0); stroke-width: 1; stroke-dasharray: none; stroke-linecap: butt; stroke-dashoffset: 0; stroke-linejoin: miter; stroke-miterlimit: 4; is-custom-font: none; font-file-url: none; fill: rgb(0,0,0); fill-rule: nonzero; opacity: 1;" transform=" translate(-50, -50)" d="m 50 20.934 c -16.027 0 -29.066 13.039 -29.066 29.066 s 13.039 29.066 29.066 29.066 s 29.066 -13.039 29.066 -29.066 s -13.039 -29.066 -29.066 -29.066 z m -26.645 29.066 c 0 -14.691 11.953 -26.645 26.645 -26.645 c 6.9102 0 13.215 2.6445 17.953 6.9766 l -14.82 14.824 h -11.609 v 9.6875 h 1.9219 l -13.113 13.109 c -4.3281 -4.7383 -6.9766 -11.043 -6.9766 -17.953 z m 26.645 26.645 c -6.9102 0 -13.215 -2.6445 -17.953 -6.9766 l 14.824 -14.824 h 0.015625 l 9.6875 -9.6875 h -0.015625 l 13.109 -13.109 c 4.3281 4.7383 6.9766 11.043 6.9766 17.953 c 0 14.691 -11.953 26.645 -26.645 26.645 z" stroke-linecap="round"/>
</g>
		<g transform="matrix(1.3333 0 0 1.3333 -21.7942 -0.0005)">
<path style="stroke: rgb(0,0,0); stroke-width: 1; stroke-dasharray: none; stroke-linecap: butt; stroke-dashoffset: 0; stroke-linejoin: miter; stroke-miterlimit: 4; is-custom-font: none; font-file-url: none; fill: rgb(0,0,0); fill-rule: nonzero; opacity: 1;" transform=" translate(-33.6545, -49.9997)" d="m 28.207 45.156 h 10.895 v 9.6875 h -10.895 z" stroke-linecap="round"/>
</g>
		<g transform="matrix(1.3333 0 0 1.3333 14.7417 -0.0005)">
<path style="stroke: rgb(0,0,0); stroke-width: 1; stroke-dasharray: none; stroke-linecap: butt; stroke-dashoffset: 0; stroke-linejoin: miter; stroke-miterlimit: 4; is-custom-font: none; font-file-url: none; fill: rgb(0,0,0); fill-rule: nonzero; opacity: 1;" transform=" translate(-61.0565, -49.9997)" d="m 59.996 45.156 l -9.6875 9.6875 h 21.496 v -9.6875 z" stroke-linecap="round"/>
</g>
</g>
</g>
</svg>